<?xml version="1.0" encoding="utf-8"?>
<!-- Generator: Adobe Illustrator 18.0.0, SVG Export Plug-In . SVG Version: 6.00 Build 0)  -->
<!DOCTYPE svg PUBLIC "-//W3C//DTD SVG 1.1//EN" "http://www.w3.org/Graphics/SVG/1.1/DTD/svg11.dtd">
<svg version="1.1" id="Layer_1" xmlns="http://www.w3.org/2000/svg" xmlns:xlink="http://www.w3.org/1999/xlink" x="0px" y="0px"
	 viewBox="0 0 218.1 121.7" enable-background="new 0 0 218.1 121.7" xml:space="preserve">
<path fill="#2C2F30" d="M200.4,121.7H17.8c-9.8,0-17.8-8-17.8-17.8V17.8C0,8,8,0,17.8,0h182.6c9.8,0,17.8,8,17.8,17.8v86.1
	C218.1,113.7,210.2,121.7,200.4,121.7z"/>
<path fill="#FFFFFF" d="M92.5,88.3l-21.9-23c-1.3-1.3-2-3-2-4.9c0-1.9,0.7-3.6,2-4.9l21.9-23.1c2.6-2.7,6.8-2.7,9.4,0
	c2.6,2.7,2.6,7.2,0,9.9l-10.5,11h47.5c3.7,0,6.7,3.1,6.7,7s-3,7-6.7,7H91.4l10.5,11c2.6,2.7,2.6,7.2,0,9.9
	C99.3,91,95.1,91,92.5,88.3z"/>
</svg>
