<?xml version="1.0" encoding="utf-8"?>
<!-- Generator: Adobe Illustrator 18.0.0, SVG Export Plug-In . SVG Version: 6.00 Build 0)  -->
<!DOCTYPE svg PUBLIC "-//W3C//DTD SVG 1.1//EN" "http://www.w3.org/Graphics/SVG/1.1/DTD/svg11.dtd">
<svg version="1.1" id="Layer_1" xmlns="http://www.w3.org/2000/svg" xmlns:xlink="http://www.w3.org/1999/xlink" x="0px" y="0px"
	 viewBox="0 0 369.6 140.6" enable-background="new 0 0 369.6 140.6" xml:space="preserve">
<g>
	<line fill="none" stroke="#CC0000" stroke-width="1.3926" x1="0" y1="106.2" x2="164.6" y2="106.2"/>
	<line fill="#231F20" stroke="#CC0000" stroke-width="1.3926" x1="186.6" y1="106.1" x2="363" y2="106.1"/>
	<path fill="#FFFFFF" stroke="#FFFFFF" stroke-width="0.3249" d="M4.4,81.5c0-4.7,0-5.6-0.1-6.5C4.3,74,4,73.5,3,73.3
		c-0.2-0.1-0.8-0.1-1-0.1c-0.1,0-0.2-0.1-0.2-0.2c0-0.2,0.2-0.2,0.5-0.2c1.4,0,3.3,0.1,3.4,0.1c0.7,0,1.9-0.1,3.3-0.1
		c4.9,0,6,3,6,4.5c0,2.5-1.4,4-2.8,5.4c2.2,0.7,5.2,2.8,5.2,6.4c0,3.2-2.5,6.6-7.7,6.6c-0.7,0-3.8-0.2-4-0.2c-0.2,0-2.1,0.1-3,0.1
		c-0.3,0-0.5-0.1-0.5-0.2c0-0.1,0.1-0.2,0.2-0.2c0.3,0,0.6-0.1,0.9-0.1c0.6-0.1,0.8-0.8,0.9-1.7c0.2-1.3,0.2-3.7,0.2-6.5V81.5z
		 M6.8,82.2c0,0.2,0.1,0.3,0.2,0.3c0.2,0,0.7,0.1,1.8,0.1c1.7,0,2.1-0.1,2.7-0.8c0.6-0.7,1.1-1.8,1.1-3c0-2.5-1.1-5.2-4.1-5.2
		c-0.3,0-1,0-1.4,0.2c-0.3,0.1-0.4,0.2-0.4,0.3V82.2z M6.8,85.4c0,2.3,0,6.1,0,6.5c0.1,1.5,0.1,1.9,1,2.4c0.8,0.4,2.1,0.5,2.7,0.5
		c1.6,0,4.3-0.9,4.3-4.3c0-1.8-0.6-4.4-2.9-6c-1-0.7-1.8-0.8-2.5-0.9c-0.4-0.1-1.9-0.1-2.4-0.1c-0.1,0-0.2,0.1-0.2,0.2V85.4z"/>
	<path fill="#FFFFFF" stroke="#FFFFFF" stroke-width="0.3249" d="M48.3,77.2c0.3-0.8,0.4-1,0.6-1c0.2,0,0.3,0.1,0.6,0.9
		c0.4,1,4.3,11.3,5.8,15.1c0.9,2.2,1.6,2.6,2.2,2.8c0.4,0.1,0.8,0.2,1,0.2c0.2,0,0.3,0,0.3,0.1c0,0.2-0.2,0.2-0.5,0.2
		c-0.4,0-2.2,0-3.9,0c-0.5,0-0.8,0-0.8-0.2c0-0.1,0.1-0.2,0.2-0.2c0.1,0,0.3-0.3,0.1-0.7l-2.3-6.2c0-0.1-0.1-0.1-0.2-0.1h-5.4
		c-0.1,0-0.2,0.1-0.3,0.2l-1.5,4.4c-0.2,0.6-0.4,1.2-0.4,1.7c0,0.5,0.5,0.7,1,0.7H45c0.2,0,0.3,0,0.3,0.1c0,0.2-0.2,0.2-0.4,0.2
		c-0.6,0-1.7-0.1-2-0.1c-0.3,0-1.7,0.1-2.8,0.1c-0.3,0-0.5,0-0.5-0.2c0-0.1,0.1-0.1,0.2-0.1c0.2,0,0.5,0,0.7-0.1
		c1.2-0.2,1.7-1.1,2.1-2.4L48.3,77.2z M50.9,87.3c0.1,0,0.1-0.1,0.1-0.2l-2.4-6.8c-0.1-0.4-0.3-0.4-0.4,0l-2.2,6.8
		c0,0.1,0,0.2,0.1,0.2H50.9z"/>
	<path fill="#FFFFFF" stroke="#FFFFFF" stroke-width="0.3249" d="M87.8,88.3c0,3.7,0.1,5.3,0.6,5.7c0.4,0.4,1.1,0.6,3,0.6
		c1.3,0,2.4,0,3-0.8c0.3-0.4,0.6-1,0.7-1.5c0-0.2,0.1-0.3,0.2-0.3c0.1,0,0.2,0.1,0.2,0.4c0,0.3-0.2,1.8-0.4,2.5
		c-0.2,0.6-0.3,0.7-1.6,0.7c-3.6,0-5.3-0.2-6.7-0.2c-0.1,0-0.5,0-1,0c-0.5,0-1.1,0-1.4,0c-0.3,0-0.4,0-0.4-0.2
		c0-0.1,0.1-0.1,0.2-0.1c0.2,0,0.5-0.1,0.8-0.1c0.5-0.1,0.6-0.7,0.7-1.4c0.1-1.1,0.1-3,0.1-5.4v-4.4c0-3.9,0-4.6,0-5.4
		c-0.1-0.9-0.3-1.3-1.1-1.4C84.4,77,83.9,77,83.7,77c-0.1,0-0.2,0-0.2-0.2c0-0.1,0.1-0.2,0.4-0.2c1.1,0,2.7,0.1,2.8,0.1
		s2-0.1,2.7-0.1c0.3,0,0.4,0.1,0.4,0.2c0,0.1-0.1,0.2-0.2,0.2c-0.2,0-0.5,0-0.8,0.1c-0.7,0.1-0.9,0.6-1,1.4
		c-0.1,0.8-0.1,1.5-0.1,5.4V88.3z"/>
	<path fill="#FFFFFF" stroke="#FFFFFF" stroke-width="0.3249" d="M124.9,88.3c0,3.7,0.1,5.3,0.6,5.7c0.4,0.4,1.1,0.6,3,0.6
		c1.3,0,2.4,0,3-0.8c0.3-0.4,0.6-1,0.7-1.5c0-0.2,0.1-0.3,0.2-0.3c0.1,0,0.2,0.1,0.2,0.4c0,0.3-0.2,1.8-0.4,2.5
		c-0.2,0.6-0.3,0.7-1.6,0.7c-3.6,0-5.3-0.2-6.7-0.2c-0.1,0-0.5,0-1,0c-0.5,0-1.1,0-1.4,0c-0.3,0-0.4,0-0.4-0.2c0-0.1,0-0.1,0.2-0.1
		c0.2,0,0.5-0.1,0.8-0.1c0.5-0.1,0.6-0.7,0.7-1.4c0.1-1.1,0.1-3,0.1-5.4v-4.4c0-3.9,0-4.6-0.1-5.4c0-0.9-0.3-1.3-1.1-1.4
		c-0.2-0.1-0.6-0.1-0.9-0.1c-0.1,0-0.2,0-0.2-0.2c0-0.1,0.1-0.2,0.4-0.2c1.1,0,2.7,0.1,2.8,0.1c0.1,0,2-0.1,2.7-0.1
		c0.3,0,0.4,0.1,0.4,0.2c0,0.1-0.1,0.2-0.2,0.2c-0.2,0-0.5,0-0.8,0.1c-0.7,0.1-0.9,0.6-1,1.4c-0.1,0.8-0.1,1.5-0.1,5.4V88.3z"/>
	<path fill="#FFFFFF" stroke="#FFFFFF" stroke-width="0.3249" d="M220.6,95.2c-0.4-0.2-0.5-0.3-0.5-1.1c0-1.5,0.1-2.7,0.2-3.2
		c0-0.3,0.1-0.5,0.2-0.5c0.2,0,0.2,0.1,0.2,0.3c0,0.3,0,0.7,0.1,1.1c0.5,2.2,2.4,3.1,4.5,3.1c2.9,0,4.3-2.1,4.3-4
		c0-2.1-0.9-3.3-3.5-5.4l-1.4-1.1c-3.2-2.6-3.9-4.5-3.9-6.5c0-3.2,2.4-5.4,6.2-5.4c1.2,0,2.1,0.1,2.8,0.3c0.6,0.1,0.8,0.2,1.1,0.2
		c0.2,0,0.3,0.1,0.3,0.2c0,0.2-0.1,1.1-0.1,3.2c0,0.5-0.1,0.7-0.2,0.7c-0.2,0-0.2-0.2-0.2-0.4c0-0.4-0.2-1.2-0.4-1.5
		c-0.2-0.3-1-1.6-3.8-1.6c-2.1,0-3.7,1.3-3.7,3.5c0,1.7,0.8,2.7,3.7,5.1l0.8,0.7c3.6,2.8,4.4,4.7,4.4,7.1c0,1.2-0.5,3.5-2.6,5
		c-1.3,0.9-2.9,1.3-4.6,1.3C223.2,96,221.8,95.8,220.6,95.2z"/>
	<path fill="#FFFFFF" stroke="#FFFFFF" stroke-width="0.3249" d="M260.3,88.3c0,2.4,0,4.4,0.1,5.4c0.1,0.7,0.2,1.3,1,1.4
		c0.4,0,0.9,0.1,1.1,0.1c0.2,0,0.2,0.1,0.2,0.2c0,0.1-0.1,0.2-0.4,0.2c-1.4,0-3-0.1-3.1-0.1c-0.1,0-1.7,0.1-2.5,0.1
		c-0.3,0-0.4,0-0.4-0.2c0-0.1,0.1-0.2,0.2-0.2c0.2,0,0.5,0,0.8-0.1c0.5-0.1,0.6-0.7,0.7-1.4c0.1-1.1,0.1-3,0.1-5.4V77.7l-3.7,0
		c-1.6,0-2.2,0.2-2.6,0.8c-0.3,0.4-0.3,0.6-0.4,0.8c-0.1,0.2-0.2,0.2-0.2,0.2c-0.1,0-0.1-0.1-0.1-0.2c0-0.3,0.5-2.4,0.6-2.6
		c0.1-0.2,0.2-0.5,0.2-0.5c0.2,0,0.4,0.2,1.1,0.3c0.7,0.1,1.7,0.1,2,0.1h9.4c0.8,0,1.4-0.1,1.8-0.1c0.4-0.1,0.6-0.1,0.7-0.1
		c0.1,0,0.1,0.2,0.1,0.3c0,0.8-0.1,2.5-0.1,2.8c0,0.2-0.1,0.3-0.2,0.3c-0.1,0-0.2-0.1-0.2-0.4l0-0.3c-0.1-0.8-0.7-1.3-3.1-1.4
		l-3.2,0V88.3z"/>
	<path fill="#FFFFFF" stroke="#FFFFFF" stroke-width="0.3249" d="M289.9,77.2c0.3-0.8,0.4-1,0.6-1s0.3,0.1,0.6,0.9
		c0.4,1,4.3,11.3,5.8,15.1c0.9,2.2,1.6,2.6,2.2,2.8c0.4,0.1,0.8,0.2,1,0.2c0.2,0,0.2,0,0.2,0.2c0,0.2-0.2,0.2-0.5,0.2
		c-0.4,0-2.2,0-3.9,0c-0.5,0-0.8,0-0.8-0.2c0-0.1,0.1-0.2,0.2-0.2c0.2,0,0.3-0.3,0.2-0.7l-2.3-6.2c-0.1-0.1-0.1-0.2-0.2-0.2h-5.4
		c-0.1,0-0.2,0.1-0.2,0.2l-1.5,4.4c-0.2,0.6-0.4,1.2-0.4,1.7c0,0.5,0.5,0.7,1,0.7h0.3c0.2,0,0.3,0.1,0.3,0.2c0,0.2-0.2,0.2-0.4,0.2
		c-0.6,0-1.7-0.1-2-0.1c-0.3,0-1.7,0.1-2.8,0.1c-0.3,0-0.5,0-0.5-0.2c0-0.1,0.1-0.2,0.2-0.2c0.2,0,0.5,0,0.7,0
		c1.2-0.2,1.7-1.1,2.1-2.4L289.9,77.2z M292.5,87.3c0.1,0,0.1-0.1,0.1-0.2l-2.4-6.8c-0.1-0.4-0.2-0.4-0.4,0l-2.2,6.8
		c-0.1,0.1,0,0.2,0.1,0.2H292.5z"/>
	<path fill="#FFFFFF" stroke="#FFFFFF" stroke-width="0.3249" d="M322.7,88.3c0,2.4,0,4.4,0.1,5.4c0.1,0.7,0.2,1.3,1,1.4
		c0.4,0,0.9,0.1,1.1,0.1c0.2,0,0.2,0.1,0.2,0.2c0,0.1-0.1,0.2-0.4,0.2c-1.4,0-3-0.1-3.1-0.1s-1.7,0.1-2.5,0.1c-0.3,0-0.4,0-0.4-0.2
		c0-0.1,0.1-0.2,0.2-0.2c0.2,0,0.5,0,0.8-0.1c0.5-0.1,0.6-0.7,0.7-1.4c0.1-1.1,0.1-3,0.1-5.4V77.7l-3.7,0c-1.6,0-2.2,0.2-2.6,0.8
		c-0.3,0.4-0.4,0.6-0.4,0.8c-0.1,0.2-0.2,0.2-0.2,0.2c-0.1,0-0.1-0.1-0.1-0.2c0-0.3,0.5-2.4,0.6-2.6c0.1-0.2,0.2-0.5,0.2-0.5
		c0.2,0,0.4,0.2,1.1,0.3c0.7,0.1,1.7,0.1,2,0.1h9.4c0.8,0,1.4-0.1,1.8-0.1c0.4-0.1,0.6-0.1,0.7-0.1c0.1,0,0.1,0.2,0.1,0.3
		c0,0.8-0.1,2.5-0.1,2.8c0,0.2-0.1,0.3-0.2,0.3c-0.1,0-0.2-0.1-0.2-0.4l0-0.3c-0.1-0.8-0.7-1.3-3.1-1.4l-3.2,0V88.3z"/>
	<path fill="#FFFFFF" stroke="#FFFFFF" stroke-width="0.3249" d="M349.8,83.9c0-3.9,0-4.6-0.1-5.4c0-0.9-0.3-1.3-1.1-1.4
		c-0.2,0-0.6-0.1-0.9-0.1c-0.1,0-0.2-0.1-0.2-0.2c0-0.2,0.1-0.2,0.4-0.2c1.1,0,2.7,0.1,2.8,0.1c0.2,0,5.2,0,5.7,0
		c0.5,0,0.9-0.1,1.1-0.1c0.1,0,0.2-0.1,0.3-0.1c0.1,0,0.1,0.1,0.1,0.2c0,0.2-0.1,0.5-0.2,1.2c0,0.3-0.1,1.4-0.1,1.7
		c0,0.1-0.1,0.3-0.2,0.3c-0.2,0-0.2-0.1-0.2-0.3c0-0.2,0-0.6-0.1-0.9c-0.2-0.4-0.4-0.7-1.8-0.9c-0.4-0.1-3.2-0.1-3.4-0.1
		c-0.1,0-0.2,0.1-0.2,0.3v6.9c0,0.2,0,0.2,0.2,0.2c0.3,0,3.4,0,4,0c0.6-0.1,1-0.1,1.2-0.4c0.2-0.2,0.3-0.3,0.4-0.3
		c0.1,0,0.1,0.1,0.1,0.2c0,0.2-0.1,0.6-0.2,1.4c-0.1,0.5-0.1,1.4-0.1,1.6c0,0.2,0,0.5-0.2,0.5c-0.1,0-0.2-0.1-0.2-0.2
		c0-0.3,0-0.5-0.1-0.8c-0.1-0.4-0.3-0.8-1.3-0.9c-0.7-0.1-3.2-0.1-3.6-0.1c-0.1,0-0.2,0.1-0.2,0.2v2.2c0,0.9,0,3.8,0,4.3
		c0.1,1.7,0.5,2.1,2.9,2.1c0.7,0,1.8,0,2.4-0.3c0.7-0.3,1-0.8,1.1-1.8c0-0.3,0.1-0.4,0.2-0.4c0.2,0,0.2,0.2,0.2,0.4
		c0,0.2-0.2,1.9-0.3,2.4c-0.2,0.7-0.4,0.7-1.4,0.7c-3.8,0-5.5-0.2-6.2-0.2c-0.1,0-0.5,0-1,0c-0.5,0-1.1,0-1.5,0
		c-0.3,0-0.4,0-0.4-0.2c0-0.1,0.1-0.2,0.2-0.2c0.2,0,0.5,0,0.8-0.1c0.5-0.1,0.6-0.7,0.7-1.4c0.1-1.1,0.1-3,0.1-5.4V83.9z"/>
	<path fill="#FFFFFF" stroke="#FFFFFF" stroke-width="0.3249" d="M4.3,125.5c0-4.7,0-5.6-0.1-6.5c-0.1-1-0.3-1.5-1.3-1.7
		c-0.2-0.1-0.8-0.1-1-0.1c-0.1,0-0.2-0.1-0.2-0.2c0-0.2,0.2-0.2,0.5-0.2c1.4,0,3.2,0.1,3.5,0.1c0.3,0,2.1-0.1,3-0.1
		c0.3,0,0.5,0.1,0.5,0.2c0,0.1-0.1,0.2-0.2,0.2c-0.2,0-0.4,0-0.8,0.1c-0.8,0.1-1.1,0.7-1.1,1.7C7,120,7,120.8,7,125.5v4.2
		c0,4.3,1,6.2,2.3,7.5c1.5,1.4,2.8,1.7,4.6,1.7c1.8,0,3.7-0.9,4.7-2.2c1.4-1.7,1.8-4.3,1.8-7.4v-3.8c0-4.7,0-5.6-0.1-6.5
		c-0.1-1-0.3-1.5-1.3-1.7c-0.2-0.1-0.8-0.1-1-0.1c-0.1,0-0.2-0.1-0.2-0.2c0-0.2,0.2-0.2,0.5-0.2c1.4,0,3,0.1,3.2,0.1
		c0.2,0,1.6-0.1,2.5-0.1c0.3,0,0.5,0.1,0.5,0.2c0,0.1-0.1,0.2-0.2,0.2c-0.2,0-0.4,0-0.8,0.1c-0.8,0.2-1.1,0.7-1.1,1.7
		c-0.1,1-0.1,1.8-0.1,6.5v3.2c0,3.3-0.4,6.9-2.8,9c-2.2,1.9-4.4,2.2-6.2,2.2c-1,0-4.1-0.1-6.2-2.1c-1.5-1.4-2.6-3.5-2.6-7.9V125.5z"
		/>
	<path fill="#FFFFFF" stroke="#FFFFFF" stroke-width="0.3249" d="M51.4,136.2c0,2.1,0.3,2.7,1,2.9c0.5,0.1,1,0.2,1.3,0.2
		c0.1,0,0.2,0.1,0.2,0.2c0,0.2-0.2,0.2-0.5,0.2c-1.4,0-2.4-0.1-2.7-0.1c-0.2,0-1.3,0.1-2.4,0.1c-0.3,0-0.4,0-0.4-0.2
		c0-0.1,0.1-0.2,0.2-0.2c0.2,0,0.7,0,1-0.2c0.6-0.2,0.8-0.9,0.8-3.2l0-14.4c0-1,0.1-1.3,0.3-1.3c0.2,0,0.6,0.6,0.9,0.8
		c0.4,0.4,4.1,4.5,8,8.6c2.5,2.7,5.2,5.7,6,6.5l-0.3-12.7c0-1.6-0.2-2.2-1-2.4c-0.5-0.1-1-0.1-1.2-0.1c-0.2,0-0.2-0.1-0.2-0.2
		c0-0.2,0.2-0.2,0.5-0.2c1.1,0,2.3,0.1,2.6,0.1c0.3,0,1.1-0.1,2.1-0.1c0.3,0,0.5,0,0.5,0.2c0,0.1-0.1,0.2-0.3,0.2
		c-0.1,0-0.3,0-0.6,0.1c-0.8,0.2-0.9,0.7-0.9,2.2l0,14.7c0,1.7-0.1,1.8-0.2,1.8c-0.2,0-0.5-0.3-1.8-1.6c-0.3-0.2-3.9-3.9-6.5-6.8
		c-2.9-3.1-5.7-6.3-6.5-7.2L51.4,136.2z"/>
	<path fill="#FFFFFF" stroke="#FFFFFF" stroke-width="0.3249" d="M99.1,132.3c0,2.4,0,4.4,0.1,5.4c0.1,0.7,0.2,1.3,1,1.4
		c0.4,0,0.9,0.1,1.1,0.1c0.1,0,0.2,0.1,0.2,0.2c0,0.1-0.1,0.2-0.4,0.2c-1.4,0-3-0.1-3.1-0.1c-0.1,0-1.7,0.1-2.5,0.1
		c-0.3,0-0.4,0-0.4-0.2c0-0.1,0.1-0.2,0.2-0.2c0.2,0,0.5,0,0.8-0.1c0.5-0.1,0.6-0.7,0.7-1.4c0.1-1.1,0.1-3,0.1-5.4v-4.4
		c0-3.9,0-4.6-0.1-5.4c0-0.9-0.3-1.3-0.9-1.4c-0.3-0.1-0.6-0.1-0.8-0.1c-0.1,0-0.2-0.1-0.2-0.2c0-0.2,0.1-0.2,0.4-0.2
		c0.8,0,2.4,0.1,2.5,0.1c0.1,0,1.7-0.1,2.5-0.1c0.3,0,0.4,0,0.4,0.2c0,0.1-0.1,0.2-0.2,0.2c-0.2,0-0.3,0-0.6,0.1
		c-0.7,0.1-0.9,0.6-0.9,1.4c-0.1,0.8-0.1,1.5-0.1,5.4V132.3z"/>
	<path fill="#FFFFFF" stroke="#FFFFFF" stroke-width="0.3249" d="M134.8,136.5c1.5-3.4,4.8-12.1,5.4-13.9c0.1-0.4,0.2-0.7,0.2-1
		c0-0.2-0.1-0.5-0.3-0.6c-0.3-0.1-0.7-0.1-1-0.1c-0.2,0-0.3,0-0.3-0.2c0-0.2,0.2-0.2,0.6-0.2c1,0,2.2,0.1,2.5,0.1
		c0.2,0,1.2-0.1,2-0.1c0.3,0,0.4,0,0.4,0.2s-0.1,0.2-0.3,0.2c-0.2,0-0.7,0-1.2,0.3c-0.3,0.2-0.7,0.7-1.4,2.4
		c-0.3,0.7-1.5,3.7-2.8,6.8c-1.5,3.7-2.7,6.4-3.2,7.6c-0.7,1.5-0.8,1.9-1.1,1.9c-0.3,0-0.4-0.4-0.9-1.6l-6.1-15.4
		c-0.6-1.4-0.9-1.7-1.8-1.9c-0.4-0.1-0.8-0.1-1-0.1s-0.2-0.1-0.2-0.2c0-0.2,0.3-0.2,0.7-0.2c1.2,0,2.6,0.1,2.9,0.1
		c0.3,0,1.4-0.1,2.3-0.1c0.5,0,0.7,0,0.7,0.2s-0.1,0.2-0.3,0.2c-0.3,0-0.7,0-1,0.1c-0.3,0.1-0.3,0.3-0.3,0.5c0,0.3,0.3,1.1,0.7,2.1
		L134.8,136.5z"/>
	<path fill="#FFFFFF" stroke="#FFFFFF" stroke-width="0.3249" d="M170.4,127.9c0-3.9,0-4.6,0-5.4c-0.1-0.9-0.3-1.3-1.1-1.4
		c-0.2,0-0.6-0.1-0.9-0.1c-0.1,0-0.2-0.1-0.2-0.2c0-0.2,0.1-0.2,0.4-0.2c1.1,0,2.7,0.1,2.8,0.1c0.2,0,5.2,0,5.7,0
		c0.5,0,0.9-0.1,1.1-0.1c0.1,0,0.2-0.1,0.4-0.1c0.1,0,0.1,0.1,0.1,0.2c0,0.2-0.1,0.5-0.2,1.2c0,0.2-0.1,1.4-0.1,1.7
		c0,0.1-0.1,0.3-0.2,0.3c-0.2,0-0.2-0.1-0.2-0.3c0-0.2,0-0.6-0.2-0.9c-0.2-0.4-0.4-0.7-1.8-0.9c-0.4,0-3.2-0.1-3.4-0.1
		c-0.1,0-0.2,0.1-0.2,0.3v6.9c0,0.2,0,0.3,0.2,0.3c0.3,0,3.4,0,4,0c0.6,0,1-0.1,1.2-0.4c0.2-0.2,0.3-0.3,0.4-0.3
		c0.1,0,0.1,0,0.1,0.2c0,0.2-0.1,0.6-0.2,1.4c-0.1,0.5-0.1,1.4-0.1,1.6c0,0.2,0,0.5-0.2,0.5c-0.1,0-0.2-0.1-0.2-0.2
		c0-0.3,0-0.5-0.1-0.8c-0.1-0.4-0.3-0.8-1.3-0.9c-0.7-0.1-3.2-0.1-3.6-0.1c-0.1,0-0.2,0.1-0.2,0.2v2.2c0,0.9,0,3.8,0,4.3
		c0.1,1.7,0.5,2.1,2.9,2.1c0.7,0,1.8,0,2.4-0.3c0.7-0.3,1-0.8,1.1-1.8c0.1-0.3,0.1-0.4,0.2-0.4c0.2,0,0.2,0.2,0.2,0.4
		c0,0.2-0.2,1.9-0.3,2.4c-0.2,0.7-0.4,0.7-1.4,0.7c-3.8,0-5.5-0.2-6.2-0.2c-0.1,0-0.5,0-1,0c-0.5,0-1.1,0-1.5,0
		c-0.3,0-0.4,0-0.4-0.2c0-0.1,0.1-0.2,0.2-0.2c0.2,0,0.5,0,0.8-0.1c0.5-0.1,0.6-0.7,0.7-1.4c0.1-1.1,0.1-3,0.1-5.4V127.9z"/>
	<path fill="#FFFFFF" stroke="#FFFFFF" stroke-width="0.3249" d="M209.3,127.9c0-3.9,0-4.6-0.1-5.4c-0.1-0.9-0.2-1.3-1.1-1.4
		c-0.2,0-0.6-0.1-0.9-0.1c-0.1,0-0.2-0.1-0.2-0.2c0-0.2,0.1-0.2,0.4-0.2c1.1,0,2.7,0.1,2.8,0.1c0.3,0,2.2-0.1,3-0.1
		c1.6,0,3.3,0.1,4.6,1.1c0.6,0.5,1.7,1.7,1.7,3.4c0,1.9-0.8,3.7-3,5.8c2.1,2.6,3.8,4.9,5.2,6.4c1.4,1.4,2.4,1.7,3.1,1.8
		c0.5,0.1,0.8,0.1,1,0.1c0.1,0,0.2,0.1,0.2,0.2c0,0.2-0.2,0.2-0.6,0.2h-1.8c-1.4,0-2-0.1-2.7-0.5c-1.1-0.6-2-1.8-3.4-3.7
		c-1.1-1.4-2.2-3.1-2.7-3.7c-0.1-0.1-0.2-0.2-0.3-0.2l-3.1,0c-0.1,0-0.2,0.1-0.2,0.2v0.6c0,2.4,0,4.4,0.1,5.4c0.1,0.7,0.2,1.3,1,1.4
		c0.4,0,0.9,0.1,1.1,0.1c0.2,0,0.2,0.1,0.2,0.2c0,0.1-0.1,0.2-0.4,0.2c-1.4,0-3-0.1-3.1-0.1c0,0-1.6,0.1-2.4,0.1
		c-0.3,0-0.4,0-0.4-0.2c0-0.1,0-0.2,0.2-0.2c0.2,0,0.5,0,0.8-0.1c0.5-0.1,0.6-0.7,0.7-1.4c0.1-1.1,0.1-3,0.1-5.4V127.9z
		 M211.3,130.1c0,0.1,0.1,0.2,0.2,0.3c0.4,0.2,1.5,0.4,2.6,0.4c0.6,0,1.3-0.1,1.9-0.5c0.9-0.6,1.5-2,1.5-3.9c0-3.1-1.7-5-4.3-5
		c-0.8,0-1.4,0.1-1.7,0.2c-0.1,0.1-0.2,0.2-0.2,0.3V130.1z"/>
	<path fill="#FFFFFF" stroke="#FFFFFF" stroke-width="0.3249" d="M248.1,139.2c-0.4-0.2-0.4-0.3-0.4-1c0-1.3,0.1-2.3,0.1-2.7
		c0-0.3,0.1-0.4,0.2-0.4c0.2,0,0.2,0.1,0.2,0.3c0,0.2,0,0.6,0.1,0.9c0.4,1.9,2,2.6,3.7,2.6c2.4,0,3.6-1.7,3.6-3.3
		c0-1.7-0.7-2.7-2.9-4.5l-1.1-0.9c-2.7-2.2-3.3-3.7-3.3-5.4c0-2.7,2-4.5,5.2-4.5c1,0,1.7,0.1,2.3,0.2c0.5,0.1,0.7,0.1,0.9,0.1
		c0.2,0,0.2,0,0.2,0.2c0,0.1-0.1,1-0.1,2.7c0,0.4-0.1,0.6-0.2,0.6c-0.2,0-0.2-0.1-0.2-0.3c0-0.3-0.2-1-0.3-1.3
		c-0.2-0.3-0.8-1.3-3.1-1.3c-1.7,0-3.1,1.1-3.1,2.9c0,1.4,0.7,2.3,3.1,4.2l0.7,0.6c3,2.3,3.7,3.9,3.7,5.9c0,1-0.4,2.9-2.1,4.2
		c-1.1,0.8-2.4,1.1-3.8,1.1C250.3,139.9,249.1,139.7,248.1,139.2z"/>
	<path fill="#FFFFFF" stroke="#FFFFFF" stroke-width="0.3249" d="M285.8,132.3c0,2.4,0,4.4,0.1,5.4c0.1,0.7,0.2,1.3,1,1.4
		c0.4,0,0.9,0.1,1.1,0.1c0.2,0,0.2,0.1,0.2,0.2c0,0.1-0.1,0.2-0.4,0.2c-1.4,0-3-0.1-3.1-0.1s-1.7,0.1-2.5,0.1c-0.3,0-0.4,0-0.4-0.2
		c0-0.1,0.1-0.2,0.2-0.2c0.2,0,0.5,0,0.8-0.1c0.5-0.1,0.6-0.7,0.7-1.4c0.1-1.1,0.1-3,0.1-5.4v-4.4c0-3.9,0-4.6,0-5.4
		c-0.1-0.9-0.3-1.3-0.9-1.4c-0.3-0.1-0.6-0.1-0.8-0.1c-0.1,0-0.2-0.1-0.2-0.2c0-0.2,0.1-0.2,0.4-0.2c0.8,0,2.4,0.1,2.5,0.1
		s1.7-0.1,2.5-0.1c0.3,0,0.4,0,0.4,0.2c0,0.1-0.1,0.2-0.2,0.2c-0.2,0-0.3,0-0.6,0.1c-0.7,0.1-0.9,0.6-0.9,1.4
		c-0.1,0.8-0.1,1.5-0.1,5.4V132.3z"/>
	<path fill="#FFFFFF" stroke="#FFFFFF" stroke-width="0.3249" d="M318.9,132.3c0,2.4,0,4.4,0.1,5.4c0.1,0.7,0.2,1.3,1,1.4
		c0.4,0,0.9,0.1,1.1,0.1c0.2,0,0.2,0.1,0.2,0.2c0,0.1-0.1,0.2-0.4,0.2c-1.4,0-3-0.1-3.1-0.1s-1.7,0.1-2.5,0.1c-0.3,0-0.4,0-0.4-0.2
		c0-0.1,0-0.2,0.2-0.2c0.2,0,0.5,0,0.8-0.1c0.5-0.1,0.6-0.7,0.7-1.4c0.1-1.1,0.1-3,0.1-5.4v-10.6l-3.7,0c-1.6,0-2.2,0.2-2.6,0.8
		c-0.3,0.4-0.4,0.6-0.4,0.8c-0.1,0.2-0.1,0.3-0.2,0.3c-0.1,0-0.1-0.1-0.1-0.2c0-0.3,0.5-2.4,0.6-2.6c0.1-0.2,0.2-0.5,0.3-0.5
		c0.2,0,0.4,0.2,1.1,0.3c0.7,0.1,1.7,0.1,2,0.1h9.4c0.8,0,1.4-0.1,1.8-0.1c0.4-0.1,0.6-0.1,0.7-0.1c0.1,0,0.1,0.1,0.1,0.3
		c0,0.8-0.1,2.5-0.1,2.8c0,0.2-0.1,0.3-0.2,0.3c-0.1,0-0.2-0.1-0.2-0.4l0-0.3c-0.1-0.8-0.7-1.3-3.1-1.4l-3.2,0V132.3z"/>
	<path fill="#FFFFFF" stroke="#FFFFFF" stroke-width="0.3249" d="M351.6,133.1c0-1.4-0.2-1.9-0.6-2.6c-0.2-0.4-3.5-5.9-4.4-7.2
		c-0.6-0.9-1.3-1.6-1.7-1.9c-0.4-0.3-0.9-0.4-1.1-0.4c-0.1,0-0.3-0.1-0.3-0.2c0-0.1,0.1-0.2,0.3-0.2c0.5,0,2.4,0.1,2.5,0.1
		c0.2,0,1.1-0.1,2.1-0.1c0.3,0,0.3,0.1,0.3,0.2s-0.2,0.1-0.4,0.2c-0.2,0.1-0.3,0.3-0.3,0.5c0,0.3,0.1,0.6,0.3,1
		c0.4,0.7,4.2,7.2,4.6,7.9c0.5-1.1,3.7-6.5,4.2-7.4c0.3-0.5,0.4-1,0.4-1.3c0-0.4-0.1-0.6-0.4-0.7c-0.2-0.1-0.4-0.1-0.4-0.3
		c0-0.1,0.2-0.1,0.4-0.1c0.7,0,1.5,0.1,1.7,0.1c0.2,0,2-0.1,2.4-0.1c0.2,0,0.3,0,0.3,0.1c0,0.1-0.1,0.2-0.3,0.2
		c-0.3,0-0.8,0.1-1.2,0.4c-0.5,0.3-0.8,0.6-1.3,1.3c-0.8,1-4.3,6.9-4.8,8c-0.4,0.9-0.4,1.7-0.4,2.5v2.2c0,0.4,0,1.5,0.1,2.5
		c0.1,0.7,0.3,1.3,1,1.4c0.4,0,0.9,0.1,1.1,0.1c0.2,0,0.2,0.1,0.2,0.2c0,0.1-0.1,0.2-0.4,0.2c-1.4,0-3-0.1-3.1-0.1
		c-0.1,0-1.7,0.1-2.5,0.1c-0.3,0-0.4,0-0.4-0.2c0-0.1,0.1-0.2,0.2-0.2c0.2,0,0.5,0,0.8-0.1c0.5-0.1,0.7-0.7,0.8-1.4
		c0.1-1.1,0.1-2.1,0.1-2.5V133.1z"/>
	<g display="none">
		<path display="inline" fill="#231F20" d="M366.8,135c-1.5,0-2.9,1.2-2.9,2.8c0,1.6,1.3,2.8,2.9,2.8c1.5,0,2.8-1.2,2.8-2.8
			C369.6,136.2,368.3,135,366.8,135z M366.8,140.2c-1.3,0-2.3-1-2.3-2.3c0-1.3,1-2.3,2.3-2.3c1.3,0,2.3,1,2.3,2.3
			C369.1,139.2,368.1,140.2,366.8,140.2z"/>
		<path display="inline" fill="#231F20" d="M368.1,137.1c0-0.6-0.4-0.9-1.1-0.9h-1.2v3.2h0.5V138h0.6l0.9,1.4h0.6l-0.9-1.4
			C367.7,138,368.1,137.7,368.1,137.1z M366.2,137.6v-1h0.7c0.3,0,0.7,0.1,0.7,0.5c0,0.5-0.4,0.5-0.8,0.5H366.2z"/>
	</g>
</g>
<g>
	<circle fill="#FFFFFF" stroke="#FFFFFF" cx="192.9" cy="38.7" r="0.5"/>
	<circle fill="#FFFFFF" stroke="#FFFFFF" cx="195.6" cy="38.8" r="0.5"/>
	<circle fill="#FFFFFF" stroke="#FFFFFF" cx="195.6" cy="37.6" r="0.5"/>
	<circle fill="#FFFFFF" stroke="#FFFFFF" cx="195.6" cy="40" r="0.5"/>
	<circle fill="#FFFFFF" stroke="#FFFFFF" cx="191.6" cy="39.1" r="0.5"/>
	<circle fill="#FFFFFF" stroke="#FFFFFF" cx="190.2" cy="38.7" r="0.5"/>
	<circle fill="#FFFFFF" stroke="#FFFFFF" cx="193.6" cy="37.6" r="0.5"/>
	<circle fill="#FFFFFF" stroke="#FFFFFF" cx="189.5" cy="37.6" r="0.5"/>
	<path fill="#FFFFFF" d="M219.7,0.6c-3.3,2.7-6.7,4.8-9.9,6.4V1.9V0.5h-1.3h-65.8h-1.3v1.3v3.5c-2.2-1.3-4.4-2.8-6.6-4.6
		c-2.5-1.6-2.3,0.6-1.2,2.4c0.4,0.7,0.8,1.4,1.2,2.1c0,0.1-0.1,0.2-0.1,0.3c-0.4,1.1,0.6,2.4,2.4,3.3c-0.1,0.1-0.1,0.2-0.1,0.3
		c-0.3,1.2,1,2.6,3,3.3c0,0.1-0.1,0.2-0.1,0.3c-0.2,0.9,0.5,1.8,1.7,2.5v37v2.1c0,18.4,4.5,33.4,13.5,44.6
		c7.3,9.1,15.5,13.3,19.9,15.5l0.2,0.1l0.6,0.3c0,0,0.6-0.3,0.6-0.3l1.1-0.5c8.9-4.4,32.5-16.1,32.5-59.6v-2.7V18.8l0,0
		c0.3-0.1,0.6-0.1,0.9-0.2c1.3-0.6,2.1-1.5,1.9-2.4c0-0.1,0-0.2-0.1-0.2c0.1-0.2,0.3-0.3,0.4-0.5c1.6-0.7,2.7-1.8,2.4-2.9
		c0-0.1,0-0.1,0-0.2c0.1-0.1,0.1-0.2,0.2-0.3c1.8-0.7,3-2.1,2.7-3.2c0-0.1-0.1-0.2-0.1-0.3c1.7-0.9,2.7-2.2,2.3-3.3
		c-0.1-0.2-0.2-0.4-0.4-0.6c0.3-0.6,0.6-1.2,0.9-1.8C221.8,1.1,222.2-1,219.7,0.6z M144,3.2h63.1v5.1c-11.1,5.1-20.9,6.8-25.9,19.1
		c-0.1-0.9-0.5-3.1-0.8-4.7c-0.1,0.4-0.6,0.9-0.9,1.2l0.3,4.2c0,0,0,0.1-0.1,0.2l-2.4,2.1c0,0-0.1,0-0.1,0l1.4-5.7c0,0,0-0.1-0.1,0
		c-0.5,0.3-1,0.6-1.6,0.7c0,0-0.1,0,0,0c1.8-2.1-0.3-3.1,1.2-5.2c-0.8-1.4-2.3-0.8-2.6-0.7c-0.1,0-0.1-0.1-0.1-0.1V18
		c0,0,0-0.1,0.1-0.1c1.4-0.3,3.4,0,4.3,2c0.6-0.1,1.5,0.2,1.5,1.2c0.2-0.9,0.2-1.8-0.1-2c0.8-0.8,0.7-2.1,0.4-3
		c-0.1,0.3-0.3,0.6-0.5,0.9c-0.1,0.1-0.1,0.1-0.2,0.2c0,0,0,0-0.1,0c-0.1,0-0.1,0.1-0.2,0.1c0,0-0.1,0-0.1,0c-0.1,0-0.1,0.1-0.2,0.1
		c0,0-0.1,0-0.1,0c-0.1,0-0.1,0-0.2,0.1c0,0-0.1,0-0.1,0c0,0-0.1,0-0.2,0c0,0-0.1,0-0.1,0c-0.1,0-0.1,0-0.2,0c0,0-0.1,0-0.1,0
		c0,0-0.1,0-0.1,0c0,0-0.1,0-0.1,0c0,0-0.1,0-0.1,0c0,0,0,0,0,0c0,0,0,0,0,0c0,0-0.1,0,0,0c0,0,0.1,0,0.1-0.1c0,0,0.1,0,0.1,0
		c0,0,0.1,0,0.1-0.1c0,0,0.1,0,0.1,0c0,0,0.1-0.1,0.1-0.1c0,0,0,0,0.1,0c0.1-0.1,0.1-0.1,0.2-0.2c0.5-0.5,0.7-1.2,0.6-1.8
		c-0.5-0.1-1-0.5-1.3-1c-1.8-2.1-6.7-0.7-6.9,1.7c-1.9,1.3-1.2,3.6-0.1,4.3c0.2,1.2,0.8,2.9,2.5,5.1c0.3,0.8-0.4,2-1.2,3
		c0,0-0.1,0.1-0.1,0c-5.4-14.2-16.8-14.8-29.5-21.4V3.2z M175.2,20.1l0.8,1.9c0,0.1,0,0.1,0,0.1h-0.8c0,0,0,0,0-0.1L175.2,20.1
		C175.1,20,175.1,20.1,175.2,20.1z M173.7,19.7C173.7,19.7,173.6,19.7,173.7,19.7c-0.5-0.4-0.7-1.1-0.6-1.8c0.2-0.8,0.8-1.4,1.6-1.6
		c0.2,0,0.4-0.1,0.5-0.1c0.9,0.1,1.8-0.4,2.2-1.3c0.1-0.3,0.1-0.5,0.1-0.8c0,0,0-0.1,0.1,0c0.4,0.5,0.5,1.2,0.3,1.8
		c-0.3,0.8-1,1.3-1.8,1.3c0,0-0.3,0-0.4,0c-1.2-0.1-1.9,0.6-2,1.6C173.6,19.1,173.6,19.4,173.7,19.7z M170.6,26.5
		c-0.4-0.1-0.7-0.1-1.3-0.1c0,0-0.1,0-0.1-0.1c-2-5.2-5.6-8.3-10.1-10.9c-0.2-0.1-0.3-0.2,0.1-0.1C164.1,17.9,168.1,20.9,170.6,26.5
		C170.7,26.5,170.8,26.5,170.6,26.5z M159.8,100.4c-1-1-1.9-2.1-2.9-3.3C148.4,86.5,144,72,144,54.2v-2.1V18.5
		c0.6,0.3,1.4,0.6,2.2,0.8c-0.1,0.2-0.2,0.4-0.2,0.6c-0.1,1.3,1.6,2.5,3.9,2.7c0.2,0,0.3,0,0.5,0c0,0,0.1,0.1,0.1,0.1
		c-0.1,0.2-0.2,0.5-0.2,0.7c-0.1,1.3,1.8,2.4,4.1,2.5c0.1,0,0.1,0,0.2,0c0.2,0.1,0.3,0.2,0.5,0.4c-0.1,0.2-0.2,0.5-0.2,0.7
		c0,1.3,1.9,2.3,4.2,2.3c0,0,0.1,0,0.1,0c0.3,0.2,0.6,0.4,0.8,0.6c-0.1,0.2-0.2,0.5-0.2,0.8c0.1,1.3,1.9,2.1,4.1,2.1
		c0.5-2.2,2-6.2,9.3-4.4c0.1,0,0.1,0.1,0,0.1c-6.4,0.2-7.5,1.7-9,4.3c0,0,0,0,0,0c-3.5,6.4-4.7,4.7-6.6,6.8
		c-2.1,2.1-3.2,3.9-5.9,5.2c-2.2-0.9-3.6,1.3-5.3,0.9c-0.2,1.1,1.5,1,2.1,1c0.6,0,0.4,0.4-0.2,1.4c-1.1,1.7-2.3,3.5-0.4,2.1
		c0.7-0.6,2.7-0.3,3.3-0.3c0.9,0.5,1.7-0.2,2.8-2.5c0.8-1.2,4.8-1.7,8.8-5c0,0,0,0,0,0c4.9-6.4,12-10.9,20.1-12.5
		c0.1,0,0.2,0.1,0,0.1c-8.2,2.2-14.6,6.9-18.7,13.6c1.4,0.8,3.3,1,5.1,0.8c-8,16.9,2.1,5.4-4.8,18.7c0,0-0.6,1-0.8,1.4
		c-0.8,1.3-1.2,2.7-1.1,3.9c0.1,2.9,3.3,3.2,2.8,6.1c-0.1,3.8-0.5,7.9,0.6,16.3c0,2.4-1.4,4-3.4,7c0,0-1.2,1.1-1.1,2.6h-1.2
		C160.2,100.4,160,100.4,159.8,100.4z M171.9,30.5l-0.4,1.8c0,0-0.1,0-0.1,0c-1.3-1.1-2.8-1-3.2-1c-0.1,0-0.1,0,0-0.1
		C169.6,30.3,171.4,30.3,171.9,30.5C171.9,30.4,171.9,30.5,171.9,30.5z M162.1,40c-1.2,1.3-3.8,2.7-4.7,3.1c-0.2,0.1-0.2,0-0.1-0.1
		c1.9-2.2,3.4-3.3,3.4-3.3C161.5,39,162.6,39.3,162.1,40z M152,46l-0.7,0.6c0,0-0.1,0-0.1,0c-0.2-0.2-0.4-0.3-0.7-0.4
		c-0.3-0.1-0.5-0.1-0.8-0.1c0,0,0,0,0-0.1c0.5-0.4,1.2-0.5,1.9-0.3C151.7,45.8,151.9,45.9,152,46C152,46,152,46,152,46z M184.2,81.1
		c-0.1-0.4-0.1-0.7,0.1,0c0.6,2.5,2.6,8.9,6.3,14.8c-0.4,0.4-0.8,0.8-1.1,1.1c-0.2,0.2-0.5,0.4-0.9,0.6c0,0-0.1,0-0.1-0.1
		C188.2,96.6,185.5,89.6,184.2,81.1z M186.6,98.3c-0.7,0.2-1.5,0.3-2.2,0.3c-0.5-3.1-1.1-8.3-1.5-14.6c0-0.2,0-0.4,0.1,0
		C183.4,86,184.7,92.7,186.6,98.3z M188.2,84.5c-2.7-33-8.6-36.3-5.4-42.5c0.1-0.1,0.2-0.1,0.2,0C183.2,51,186.8,48.9,188.2,84.5
		C188.3,84.7,188.2,84.6,188.2,84.5z M183.9,73.8c0,0.4-0.1,0.5-0.1,0.1c-1-21.6-11.5-31.9-1.9-41.2c0.3-0.2,0.3-0.2,0.1,0.1
		C175.1,41,185,51.7,183.9,73.8z M174.1,41.1c0,0.2-0.2,0.1-0.2,0.1l-1.1-0.2c0,0-0.1,0-0.1-0.1c2.1-4.7,5.9-8.2,10.5-10.2
		c0.2-0.1,0.3-0.1,0.1,0.1C179,33,175.8,36.6,174.1,41.1z M172.3,69.9c-0.5,0.9-1,1.8-1.4,2.6c0-0.1,0-0.2,0-0.2
		c-0.7-10.9,0.5-21.5,1.2-26.4c0.2-1.8,0.3-1.9,0.2-0.1C171.8,50.2,171.4,59.3,172.3,69.9z M171,45.9c-0.7,4.9-2.2,17.4-1.6,28.7
		c-0.5,0.7-1,1.2-1.6,1.6c0-13.3,2.1-25.3,3-30.2C171.2,44.6,171.2,44.5,171,45.9z M168.3,96.1C168.3,96.1,168.3,96,168.3,96.1
		c1.6,0.1,3.8,0.7,5.6,2.1c1,0.8,1.9,1.5,3,2.2c0.3,1.9,0.6,3.3-0.1,4.4c-0.9-1.6-6.7-4.1-9.5-4.3c-0.2,0-0.1-0.2-0.1-0.2
		L168.3,96.1z M175,63.8c-0.4,1-0.7,1.9-1.1,2.9c-0.1-0.5-0.2-1.3-0.2-1.4c-0.9-7.7-0.6-15.5-0.4-19.7c0.1-2,0.2-2,0.2-0.1
		C173.5,49.3,173.8,56.5,175,63.8z M174.9,44.7c0.3,2.8,1,7.2,2.3,11.9c-0.2,0.8-0.4,1.8-0.7,2.7c-1.2-5.2-1.6-11-1.8-14.5
		C174.6,42.9,174.7,42.8,174.9,44.7z M176.7,96c-0.7-0.5-1.4-1-2.1-1.5c1.4-8.2,2.4-15.6,2.9-18.8c0.2-1.1,0.2-0.6,0.2,0
		C177.5,83,177.1,90.2,176.7,96z M183.2,30.4c-5.5,1.9-9.9,5.4-12.8,10c-0.1,0.1-0.2,0.1-0.2,0.1l-1.2-0.2c0,0-0.1,0,0-0.1
		C172.4,35.4,177.4,32,183.2,30.4C183.3,30.3,183.4,30.3,183.2,30.4z M164,104.4c-0.8-0.7-1.6-1.4-2.4-2.2
		c5.6-0.4,13.2,1.3,16.9,6.8C173.6,105.9,170.7,104.4,164,104.4z M180.6,98c-0.7-0.3-1.4-0.6-2.1-1c0.2-1.2,0.4-1.7,0.5-2.8
		c1.3-9.8,1.2-22.8,1.2-28.5c0-1.5,0.1-0.8,0.2,0c1.2,16.1,0.5,28.3,0.3,31.1C180.6,96.8,180.6,97.7,180.6,98z M207.1,51.6v2.7
		c0,18-4.1,32.4-12.3,42.8c-3.6,4.6-7.5,7.8-11,10.2c-0.2-0.1-0.4-0.2-0.7-0.4c-1.6-1-2.2-3.4-2.3-4.8c1.1,0.2,2.2,0.2,3.5,0
		c4.8-0.8,8.4-2.6,10.5-6.3l-0.1,0c0,0,0-0.1,0-0.1c-2.4-2.3-3.6-4.8-3.9-5.6c-0.1-0.2,0-0.1,0.1,0c0.9,1.4,2.1,2.2,3.2,2.7
		c-2.2-10.5-4.4-29.7-7.5-41.9c-0.4-1.8-2.2-6.2-1.4-8.9c0.1-0.2,0.2-0.2,0.1,0c-0.2,1.8,0.2,2.9,1,3.7c0.3,0.2,0.8,0.5,1.3,0.7
		c0.8,0.2,1.6,0.3,2.5,0.1c1.3,2.4,5.6,2.7,6.2-1.7c0,0,1.9-1.9,3.5-2.3l0.5-1h0.9v0.9h1.8v-1h-0.3v-4.3l0.7-0.9l-4-3.1h-6.8
		c-0.1-0.1-0.2-0.3-0.4-0.4c1.7-0.2,3-1,3.1-2.1c0-0.3-0.1-0.7-0.3-1c0.2-0.1,0.4-0.2,0.6-0.4c0.1,0,0.3,0,0.5,0
		c2.1,0,3.8-0.8,4.2-1.9c-0.2,0-0.4,0-0.5,0c-0.1,0-0.1,0-0.2,0c-0.1,0-0.2,0-0.3,0c-0.1,0-0.2,0-0.2,0c-0.1,0-0.2,0-0.3-0.1
		c-0.1,0-0.2,0-0.3-0.1c-0.1,0-0.2,0-0.3-0.1c-0.1,0-0.2,0-0.3-0.1c-0.1,0-0.2-0.1-0.3-0.1c-0.1,0-0.2-0.1-0.3-0.1
		c-0.1,0-0.2-0.1-0.3-0.1c-0.1,0-0.2-0.1-0.3-0.1c-0.1,0-0.2-0.1-0.3-0.1c-0.1,0-0.2-0.1-0.3-0.1c-0.1,0-0.2-0.1-0.3-0.1
		c-0.1,0-0.2-0.1-0.3-0.1c-0.1,0-0.2-0.1-0.3-0.1c-0.1,0-0.2-0.1-0.3-0.1c-0.1-0.1-0.2-0.1-0.3-0.2c-0.1-0.1-0.2-0.1-0.3-0.2
		c-0.1-0.1-0.2-0.1-0.3-0.2c-0.1-0.1-0.2-0.1-0.3-0.2c-0.1-0.1-0.2-0.1-0.3-0.2c-0.1-0.1-0.2-0.1-0.3-0.2c-0.1-0.1-0.2-0.1-0.3-0.2
		c-0.1-0.1-0.2-0.1-0.2-0.2c-0.1-0.1-0.2-0.1-0.3-0.2c-0.1-0.1-0.2-0.1-0.2-0.2c-0.1-0.1-0.2-0.1-0.3-0.2c-0.1-0.1-0.1-0.1-0.2-0.2
		c-0.1-0.1-0.1-0.1-0.2-0.2c0,0,0,0-0.1-0.1c0,0,0,0,0,0c-0.2-0.2-0.3-0.3-0.2-0.2c0,0,0.1,0.1,0.2,0.1c0.1,0.1,0.2,0.1,0.3,0.2
		c0.1,0.1,0.2,0.1,0.3,0.2c0.1,0.1,0.2,0.1,0.3,0.2c0.1,0.1,0.2,0.1,0.3,0.2c0.1,0,0.2,0.1,0.3,0.1c0.1,0.1,0.2,0.1,0.3,0.2
		c0.1,0,0.2,0.1,0.3,0.1c0.1,0,0.2,0.1,0.3,0.1c0.1,0,0.2,0.1,0.3,0.1c0.1,0,0.2,0.1,0.3,0.1c0.1,0,0.2,0.1,0.3,0.1
		c0.1,0,0.2,0.1,0.3,0.1c0.1,0,0.2,0.1,0.3,0.1c0.1,0,0.2,0.1,0.3,0.1c0.1,0,0.2,0.1,0.3,0.1c0.1,0,0.2,0.1,0.3,0.1
		c0.1,0,0.2,0,0.3,0.1c0.1,0,0.2,0.1,0.3,0.1c0.1,0,0.2,0,0.3,0.1c0.1,0,0.2,0,0.3,0.1c0.1,0,0.2,0,0.3,0.1c0.1,0,0.2,0,0.3,0
		c0.1,0,0.2,0,0.3,0c0.1,0,0.2,0,0.3,0c0.1,0,0.2,0,0.3,0c0.1,0,0.1,0,0.2,0c0.1,0,0.2,0,0.3,0c0.1,0,0.1,0,0.2,0c0.1,0,0.2,0,0.4,0
		c0,0,0.1,0,0.1,0c0.2,0,0.3,0,0.5,0c0,0,0,0,0,0c2.2-0.1,3.9-1.2,3.9-2.4c-0.2,0-0.3,0-0.5,0c-0.1,0-0.3,0-0.4,0c0,0-0.1,0-0.1,0
		c-0.1,0-0.3,0-0.4,0c0,0-0.1,0-0.1,0c-0.1,0-0.3,0-0.4-0.1c-0.1,0-0.1,0-0.2,0c-0.1,0-0.3,0-0.4-0.1c-0.1,0-0.1,0-0.2,0
		c-0.1,0-0.3-0.1-0.4-0.1c-0.1,0-0.1,0-0.2,0c-0.1,0-0.2-0.1-0.4-0.1c-0.1,0-0.1,0-0.2-0.1c-0.1,0-0.2-0.1-0.4-0.1
		c-0.1,0-0.1,0-0.2-0.1c-0.1,0-0.2-0.1-0.4-0.1c-0.1,0-0.1,0-0.2-0.1c-0.1,0-0.2-0.1-0.3-0.1c-0.1,0-0.2-0.1-0.2-0.1
		c-0.1,0-0.2-0.1-0.3-0.1c-0.1,0-0.1-0.1-0.2-0.1c-0.1-0.1-0.2-0.1-0.3-0.2c-0.1,0-0.1-0.1-0.2-0.1c-0.1-0.1-0.2-0.1-0.3-0.2
		c-0.1,0-0.1-0.1-0.2-0.1c-0.1-0.1-0.2-0.1-0.3-0.2c-0.1,0-0.1-0.1-0.2-0.1c-0.1-0.1-0.2-0.1-0.3-0.2c-0.1-0.1-0.1-0.1-0.2-0.2
		c-0.1-0.1-0.2-0.1-0.2-0.2c-0.1-0.1-0.1-0.1-0.2-0.2c0,0,0,0,0,0c0,0,0,0,0,0c-0.1-0.1-0.1-0.1,0-0.1c0.1,0.1,0.2,0.1,0.3,0.2
		c0.1,0,0.1,0.1,0.2,0.1c0.1,0,0.2,0.1,0.2,0.1c0.1,0,0.1,0.1,0.2,0.1c0.1,0,0.2,0.1,0.2,0.1c0.1,0,0.1,0.1,0.2,0.1
		c0.1,0,0.2,0.1,0.2,0.1c0.1,0,0.1,0.1,0.2,0.1c0.1,0,0.2,0.1,0.2,0.1c0.1,0,0.1,0.1,0.2,0.1c0.1,0,0.2,0.1,0.2,0.1
		c0.1,0,0.1,0.1,0.2,0.1c0.1,0,0.2,0.1,0.2,0.1c0.1,0,0.1,0,0.2,0.1c0.1,0,0.2,0.1,0.2,0.1c0.1,0,0.1,0,0.2,0.1c0.1,0,0.2,0,0.2,0.1
		c0.1,0,0.1,0,0.2,0c0.1,0,0.2,0,0.2,0.1c0.1,0,0.1,0,0.2,0c0.1,0,0.2,0,0.2,0.1c0.1,0,0.1,0,0.2,0c0.1,0,0.2,0,0.2,0
		c0.1,0,0.1,0,0.1,0c0.1,0,0.1,0,0.2,0c0.1,0,0.1,0,0.1,0c0.1,0,0.1,0,0.2,0c0,0,0.1,0,0.1,0c0.1,0,0.1,0,0.2,0c0,0,0.1,0,0.1,0
		c0.1,0,0.1,0,0.2,0c0,0,0.1,0,0.1,0c0.1,0,0.1,0,0.2,0c0,0,0.1,0,0.1,0c0.1,0,0.1,0,0.2,0c0,0,0.1,0,0.1,0c0.1,0,0.1,0,0.2,0
		c0,0,0.1,0,0.1,0c0.1,0,0.1,0,0.2,0c0,0,0.1,0,0.1,0c0.1,0,0.1,0,0.2,0c0,0,0.1,0,0.1,0c0.1,0,0.1,0,0.2,0c0,0,0.1,0,0.1,0
		c0,0,0.1,0,0.1,0c0,0,0.1,0,0.1,0c0,0,0.1,0,0.1,0c0,0,0.1,0,0.1,0c0,0,0.1,0,0.1,0c0,0,0.1,0,0.1,0c0,0,0.1,0,0.1,0
		c0,0,0.1,0,0.1,0c0,0,0.1,0,0.1,0c0,0,0.1,0,0.1,0c0,0,0,0,0.1,0c0.1,0,0.1,0,0.2,0c0,0,0,0,0,0c0.3-0.1,0.6-0.1,0.8-0.2
		c0,0,0,0,0.1,0V51.6z M195.5,41.2V41c0-0.6-0.4-0.7-0.6-0.4c0.1,0.1,0.1,0.2,0.1,0.4v2c0,0.5-1,0.6-1-0.1l0.1-1.7H194V41
		c0-0.6-0.4-0.7-0.6-0.4c0.1,0.1,0.1,0.2,0.1,0.4v2c0,0.5-1,0.6-1-0.1l0.1-1.7l-0.8,0c0,0,0,0.1,0,0.1v1.5c0,0.4-0.8,0.5-0.8-0.1
		l0.1-1.4c0,0,0-0.1,0-0.1l-1.7,0v0.9h-1.8v-1h0.3h0V37h10.6v4.2h0.4v1h-1.8v-0.9L195.5,41.2z M188.9,35.6l-1.2-0.9h10.1l1.2,0.9
		H188.9z M207.1,18.9v0.6c-1.7-0.2-3.4-0.6-4.7-1.5c-0.1-0.1,0-0.1,0.1-0.1C203.9,18.5,205.5,18.9,207.1,18.9L207.1,18.9z
		 M210.6,8.3c-2.8,1.7-5.6,3.2-8.2,4.2c-8.1,3.3-14.6,7.2-16.9,15.1c2.9,0.7,3.6,2.8,6.2,5.6h-6.2c0,0-0.1,0-0.1,0.1
		c0.7,2.6-2.1,4.6-4.3,4.2c-0.1,0-0.1-0.1-0.1-0.1c0.4-2.6,3.2-5.7,4.2-6.8c-0.4-0.1-0.7-0.5-0.7-0.9c0-0.5,0.4-0.9,0.8-1
		c-0.7-0.6-2.3-0.7-3.4-0.7c-0.2,0-0.2-0.1,0-0.1c0.4-0.1,0.8-0.2,1.2-0.2c3.7-8.7,10.1-11.5,18.2-15c2.9-1.3,6.1-2.7,9.3-4.4
		C211,7.9,211,8,210.6,8.3z"/>
</g>
</svg>
