<?xml version="1.0" encoding="utf-8"?>
<!-- Generator: Adobe Illustrator 18.0.0, SVG Export Plug-In . SVG Version: 6.00 Build 0)  -->
<!DOCTYPE svg PUBLIC "-//W3C//DTD SVG 1.1//EN" "http://www.w3.org/Graphics/SVG/1.1/DTD/svg11.dtd">
<svg version="1.1" id="Layer_1" xmlns="http://www.w3.org/2000/svg" xmlns:xlink="http://www.w3.org/1999/xlink" x="0px" y="0px"
	 viewBox="0 0 659 72.5" enable-background="new 0 0 659 72.5" xml:space="preserve">
<line fill="none" stroke="#EFEFEF" stroke-width="2" stroke-linecap="round" stroke-miterlimit="10" x1="1" y1="71.5" x2="658" y2="71.5"/>
<line fill="none" stroke="#EFEFEF" stroke-width="2" stroke-linecap="round" stroke-miterlimit="10" x1="1" y1="1" x2="658" y2="1"/>
<g>
	<path fill="#FDE48F" d="M426.1,29.3H413c-0.8,0-1.5-0.7-1.5-1.5V14.9c0-0.8,0.7-1.5,1.5-1.5h13.1c0.8,0,1.5,0.7,1.5,1.5v12.9
		C427.5,28.7,426.9,29.3,426.1,29.3z"/>
	<g>
		<path fill="#FF9EDE" d="M145.4,53.3H46.2c-3.2,0-5.9-2.6-5.9-5.9V22.7c0-3.2,2.6-5.9,5.9-5.9h99.2c3.2,0,5.9,2.6,5.9,5.9v24.7
			C151.3,50.7,148.6,53.3,145.4,53.3z"/>
		<text transform="matrix(1 0 0 1 164.3007 43.1157)" font-family="'Raleway-Light'" font-size="23.974">Past Bloom Period</text>
		<text transform="matrix(1 0 0 1 439.3007 43.1157)" font-family="'Raleway-Light'" font-size="23.974">Bloom in process</text>
		<line fill="none" stroke="#F9E48F" stroke-width="3" stroke-miterlimit="10" x1="419.5" y1="25.9" x2="419.5" y2="56.3"/>
	</g>
	<circle fill="#F9E48F" cx="419.5" cy="55.7" r="5"/>
</g>
</svg>
