<?xml version="1.0" encoding="utf-8"?>
<!-- Generator: Adobe Illustrator 18.0.0, SVG Export Plug-In . SVG Version: 6.00 Build 0)  -->
<!DOCTYPE svg PUBLIC "-//W3C//DTD SVG 1.1//EN" "http://www.w3.org/Graphics/SVG/1.1/DTD/svg11.dtd">
<svg version="1.1" id="Layer_1" xmlns="http://www.w3.org/2000/svg" xmlns:xlink="http://www.w3.org/1999/xlink" x="0px" y="0px"
	 viewBox="46.1 13.6 420.5 700.3" enable-background="new 46.1 13.6 420.5 700.3" xml:space="preserve">
<path fill="#2B2E30" d="M461.6,377.5L322.9,514.2L125.2,709.1c-6.5,6.4-18.5,6.3-24.9-0.2l-49.4-49.2c-6.4-6.5-6.3-18.5,0.2-24.9
	l261.1-257.5c6.5-6.4,6.7-18.3,0.2-24.9L197.6,236.6c-0.5-0.5-1-1.1-1.4-1.6L53.9,92.1c-6.5-6.5-6.5-18.4,0-24.9l49.8-48.7
	c6.5-6.5,18.4-6.5,24.9,0L347.4,238l114.7,115c0.6,0.6,1.1,1.2,1.6,1.9c0.1,0.1,0.1,0.2,0.2,0.3C468.1,362,467.3,371.9,461.6,377.5z
	"/>
</svg>
