<?xml version="1.0" encoding="utf-8"?>
<!-- Generator: Adobe Illustrator 18.0.0, SVG Export Plug-In . SVG Version: 6.00 Build 0)  -->
<!DOCTYPE svg PUBLIC "-//W3C//DTD SVG 1.1//EN" "http://www.w3.org/Graphics/SVG/1.1/DTD/svg11.dtd">
<svg version="1.1" id="Layer_1" xmlns="http://www.w3.org/2000/svg" xmlns:xlink="http://www.w3.org/1999/xlink" x="0px" y="0px"
	 viewBox="-15 -14 604 603.9" enable-background="new -15 -14 604 603.9" xml:space="preserve">
<path fill="none" stroke="#BCBCBC" stroke-width="28" stroke-miterlimit="10" d="M575,86.5c0,134.3,0,268.7,0,403
	c-0.4,1.5-0.9,2.8-1.2,4.3c-9,40.8-33.4,67.2-73.3,79.2c-4,1.2-8,2.1-12,2.9c-37.1,0-74.3,0-111.3,0c-0.1-1.5-0.4-3-0.4-4.5
	c0-69.2,0-138.3,0-207.5c0-1.7,0-3.3,0-5.6c2.3,0,4.1,0,5.9,0c28.2,0,56.4-0.1,84.6,0.1c4,0,5.6-0.9,5.5-5.3
	c-0.2-28.5-0.1-57-0.1-85.6c0-1.7-0.1-3.2-0.3-5.6c-32,0-63.7,0-95.2,0c0-14.8-0.7-29.2,0.2-43.3c0.8-13.6,9.4-20.5,22.8-20.5
	c22.1,0,44.1,0,66.3,0c2,0,3.9-0.2,5.9-0.3c0-32.1,0-63.7,0-95.6c-1.7-0.1-3-0.2-4.4-0.2c-23.7,0-47.5,0-71.3,0
	c-20.7,0-39.4,6-56.4,18c-29.1,20.6-45.9,49.1-51.2,83.9c-2.5,17.3-1.5,35.1-2.1,52.7c-0.1,1.8,0,3.5,0,5.7c-23.8,0-47,0-70.1,0
	c-0.2,1.5-0.4,2.5-0.4,3.6c0,29.3,0.1,58.6-0.1,87.9c0,4,1.7,4.4,5,4.4c20-0.1,39.8-0.1,59.8-0.1c1.9,0,3.6,0,5.9,0
	c0,72.8,0,145.2,0,217.5c-67.2,0-134.3,0-201.5,0c-1.3-0.4-2.5-0.8-3.9-1.1c-40.9-8.8-67.6-33.3-79.6-73.4c-1.2-4-2.1-7.9-2.9-12
	C-1,355.2-1,220.8-1,86.5c0.6-2.1,1.1-4,1.7-6.2c9.1-39.3,33.1-64.9,71.6-77c4.3-1.4,8.8-2.2,13.3-3.3c134.3,0,268.7,0,403,0
	c1.1,0.4,2.3,0.8,3.4,1c41.4,8.8,68,33.4,80.2,74C573.2,78.8,574.1,82.6,575,86.5z"/>
</svg>
