<?xml version="1.0" encoding="utf-8"?>
<!-- Generator: Adobe Illustrator 18.0.0, SVG Export Plug-In . SVG Version: 6.00 Build 0)  -->
<!DOCTYPE svg PUBLIC "-//W3C//DTD SVG 1.1//EN" "http://www.w3.org/Graphics/SVG/1.1/DTD/svg11.dtd">
<svg version="1.1" id="Layer_1" xmlns="http://www.w3.org/2000/svg" xmlns:xlink="http://www.w3.org/1999/xlink" x="0px" y="0px"
	 viewBox="0 0 599.8 261.2" enable-background="new 0 0 599.8 261.2" xml:space="preserve">
<rect x="0" y="0.2" opacity="0.75" fill="#FFFFFF" width="599.8" height="261"/>
<rect x="0.4" y="0" fill="#2C2F30" width="599.1" height="43.4"/>
<rect x="10.2" y="10.8" fill="none" stroke="#FFFFFF" stroke-width="1.3869" stroke-linejoin="round" stroke-miterlimit="10" width="87.2" height="21.8"/>
<rect x="32" y="10.8" fill="none" stroke="#FFFFFF" stroke-width="1.3869" stroke-linejoin="round" stroke-miterlimit="10" width="65.4" height="21.8"/>
<text transform="matrix(0.999 0 0 1 37.6943 26.5453)" fill="#FFFFFF" font-family="'Arial-BoldMT'" font-size="14.5545">2013-16</text>
<polygon fill="#FFFFFF" stroke="#FFFFFF" stroke-width="1.2122" stroke-linejoin="round" stroke-miterlimit="10" points="21.3,25.3 
	16.4,16.8 26.2,16.8 "/>
<text transform="matrix(0.999 0 0 1 32.0385 75.8773)" fill="#2C2F30" font-family="'Arial-BoldMT'" font-size="14.5545">2016</text>
<text transform="matrix(0.999 0 0 1 32.0385 130.2542)" fill="#2C2F30" font-family="'Arial-BoldMT'" font-size="14.5545">2015</text>
<text transform="matrix(0.999 0 0 1 32.0385 184.6312)" fill="#2C2F30" font-family="'Arial-BoldMT'" font-size="14.5545">2014</text>
<text transform="matrix(0.999 0 0 1 32.0385 239.0101)" fill="#2C2F30" font-family="'Arial-BoldMT'" font-size="14.5545">2013</text>
<text transform="matrix(1.001 0 0 1 103.8222 25.6751)" fill="#FFFFFF" font-family="'Arial-BoldMT'" font-size="13.8685">Jan.</text>
<text transform="matrix(1.001 0 0 1 563.2123 25.6761)" fill="#FFFFFF" font-family="'Arial-BoldMT'" font-size="13.8685">Dec.</text>
<text transform="matrix(1.001 0 0 1 145.3779 25.6761)" fill="#FFFFFF" font-family="'Arial-BoldMT'" font-size="13.8685">Feb.</text>
<text transform="matrix(1.001 0 0 1 185.4467 25.6771)" fill="#FFFFFF" font-family="'Arial-BoldMT'" font-size="13.8685">Mar.</text>
<text transform="matrix(1.001 0 0 1 228.3637 25.6771)" fill="#FFFFFF" font-family="'Arial-BoldMT'" font-size="13.8685">Apr.</text>
<text transform="matrix(1.001 0 0 1 271.8994 25.6751)" fill="#FFFFFF" font-family="'Arial-BoldMT'" font-size="13.8685">May</text>
<text transform="matrix(1.001 0 0 1 312.7383 25.6771)" fill="#FFFFFF" font-family="'Arial-BoldMT'" font-size="13.8685">Jun.</text>
<text transform="matrix(1.001 0 0 1 357.041 25.6761)" fill="#FFFFFF" font-family="'Arial-BoldMT'" font-size="13.8685">Jul.</text>
<text transform="matrix(1.001 0 0 1 395.6479 25.6771)" fill="#FFFFFF" font-family="'Arial-BoldMT'" font-size="13.8685">Aug.</text>
<text transform="matrix(1.001 0 0 1 438.791 25.6761)" fill="#FFFFFF" font-family="'Arial-BoldMT'" font-size="13.8685">Sep.</text>
<text transform="matrix(1.001 0 0 1 478.9341 25.6771)" fill="#FFFFFF" font-family="'Arial-BoldMT'" font-size="13.8685">Oct.</text>
<text transform="matrix(1.001 0 0 1 523.2377 25.6761)" fill="#FFFFFF" font-family="'Arial-BoldMT'" font-size="13.8685">Nov.</text>
<ellipse fill="#CD1F40" cx="116.9" cy="69.6" rx="13" ry="13"/>
<path fill="#2C2F30" d="M557.9,40.2h-2.8h-38.8h-2.8h-40.2h-2.8h-38.8h-2.8h-38.8h-2.8h-38.8h-2.8h-38.8h-2.8h-38.8h-2.8h-40.2h-2.8
	h-38.8h-2.8H139h-2.8H94.4v55v2.8v52.7v2.8v51.3v2.8v53.6h41.9h2.8h38.8h2.8h38.8h2.8h40.2h2.8h38.8h2.8h38.8h2.8h38.8h2.8h38.8h2.8
	h38.8h2.8h40.2h2.8h38.8h2.8h41.5v-53.6v-2.8v-51.3v-2.8V98.1v-2.8v-55H557.9z M516.4,44.2h39v50h-39V44.2z M555.4,150.2h-39v-52h39
	V150.2z M555.4,204.2h-39v-51h39V204.2z M139.4,153.2h38v51h-38V153.2z M139.4,98.2h38v52h-38V98.2z M514.4,150.2h-41v-52h41V150.2z
	 M470.4,150.2h-38v-52h38V150.2z M429.4,150.2h-40v-52h40V150.2z M387.4,150.2h-39v-52h39V150.2z M345.4,150.2h-38v-52h38V150.2z
	 M303.4,150.2h-38v-52h38V150.2z M262.4,150.2h-40v-52h40V150.2z M220.4,150.2h-40v-52h40V150.2z M180.4,153.2h40v51h-40V153.2z
	 M222.4,153.2h40v51h-40V153.2z M265.4,153.2h38v51h-38V153.2z M307.4,153.2h38v51h-38V153.2z M348.4,153.2h39v51h-39V153.2z
	 M389.4,153.2h40v51h-40V153.2z M432.4,153.2h38v51h-38V153.2z M473.4,153.2h41v51h-41V153.2z M473.4,44.2h41v50h-41V44.2z
	 M432.4,44.2h38v50h-38V44.2z M389.4,44.2h40v50h-40V44.2z M348.4,44.2h39v50h-39V44.2z M307.4,44.2h38v50h-38V44.2z M265.4,44.2h38
	v50h-38V44.2z M222.4,44.2h40v50h-40V44.2z M180.4,44.2h40v50h-40V44.2z M139.4,44.2h38v50h-38V44.2z M97.4,44.2h39v50h-39V44.2z
	 M97.4,98.2h39v52h-39V98.2z M97.4,153.2h39v51h-39V153.2z M136.4,258.2h-39v-51h39V258.2z M177.4,258.2h-38v-51h38V258.2z
	 M220.4,258.2h-40v-51h40V258.2z M262.4,258.2h-40v-51h40V258.2z M303.4,258.2h-38v-51h38V258.2z M345.4,258.2h-38v-51h38V258.2z
	 M387.4,258.2h-39v-51h39V258.2z M429.4,258.2h-40v-51h40V258.2z M470.4,258.2h-38v-51h38V258.2z M514.4,258.2h-41v-51h41V258.2z
	 M555.4,258.2h-39v-51h39V258.2z M596.4,258.2h-39v-51h39V258.2z M596.4,204.2h-39v-51h39V204.2z M596.4,150.2h-39v-52h39V150.2z
	 M557.4,94.2v-50h39v50H557.4z"/>
<ellipse fill="#CD1F40" cx="200.1" cy="69.6" rx="13" ry="13"/>
<polygon fill="#CD1F40" points="239.6,58.2 220.6,69.7 239.6,81.2 348.4,81.2 348.4,58.2 "/>
<line fill="none" stroke="#CD1F40" stroke-width="5.5474" stroke-miterlimit="10" x1="200.1" y1="69.6" x2="117" y2="69.6"/>
<line fill="none" stroke="#CD1F40" stroke-width="5.5474" stroke-miterlimit="10" x1="284.7" y1="124.4" x2="158.5" y2="124.4"/>
<line fill="none" stroke="#CD1F40" stroke-width="5.5474" stroke-miterlimit="10" x1="242.4" y1="179.2" x2="117.1" y2="179.2"/>
<ellipse fill="#CD1F40" cx="158.5" cy="124.4" rx="13" ry="13"/>
<ellipse fill="#CD1F40" cx="284.7" cy="124.4" rx="13" ry="13"/>
<ellipse fill="#CD1F40" cx="117.1" cy="179.2" rx="13" ry="13"/>
<ellipse fill="#CD1F40" cx="242.4" cy="179.2" rx="13" ry="13"/>
<ellipse fill="#CD1F40" cx="158.5" cy="233.3" rx="13" ry="13"/>
<ellipse fill="#CD1F40" cx="242.4" cy="233.3" rx="13" ry="13"/>
<line fill="none" stroke="#CD1F40" stroke-width="5.5474" stroke-miterlimit="10" x1="242.4" y1="233.3" x2="159.6" y2="233.3"/>
<ellipse fill="#FFFFFF" cx="116.9" cy="69.6" rx="7.8" ry="7.8"/>
<ellipse fill="#FFFFFF" cx="200.1" cy="69.6" rx="7.8" ry="7.8"/>
<text transform="matrix(0.999 0 0 1 242.3691 74.0902)" fill="#FFFFFF" font-family="'Arial-BoldMT'" font-size="13.8685">Jan 13- Mar. 15 </text>
</svg>
