<?xml version="1.0" encoding="utf-8"?>
<!-- Generator: Adobe Illustrator 18.0.0, SVG Export Plug-In . SVG Version: 6.00 Build 0)  -->
<!DOCTYPE svg PUBLIC "-//W3C//DTD SVG 1.1//EN" "http://www.w3.org/Graphics/SVG/1.1/DTD/svg11.dtd">
<svg version="1.1" id="Layer_1" xmlns="http://www.w3.org/2000/svg" xmlns:xlink="http://www.w3.org/1999/xlink" x="0px" y="0px"
	 viewBox="0 0 576 576" enable-background="new 0 0 576 576" xml:space="preserve">
<path fill="#BCBCBC" d="M-2,404c0-77.3,0-154.7,0-232c0.9-6.6,2.3-13.2,2.7-19.9C5.1,77.3,52.6,20.7,125.2,5
	c15.4-3.3,31.2-4.7,46.8-7c77.3,0,154.7,0,232,0c6.6,0.9,13.2,2.3,19.8,2.7C497.7,5.1,552.7,50.5,570,122.6
	c4.1,17.1,5.4,34.9,8,52.3c0,74.4,0,148.9,0,223.3c-1,8.5-2.4,17-2.9,25.6c-4.2,73.6-49.8,129-121.5,146
	c-18.1,4.3-36.9,5.5-55.4,8.2c-74.4,0-148.9,0-223.3,0c-7.6-1-15.1-2.4-22.7-2.9C77,570.8,19.7,522.3,4.7,449.5
	C1.6,434.5,0.2,419.2-2,404z M286.3,523.2c0,0,0-0.1,0-0.1c43,0,86,1,129-0.3c31.8-1,60.7-11,82.2-36.5
	c17.7-20.9,25.1-45.9,25.3-72.4c0.8-83.1,1.6-166.2,0-249.3C521.5,95,481.5,55.2,412,53c-71-2.2-142-2.2-213.1-2.2
	c-21.6,0-43.7,1.7-64.8,6.1c-48.9,10.2-79.8,48.2-80.8,102.9c-1.6,84.5-1.9,169.1-0.1,253.6c1.4,67.6,42.2,107.1,109.9,109.5
	C204.1,524.3,245.2,523.2,286.3,523.2z"/>
<path fill="#BCBCBC" d="M139.2,287.2c0.5-83.1,66.8-148.7,149.8-148c83.1,0.6,148.5,67.2,147.7,150.1
	c-0.8,82.5-66.6,147.5-149,147.3C204.5,436.4,138.7,370.1,139.2,287.2z M287.4,384.1c54,0.2,96.6-42.2,96.6-96
	c0-53.3-41.9-95.9-94.9-96.2c-54.2-0.4-97.1,41.6-97.3,95.3C191.5,341.2,233.7,383.9,287.4,384.1z"/>
<path fill="#BCBCBC" d="M477.3,132.6c0.2,19.4-15,35.3-34.1,35.6c-18.7,0.3-35.3-15.7-35.7-34.5c-0.4-18.9,15.2-34.8,34.6-35.1
	C462.1,98.4,477,112.9,477.3,132.6z"/>
</svg>
