<?xml version="1.0" encoding="utf-8"?>
<!-- Generator: Adobe Illustrator 18.0.0, SVG Export Plug-In . SVG Version: 6.00 Build 0)  -->
<!DOCTYPE svg PUBLIC "-//W3C//DTD SVG 1.1//EN" "http://www.w3.org/Graphics/SVG/1.1/DTD/svg11.dtd">
<svg version="1.1" id="Layer_1" xmlns="http://www.w3.org/2000/svg" xmlns:xlink="http://www.w3.org/1999/xlink" x="0px" y="0px"
	 viewBox="0 0 177.1 177.7" enable-background="new 0 0 177.1 177.7" xml:space="preserve">
<path d="M51.1,63.4c-11.8,26.7-8.8,46.8,8.7,61.1c15.7,12.8,37.8,13.7,54.3,2.2c6.5-4.6,11.7-10.3,15.1-17.6
	c3.4-7.4,5.4-15.3,4-23.3c-1.4-7.5-4.1-14.8-6.3-22.4c15.3,0,31.2,0,47.2,0c3,0,3,1.9,3,4c0,9.7,0,19.3,0,29c0,15.2,0,30.3,0,45.5
	c-0.1,20.8-14.6,35.6-35.5,35.7c-35.5,0.1-70.9,0.1-106.4,0c-19.7-0.1-34.7-14.7-34.9-34.2c-0.3-25.1-0.1-50.3-0.1-75.4
	c0-2.6,0.1-4.5,3.6-4.5C19.3,63.5,34.9,63.4,51.1,63.4z"/>
<path d="M0.1,58.2c0.5-18.8-4-38,14.9-51.6c0,9.1,0,17.5,0,25.9c0,2.5-0.3,5.1,0.1,7.5c0.3,1.5,1.5,3.7,2.7,4
	c2.6,0.7,4.2-0.7,4.2-3.9c-0.1-11.3,0-22.7-0.1-34c0-3.5,1.4-4.8,5.2-4.4c0,12.6,0.1,25.3-0.1,37.9c0,3.3,0.8,5.6,4.4,4.3
	c1.3-0.5,2.7-3.1,2.7-4.7c0.2-11.5,0.1-23,0.1-34.5c0-3.1,0.4-5.5,5.1-3.9c0,1.6,0,3.4,0,5.2c0,10.7-0.1,21.3,0,32
	c0,2.4-1.7,6.2,3.3,6.1c4.5,0,3.7-3.3,3.8-6c0-10.8,0.2-21.7-0.1-32.5C46.1,1.2,47.5,0,51.9,0c30,0.2,60,0.1,89.9,0.2
	c19.9,0.1,34.8,14.7,35.2,34.5c0.2,7.6,0,15.2,0,23.2c-2.2,0.1-3.8,0.3-5.4,0.3c-15.3,0-30.7,0.2-46-0.1c-2.7,0-5.9-1.2-8-2.9
	C100.3,41.1,77.1,41,59.6,55c-2.4,1.9-5.9,3.1-8.9,3.1c-15,0.3-30,0.1-45,0.1C4.1,58.2,2.5,58.2,0.1,58.2z M131,29.8
	c0,2.8,0.1,5.7,0,8.5c-0.2,4.6,2,6.9,6.5,6.9c5.7,0,11.3,0.1,17,0c4.3-0.1,6.4-2.4,6.4-6.6c0-5.7,0-11.3,0-17c0-4.5-2.1-6.8-6.7-6.9
	c-5,0-10-0.1-15,0c-7.1,0.1-8.3,1.4-8.3,8.6C131,25.5,131,27.7,131,29.8z"/>
<path d="M123.4,90.3c-0.3,19.7-15.9,34.6-35.9,34.2c-19-0.3-34.2-16.1-33.9-35.3C54,69.9,70,54.5,89.1,54.9
	C108.6,55.3,123.7,70.9,123.4,90.3z M114.3,90.4c0.1-14.7-10.7-26-25.1-26.2c-14.4-0.2-26.1,11-26.1,25.2c0,14.3,11.3,26,25.4,26
	C102.5,115.5,114.2,104.2,114.3,90.4z"/>
</svg>
