<?xml version="1.0" encoding="utf-8"?>
<!-- Generator: Adobe Illustrator 18.0.0, SVG Export Plug-In . SVG Version: 6.00 Build 0)  -->
<!DOCTYPE svg PUBLIC "-//W3C//DTD SVG 1.1//EN" "http://www.w3.org/Graphics/SVG/1.1/DTD/svg11.dtd">
<svg version="1.1" id="Layer_1" xmlns="http://www.w3.org/2000/svg" xmlns:xlink="http://www.w3.org/1999/xlink" x="0px" y="0px"
	 viewBox="-17 -17 608 608" enable-background="new -17 -17 608 608" xml:space="preserve">
<path fill="none" stroke="#BCBCBC" stroke-width="28" stroke-miterlimit="10" d="M-3,403c0-77.3,0-154.7,0-232
	c0.9-6.6,2.3-13.2,2.7-19.9C4.1,76.3,51.6,19.7,124.2,4c15.4-3.3,31.2-4.7,46.8-7c77.3,0,154.7,0,232,0c6.6,0.9,13.2,2.3,19.8,2.7
	C496.7,4.1,551.7,49.5,569,121.6c4.1,17.1,5.4,34.9,8,52.3c0,74.4,0,148.9,0,223.3c-1,8.5-2.4,17-2.9,25.6
	c-4.2,73.6-49.8,129-121.5,146c-18.1,4.3-36.9,5.5-55.4,8.2c-74.4,0-148.9,0-223.3,0c-7.6-1-15.1-2.4-22.7-2.9
	C76,569.8,18.7,521.3,3.7,448.5C0.6,433.5-0.8,418.2-3,403z M285.3,522.2c0,0,0-0.1,0-0.1c43,0,86,1,129-0.3
	c31.8-1,60.7-11,82.2-36.5c17.7-20.9,25.1-45.9,25.3-72.4c0.8-83.1,1.6-166.2,0-249.3C520.5,94,480.5,54.2,411,52
	c-71-2.2-142-2.2-213.1-2.2c-21.6,0-43.7,1.7-64.8,6.1c-48.9,10.2-79.8,48.2-80.8,102.9c-1.6,84.5-1.9,169.1-0.1,253.6
	c1.4,67.6,42.2,107.1,109.9,109.5C203.1,523.3,244.2,522.2,285.3,522.2z"/>
<path fill="none" stroke="#BCBCBC" stroke-width="28" stroke-miterlimit="10" d="M138.2,286.2c0.5-83.1,66.8-148.7,149.8-148
	c83.1,0.6,148.5,67.2,147.7,150.1c-0.8,82.5-66.6,147.5-149,147.3C203.5,435.4,137.7,369.1,138.2,286.2z M286.4,383.1
	c54,0.2,96.6-42.2,96.6-96c0-53.3-41.9-95.9-94.9-96.2c-54.2-0.4-97.1,41.6-97.3,95.3C190.5,340.2,232.7,382.9,286.4,383.1z"/>
<path fill="none" stroke="#BCBCBC" stroke-width="28" stroke-miterlimit="10" d="M476.3,131.6c0.2,19.4-15,35.3-34.1,35.6
	c-18.7,0.3-35.3-15.7-35.7-34.5c-0.4-18.9,15.2-34.8,34.6-35.1C461.1,97.4,476,111.9,476.3,131.6z"/>
</svg>
