<?xml version="1.0" encoding="utf-8"?>
<!-- Generator: Adobe Illustrator 18.0.0, SVG Export Plug-In . SVG Version: 6.00 Build 0)  -->
<!DOCTYPE svg PUBLIC "-//W3C//DTD SVG 1.1//EN" "http://www.w3.org/Graphics/SVG/1.1/DTD/svg11.dtd">
<svg version="1.1" id="Layer_1" xmlns="http://www.w3.org/2000/svg" xmlns:xlink="http://www.w3.org/1999/xlink" x="0px" y="0px"
	 viewBox="-0.1 89 612.1 614" enable-background="new -0.1 89 612.1 614" xml:space="preserve">
<path fill="#AB0C2F" d="M176.6,308.1c-40.8,92.3-30.4,161.7,30.1,211.1c54.3,44.2,130.6,47.3,187.6,7.6
	c22.5-15.9,40.4-35.6,52.2-60.8c11.7-25.6,18.7-52.9,13.8-80.5c-4.8-25.9-14.2-51.1-21.8-77.4c52.9,0,107.8,0,163.1,0
	c10.4,0,10.4,6.6,10.4,13.8c0,33.5,0,66.7,0,100.2c0,52.5,0,104.7,0,157.2c-0.3,71.9-50.5,123-122.7,123.4
	c-122.7,0.3-245,0.3-367.7,0C53.6,702.3,1.7,651.9,1,584.5c-1-86.7-0.3-173.8-0.3-260.6c0-9,0.3-15.6,12.4-15.6
	C66.7,308.4,120.6,308.1,176.6,308.1z"/>
<path fill="#AB0C2F" d="M0.3,290.1c1.7-65-13.8-131.3,51.5-178.3c0,31.4,0,60.5,0,89.5c0,8.6-1,17.6,0.3,25.9
	c1,5.2,5.2,12.8,9.3,13.8c9,2.4,14.5-2.4,14.5-13.5c-0.3-39,0-78.4-0.3-117.5c0-12.1,4.8-16.6,18-15.2c0,43.5,0.3,87.4-0.3,131
	c0,11.4,2.8,19.4,15.2,14.9c4.5-1.7,9.3-10.7,9.3-16.2c0.7-39.7,0.3-79.5,0.3-119.2c0-10.7,1.4-19,17.6-13.5c0,5.5,0,11.7,0,18
	c0,37-0.3,73.6,0,110.6c0,8.3-5.9,21.4,11.4,21.1c15.6,0,12.8-11.4,13.1-20.7c0-37.3,0.7-75-0.3-112.3c-0.7-15.2,4.1-19.4,19.4-19.4
	C283,89.7,386.7,89.3,490,89.7c68.8,0.3,120.3,50.8,121.6,119.2c0.7,26.3,0,52.5,0,80.2c-7.6,0.3-13.1,1-18.7,1
	c-52.9,0-106.1,0.7-159-0.3c-9.3,0-20.4-4.1-27.6-10c-59.8-48.7-140-49.1-200.4-0.7c-8.3,6.6-20.4,10.7-30.8,10.7
	c-51.8,1-103.7,0.3-155.5,0.3C14.2,290.1,8.6,290.1,0.3,290.1z M452.7,191.9c0,9.7,0.3,19.7,0,29.4c-0.7,15.9,6.9,23.8,22.5,23.8
	c19.7,0,39,0.3,58.7,0c14.9-0.3,22.1-8.3,22.1-22.8c0-19.7,0-39,0-58.7c0-15.6-7.3-23.5-23.2-23.8c-17.3,0-34.6-0.3-51.8,0
	c-24.5,0.3-28.7,4.8-28.7,29.7C452.7,177.1,452.7,184.7,452.7,191.9z"/>
<path fill="#AB0C2F" d="M426.4,401c-1,68.1-54.9,119.6-124.1,118.2c-65.7-1-118.2-55.6-117.1-122c1.4-66.7,56.7-119.9,122.7-118.5
	C375.3,280.1,427.5,334,426.4,401z M395,401.4c0.3-50.8-37-89.8-86.7-90.5s-90.2,38-90.2,87.1c0,49.4,39,89.8,87.8,89.8
	C354.2,488.1,394.6,449,395,401.4z"/>
</svg>
