<?xml version="1.0" encoding="utf-8"?>
<!-- Generator: Adobe Illustrator 18.0.0, SVG Export Plug-In . SVG Version: 6.00 Build 0)  -->
<!DOCTYPE svg PUBLIC "-//W3C//DTD SVG 1.1//EN" "http://www.w3.org/Graphics/SVG/1.1/DTD/svg11.dtd">
<svg version="1.1" id="Layer_1" xmlns="http://www.w3.org/2000/svg" xmlns:xlink="http://www.w3.org/1999/xlink" x="0px" y="0px"
	 viewBox="0 0 2247 2248.1" enable-background="new 0 0 2247 2248.1" xml:space="preserve">
<g>
	<rect x="1.2" y="0" fill="#FFFFFF" width="2245.8" height="2245.8"/>
	<polyline opacity="0.4" fill="#2C2F30" points="0,2248.1 0,0 2247,0 2247,2248.1 	"/>
</g>
<g opacity="0.37">
	<path fill="none" stroke="#FFFFFF" stroke-width="51.4449" stroke-miterlimit="10" d="M1543.1,1430.2
		c-134.7,238.9-310.1,409.2-438.4,442.2c-6.4,2.5-12.7,3.8-17.8,3.8c-7.6,1.3-15.2,2.5-22.9,2.5c-3.8,0-8.9,0-14-1.3
		c-16.5-2.5-34.3-8.9-52.1-17.8c-100.4-64.8-82.6-294.8,30.5-551.5c19.1-41.9,40.7-86.4,64.8-129.6C1267.3,868.5,1632,744,1632,744
		S1715.9,1120.1,1543.1,1430.2z"/>
	<path fill="none" stroke="#FFFFFF" stroke-width="51.4449" stroke-miterlimit="10" d="M1015.6,1308.2
		c-113.1,256.7-118.1,486.7-17.7,551.5c-95.3-43.2-225-166.5-317.8-330.4c-134.7-242.7-69.9-536.3-69.9-536.3
		S875.8,1084.6,1015.6,1308.2z"/>
	<path fill="none" stroke="#FFFFFF" stroke-width="63.5379" stroke-miterlimit="10" d="M1196.3,630.3c-25,67.5-69.2,120-117.5,144.2
		c-2.5,1.7-5.8,2.5-8.3,4.2c-3.3,3.3-7.5,5-11.7,6.7c-76.7,30.8-175-34.2-220-145c-45-110.8-20-226.7,55.8-257.5
		c36.7-15,78.3-7.5,116.7,15.8c38.3-27.5,80.8-36.7,119.2-23.3C1208,403.7,1237.2,517.8,1196.3,630.3z"/>
	<path fill="none" stroke="#FFFFFF" stroke-width="63.5379" stroke-linecap="round" stroke-miterlimit="10" d="M1043.4,1866
		c0,0,267.6-198.6,406.5-667.1"/>
	
		<line fill="none" stroke="#FFFFFF" stroke-width="63.5379" stroke-linecap="round" stroke-miterlimit="10" x1="1015.6" y1="1273" x2="1015.6" y2="932.3"/>
	<path fill="none" stroke="#FFFFFF" stroke-width="63.5379" stroke-linecap="round" stroke-miterlimit="10" d="M928.8,1567.3
		c0,0-54.2-34.9-159.4-249.7"/>
</g>
</svg>
