<?xml version="1.0" encoding="utf-8"?>
<!-- Generator: Adobe Illustrator 18.0.0, SVG Export Plug-In . SVG Version: 6.00 Build 0)  -->
<!DOCTYPE svg PUBLIC "-//W3C//DTD SVG 1.1//EN" "http://www.w3.org/Graphics/SVG/1.1/DTD/svg11.dtd">
<svg version="1.1" id="Layer_1" xmlns="http://www.w3.org/2000/svg" xmlns:xlink="http://www.w3.org/1999/xlink" x="0px" y="0px"
	 viewBox="0 0 374.7 374.9" enable-background="new 0 0 374.7 374.9" xml:space="preserve">
<g>
	<g>
		<rect x="0.2" y="0" fill="#FFFFFF" width="374.5" height="374.5"/>
		<polyline opacity="0.4" fill="#2C2F30" points="0,374.9 0,0 374.7,0 374.7,374.9 		"/>
	</g>
	<g opacity="0.37">
		<path fill="none" stroke="#FFFFFF" stroke-width="8.5781" stroke-miterlimit="10" d="M257.3,213.3c-22.5,39.8-51.7,68.2-73.1,73.7
			c-1.1,0.4-2.1,0.6-3,0.6c-1.3,0.2-2.5,0.4-3.8,0.4c-0.6,0-1.5,0-2.3-0.2c-2.8-0.4-5.7-1.5-8.7-3c-16.7-10.8-13.8-49.2,5.1-92
			c3.2-7,6.8-14.4,10.8-21.6c29-51.7,89.8-72.5,89.8-72.5S286.1,161.6,257.3,213.3z"/>
		<path fill="none" stroke="#FFFFFF" stroke-width="8.5781" stroke-miterlimit="10" d="M169.3,192.9c-18.9,42.8-19.7,81.2-2.9,92
			c-15.9-7.2-37.5-27.8-53-55.1c-22.5-40.5-11.7-89.4-11.7-89.4S146,155.6,169.3,192.9z"/>
		<path fill="none" stroke="#FFFFFF" stroke-width="10.5945" stroke-miterlimit="10" d="M199.5,79.9c-4.2,11.3-11.5,20-19.6,24
			c-0.4,0.3-1,0.4-1.4,0.7c-0.6,0.6-1.3,0.8-1.9,1.1c-12.8,5.1-29.2-5.7-36.7-24.2c-7.5-18.5-3.3-37.8,9.3-42.9
			c6.1-2.5,13.1-1.3,19.5,2.6c6.4-4.6,13.5-6.1,19.9-3.9C201.4,42.1,206.3,61.1,199.5,79.9z"/>
		<path fill="none" stroke="#FFFFFF" stroke-width="10.5945" stroke-linecap="round" stroke-miterlimit="10" d="M174,285.9
			c0,0,44.6-33.1,67.8-111.2"/>
		
			<line fill="none" stroke="#FFFFFF" stroke-width="10.5945" stroke-linecap="round" stroke-miterlimit="10" x1="169.3" y1="187.1" x2="169.3" y2="130.3"/>
		<path fill="none" stroke="#FFFFFF" stroke-width="10.5945" stroke-linecap="round" stroke-miterlimit="10" d="M154.9,236.1
			c0,0-9-5.8-26.6-41.6"/>
	</g>
	<g opacity="0.36">
		<path fill="#FFFFFF" d="M138.4,310.6v2.1c0,0.6-0.3,1-0.9,1.1c0,0-0.1,0-0.2,0c-0.1,0-0.3,0.1-0.5,0.1c-0.3,0-0.6,0.1-1,0.2v22.5
			h-2.5c-0.4,0-0.7-0.1-0.9-0.2c-0.3-0.1-0.5-0.3-0.8-0.6l-13.6-17.3c0,0.4,0.1,0.8,0.1,1.1c0,0.4,0,0.7,0,1V333
			c1.5,0.2,2.3,0.3,2.3,0.3c0.6,0.1,0.9,0.5,0.9,1.1v2.1h-3.2h-4.2H111v-2.1c0-0.6,0.3-1,0.9-1.1c0,0,0.1,0,0.2,0
			c0.1,0,0.3-0.1,0.5-0.1c0.3,0,0.6-0.1,1.1-0.2v-18.9c-0.4-0.1-0.8-0.1-1.1-0.2c-0.3,0-0.4-0.1-0.5-0.1c-0.1,0-0.2,0-0.2,0
			c-0.6-0.1-0.9-0.5-0.9-1.1v-2.1h2.7h2.5c0.2,0,0.4,0,0.5,0c0.1,0,0.3,0,0.4,0.1c0.1,0,0.2,0.1,0.3,0.2c0.1,0.1,0.2,0.3,0.4,0.4
			l13.7,17.4c0-0.4-0.1-0.8-0.1-1.2c0-0.4,0-0.8,0-1.2v-12.2c-1.5-0.2-2.3-0.3-2.3-0.3c-0.6-0.1-0.9-0.5-0.9-1.1v-2.1h3.2h4.3H138.4
			z"/>
		<path fill="#FFFFFF" d="M152.4,318.5c1.1,0.4,2.1,1,2.9,1.9s1.4,1.8,1.8,3c0.4,1.2,0.6,2.5,0.6,3.9c0,1.5-0.2,2.8-0.6,4
			s-1,2.2-1.8,3s-1.8,1.5-2.9,1.9c-1.1,0.4-2.4,0.6-3.7,0.6s-2.7-0.2-3.8-0.6c-1.1-0.4-2.1-1.1-2.9-1.9s-1.4-1.8-1.9-3
			c-0.4-1.2-0.6-2.5-0.6-4c0-1.4,0.2-2.7,0.6-3.9c0.4-1.2,1.1-2.2,1.9-3s1.8-1.4,2.9-1.9c1.1-0.4,2.4-0.7,3.8-0.7
			S151.2,318.1,152.4,318.5z M152,331.9c0.7-1,1.1-2.6,1.1-4.5c0-2-0.4-3.5-1.1-4.5s-1.8-1.6-3.4-1.6s-2.7,0.5-3.5,1.6
			c-0.8,1-1.2,2.6-1.2,4.6s0.4,3.5,1.2,4.5c0.8,1,1.9,1.5,3.5,1.5S151.3,332.9,152,331.9z"/>
		<path fill="#FFFFFF" d="M188.2,318.8c0,1.3-0.2,2.4-0.6,3.5c-0.4,1-1,1.9-1.9,2.7c-0.8,0.8-1.9,1.3-3.2,1.8
			c-1.3,0.4-2.7,0.6-4.4,0.6h-3.2v5.6c0.4,0.1,0.8,0.1,1.1,0.2c0.3,0,0.4,0.1,0.5,0.1c0.1,0,0.2,0,0.2,0c0.6,0.1,0.9,0.5,0.9,1.1
			v2.1h-2.7H170h-2.7v-2.1c0-0.6,0.3-1,0.9-1.1c0,0,0.1,0,0.2,0c0.1,0,0.3-0.1,0.5-0.1c0.3,0,0.6-0.1,1.1-0.2v-18.9
			c-0.4-0.1-0.8-0.1-1.1-0.2c-0.3,0-0.4-0.1-0.5-0.1c-0.1,0-0.2,0-0.2,0c-0.6-0.1-0.9-0.5-0.9-1.1v-2.1h2.7h8c1.7,0,3.3,0.2,4.5,0.6
			c1.3,0.4,2.3,1,3.1,1.7c0.8,0.7,1.4,1.6,1.8,2.6S188.2,317.6,188.2,318.8z M183.3,318.8c0-0.7-0.1-1.3-0.3-1.9
			c-0.2-0.6-0.5-1-1-1.4c-0.4-0.4-1-0.7-1.6-0.9s-1.4-0.3-2.3-0.3h-3.2v9.3h3.2c0.9,0,1.7-0.1,2.3-0.3c0.6-0.2,1.2-0.5,1.6-0.9
			c0.4-0.4,0.8-0.9,1-1.5C183.2,320.3,183.3,319.6,183.3,318.8z"/>
		<path fill="#FFFFFF" d="M210.9,334.5v2.1h-2.7h-4.5v-11.7c0-1.1-0.3-2-0.8-2.6c-0.5-0.6-1.3-0.9-2.3-0.9c-0.8,0-1.5,0.2-2.2,0.5
			c-0.7,0.4-1.3,0.8-1.9,1.4v9.8c0.4,0.1,0.8,0.1,1.1,0.2c0.3,0,0.4,0.1,0.5,0.1c0.1,0,0.2,0,0.2,0c0.6,0.1,0.9,0.5,0.9,1.1v2.1
			h-2.7h-4.4h-2.7v-2.1c0-0.6,0.3-1,0.9-1.1c0,0,0.1,0,0.2,0s0.3-0.1,0.5-0.1c0.3,0,0.6-0.1,1.1-0.2v-19.6c-0.4-0.1-0.8-0.1-1.1-0.2
			c-0.3,0-0.4-0.1-0.5-0.1s-0.2,0-0.2,0c-0.6-0.1-0.9-0.5-0.9-1.1v-2.1h2.7h4.4v10.3c0.7-0.7,1.5-1.2,2.4-1.7
			c0.9-0.4,1.9-0.6,3.1-0.6c1,0,1.9,0.2,2.7,0.5c0.8,0.3,1.4,0.8,1.9,1.4c0.5,0.6,0.9,1.4,1.2,2.2c0.3,0.9,0.4,1.8,0.4,2.8v8.2
			c0.4,0.1,0.8,0.1,1,0.2c0.3,0,0.4,0.1,0.5,0.1c0.1,0,0.2,0,0.2,0C210.6,333.5,210.9,333.9,210.9,334.5z"/>
		<path fill="#FFFFFF" d="M225,318.5c1.1,0.4,2.1,1,2.9,1.9s1.4,1.8,1.8,3c0.4,1.2,0.6,2.5,0.6,3.9c0,1.5-0.2,2.8-0.6,4
			s-1,2.2-1.8,3s-1.8,1.5-2.9,1.9c-1.1,0.4-2.4,0.6-3.7,0.6s-2.7-0.2-3.8-0.6c-1.1-0.4-2.1-1.1-2.9-1.9s-1.4-1.8-1.9-3
			c-0.4-1.2-0.6-2.5-0.6-4c0-1.4,0.2-2.7,0.6-3.9c0.4-1.2,1.1-2.2,1.9-3s1.8-1.4,2.9-1.9c1.1-0.4,2.4-0.7,3.8-0.7
			S223.9,318.1,225,318.5z M224.7,331.9c0.7-1,1.1-2.6,1.1-4.5c0-2-0.4-3.5-1.1-4.5s-1.8-1.6-3.4-1.6s-2.7,0.5-3.5,1.6
			c-0.8,1-1.2,2.6-1.2,4.6s0.4,3.5,1.2,4.5c0.8,1,1.9,1.5,3.5,1.5S224,332.9,224.7,331.9z"/>
		<path fill="#FFFFFF" d="M235.5,335.5c-0.9-0.9-1.3-2.2-1.3-3.7v-10.3h-1.9c-0.3,0-0.4-0.1-0.6-0.3s-0.3-0.4-0.3-0.7v-1.8l3-0.5
			l0.9-5c0-0.3,0.1-0.4,0.3-0.5c0.2-0.1,0.4-0.2,0.7-0.2h2.3v5.8h4.9v3.2h-4.9v10c0,0.6,0.1,1,0.4,1.3c0.3,0.3,0.7,0.5,1.2,0.5
			c0.3,0,0.5,0,0.7-0.1s0.3-0.1,0.5-0.2c0.1-0.1,0.3-0.1,0.4-0.2c0.1-0.1,0.2-0.1,0.3-0.1c0.1,0,0.3,0,0.4,0.1
			c0.1,0.1,0.1,0.1,0.3,0.3l1.3,2.2c-0.6,0.5-1.4,0.9-2.2,1.2c-0.8,0.3-1.7,0.4-2.6,0.4C237.6,336.9,236.3,336.4,235.5,335.5z"/>
		<path fill="#FFFFFF" d="M258.5,318.5c1.1,0.4,2.1,1,2.9,1.9s1.4,1.8,1.8,3c0.4,1.2,0.6,2.5,0.6,3.9c0,1.5-0.2,2.8-0.6,4
			s-1,2.2-1.8,3s-1.8,1.5-2.9,1.9c-1.1,0.4-2.4,0.6-3.7,0.6s-2.7-0.2-3.8-0.6c-1.1-0.4-2.1-1.1-2.9-1.9s-1.4-1.8-1.9-3
			c-0.4-1.2-0.6-2.5-0.6-4c0-1.4,0.2-2.7,0.6-3.9c0.4-1.2,1.1-2.2,1.9-3s1.8-1.4,2.9-1.9c1.1-0.4,2.4-0.7,3.8-0.7
			S257.4,318.1,258.5,318.5z M258.2,331.9c0.7-1,1.1-2.6,1.1-4.5c0-2-0.4-3.5-1.1-4.5s-1.8-1.6-3.4-1.6s-2.7,0.5-3.5,1.6
			c-0.8,1-1.2,2.6-1.2,4.6s0.4,3.5,1.2,4.5c0.8,1,1.9,1.5,3.5,1.5S257.4,332.9,258.2,331.9z"/>
	</g>
</g>
</svg>
