<?xml version="1.0" encoding="utf-8"?>
<!-- Generator: Adobe Illustrator 18.0.0, SVG Export Plug-In . SVG Version: 6.00 Build 0)  -->
<!DOCTYPE svg PUBLIC "-//W3C//DTD SVG 1.1//EN" "http://www.w3.org/Graphics/SVG/1.1/DTD/svg11.dtd">
<svg version="1.1" id="Layer_1" xmlns="http://www.w3.org/2000/svg" xmlns:xlink="http://www.w3.org/1999/xlink" x="0px" y="0px"
	 viewBox="0 0 218.1 121.7" enable-background="new 0 0 218.1 121.7" xml:space="preserve">
<path fill="#2C2F30" d="M17.8,0l182.6,0c9.8,0,17.8,8,17.8,17.8v86.1c0,9.8-8,17.8-17.8,17.8H17.8c-9.8,0-17.8-8-17.8-17.8l0-86.1
	C0,8,8,0,17.8,0z"/>
<path fill="#FFFFFF" d="M81.2,46.2l23-21.9c1.3-1.3,3-2,4.9-2c1.9,0,3.6,0.7,4.9,2L137,46.2c2.7,2.6,2.7,6.8,0,9.4
	c-2.7,2.6-7.2,2.6-9.9,0l-11-10.5v47.5c0,3.7-3.1,6.7-7,6.7c-3.9,0-7-3-7-6.7V45.2L91,55.7c-2.7,2.6-7.2,2.6-9.9,0
	C78.4,53.1,78.4,48.9,81.2,46.2z"/>
</svg>
