<?xml version="1.0" encoding="utf-8"?>
<!-- Generator: Adobe Illustrator 18.0.0, SVG Export Plug-In . SVG Version: 6.00 Build 0)  -->
<!DOCTYPE svg PUBLIC "-//W3C//DTD SVG 1.1//EN" "http://www.w3.org/Graphics/SVG/1.1/DTD/svg11.dtd">
<svg version="1.1" id="Layer_1" xmlns="http://www.w3.org/2000/svg" xmlns:xlink="http://www.w3.org/1999/xlink" x="0px" y="0px"
	 viewBox="0 0 877.7 597.8" enable-background="new 0 0 877.7 597.8" xml:space="preserve">
<path opacity="0.4" fill="#CBD4C2" d="M376.4,455c2.9-14.7,3.5-15,1.6-1.2c-4,28.4-10.6,82.1-14.4,144h11.5
	c2.3-61.3,8.3-113.8,12.5-144.2c2.4-17.9,3-18.3,1.6-0.7c-2.4,29.7-5.3,81.5-3.8,144.9h14.4c-3.7-59.5-1.7-115.1,0.3-148.2
	c1.2-19.5,2-19.9,2.2-1c0.3,32.9,2.1,89,9.8,149.2h73.2c-29-128.4-73.5-204.6-0.2-275.4c2.5-2.4,3.1-2.1,0.9,0.5
	c-52.6,63.5-6,141.2,12.7,274.9h16.8c-23.1-113.4-42.4-141.4-21.4-182.5c0.6-1.1,1.9-1,1.9,0.2c1.2,60.6,18.5,69.8,33.9,182.4h22
	c-6.5-34.8-13.5-67.8-21-96.8c-3.6-17.7-21.7-61.5-13.6-87.8c0.6-2,1.5-1.7,1.3,0.2c-2.3,17.3,2.1,29,10.2,36.2
	c2.9,2.3,7.4,5.1,13.2,7.2c7.5,2.2,16,2.6,24.6,1.2c12.9,23.9,55.3,27,61.4-17.2c0,0,18.4-19,35-22.7l5-9.8h8.5v9.4h17.6v-9.4H691
	v-42l6.8-8.9l-39.4-30.2h-67.1c-1.2-1.4-2.4-2.7-3.5-4.1c17.2-1.8,30.1-9.9,30.8-20.4c0.2-3.3-0.8-6.5-2.8-9.6c2-1.2,4-2.4,6-3.6
	c1.5,0.1,3,0.2,4.5,0.2c20.6,0.2,37.8-8,41.2-18.9c-1.8,0-3.5-0.1-5.3-0.2c-0.6-0.1-1.3-0.2-1.9-0.2c-1.1-0.1-2.3-0.2-3.4-0.4
	c-0.8-0.1-1.5-0.3-2.3-0.4c-1-0.2-2.1-0.3-3.1-0.5c-0.8-0.2-1.7-0.4-2.5-0.6c-1-0.2-1.9-0.4-2.9-0.7c-0.8-0.2-1.7-0.5-2.5-0.7
	c-0.9-0.3-1.9-0.5-2.9-0.8c-0.9-0.3-1.7-0.6-2.6-0.9c-0.9-0.3-1.9-0.6-2.8-1c-0.9-0.3-1.8-0.7-2.6-1c-0.9-0.4-1.9-0.7-2.8-1.1
	c-0.9-0.4-1.8-0.8-2.6-1.2c-0.9-0.4-1.8-0.8-2.7-1.2c-0.9-0.4-1.8-0.9-2.6-1.3c-0.9-0.4-1.8-0.9-2.7-1.4c-0.9-0.5-1.8-1-2.6-1.4
	c-0.9-0.5-1.8-1-2.6-1.5c-0.9-0.5-1.7-1.1-2.6-1.6c-0.9-0.5-1.8-1.1-2.6-1.6c-0.9-0.5-1.7-1.1-2.5-1.7c-0.9-0.6-1.7-1.1-2.6-1.7
	c-0.8-0.6-1.7-1.2-2.5-1.8c-0.8-0.6-1.7-1.2-2.6-1.9c-0.8-0.6-1.6-1.2-2.4-1.9c-0.9-0.6-1.7-1.3-2.5-2c-0.8-0.6-1.5-1.3-2.3-1.9
	c-0.8-0.7-1.7-1.4-2.5-2.1c-0.7-0.6-1.4-1.3-2.2-1.9c-0.7-0.6-1.4-1.2-2.1-1.9c-0.2-0.2-0.4-0.4-0.6-0.6c-0.1,0-0.1-0.1-0.1-0.1
	c-2.2-2.1-3-2.9-2-2.4c0.3,0.2,1,0.6,2.1,1.5c0.8,0.6,1.7,1.2,2.6,1.8c0.8,0.6,1.7,1.2,2.6,1.8c0.8,0.5,1.7,1,2.5,1.5
	c0.9,0.6,1.8,1.1,2.8,1.7c0.8,0.5,1.7,0.9,2.6,1.4c1,0.5,1.9,1.1,3,1.6c0.9,0.4,1.8,0.8,2.7,1.2c1,0.5,2.1,1,3.1,1.4
	c0.9,0.4,1.8,0.8,2.7,1.1c1.1,0.4,2.2,0.9,3.2,1.3c0.9,0.4,1.9,0.7,2.8,1c1.1,0.4,2.2,0.8,3.3,1.2c0.9,0.3,1.9,0.6,2.9,0.9
	c1.1,0.4,2.2,0.7,3.3,1c1,0.3,2,0.5,2.9,0.8c1.1,0.3,2.2,0.6,3.2,0.9c1,0.3,2,0.5,3,0.7c1,0.2,2.1,0.5,3.1,0.7
	c1,0.2,2.1,0.4,3.1,0.6c1,0.2,2,0.4,3,0.6c1,0.2,2.1,0.3,3.1,0.5c0.9,0.2,1.9,0.3,2.8,0.5c1.1,0.2,2.2,0.3,3.2,0.4
	c0.8,0.1,1.7,0.2,2.5,0.3c1.1,0.1,2.3,0.2,3.4,0.3c0.7,0.1,1.4,0.1,2.1,0.2c1.2,0.1,2.3,0.1,3.4,0.2c0.6,0,1.3,0.1,1.8,0.1
	c1.2,0,2.4,0,3.5,0c0.4,0,0.9,0,1.3,0c1.6,0,3.1-0.1,4.5-0.3c0.1-0.1,0.2-0.1,0.3-0.2c21.7-1.4,38.7-12,38.8-24.2
	c-1.6,0-3.3-0.1-5-0.2c-1.3-0.1-2.7-0.2-4-0.3c-0.4,0-0.8-0.1-1.2-0.1c-1.4-0.1-2.8-0.3-4.3-0.5c-0.4,0-0.8-0.1-1.1-0.1
	c-1.3-0.2-2.6-0.4-4-0.6c-0.5-0.1-1-0.1-1.6-0.2c-1.3-0.2-2.6-0.5-3.9-0.7c-0.6-0.1-1.1-0.2-1.7-0.3c-1.3-0.3-2.6-0.6-3.9-0.9
	c-0.6-0.1-1.2-0.2-1.8-0.4c-1.2-0.3-2.5-0.6-3.7-1c-0.7-0.2-1.3-0.3-2-0.5c-1.2-0.3-2.4-0.7-3.6-1.1c-0.7-0.2-1.4-0.4-2.1-0.6
	c-1.2-0.4-2.3-0.8-3.5-1.2c-0.7-0.3-1.4-0.5-2.1-0.8c-1.1-0.4-2.3-0.9-3.4-1.4c-0.7-0.3-1.5-0.6-2.2-0.9c-1.1-0.5-2.2-1-3.3-1.5
	c-0.7-0.3-1.5-0.7-2.2-1c-1.1-0.5-2.1-1.1-3.1-1.6c-0.7-0.4-1.5-0.7-2.2-1.1c-1-0.6-2-1.2-3-1.8c-0.7-0.4-1.4-0.8-2.1-1.3
	c-1-0.6-1.9-1.3-2.8-1.9c-0.7-0.5-1.4-0.9-2.1-1.4c-0.9-0.7-1.8-1.4-2.6-2.1c-0.7-0.5-1.3-1-2-1.6c-0.8-0.7-1.6-1.5-2.4-2.2
	c-0.5-0.5-1.2-1-1.7-1.6c0,0,0,0,0-0.1c-0.1-0.1-0.2-0.2-0.3-0.3c-0.8-0.8-0.7-1.4,0.2-0.8c0.9,0.6,1.9,1.1,2.8,1.7
	c0.7,0.4,1.5,0.9,2.2,1.3c0.8,0.5,1.6,0.9,2.4,1.4c0.7,0.4,1.4,0.8,2.1,1.1c0.8,0.4,1.6,0.8,2.4,1.3c0.7,0.3,1.4,0.7,2,1
	c0.8,0.4,1.6,0.8,2.4,1.2c0.7,0.3,1.3,0.6,2,0.9c0.8,0.4,1.6,0.7,2.4,1.1c0.6,0.3,1.2,0.6,1.9,0.8c0.8,0.3,1.6,0.7,2.4,1
	c0.6,0.3,1.2,0.5,1.8,0.7c0.8,0.3,1.6,0.6,2.4,0.9c0.6,0.2,1.2,0.4,1.8,0.6c0.8,0.3,1.6,0.5,2.4,0.8c0.6,0.2,1.1,0.4,1.7,0.6
	c0.8,0.3,1.6,0.5,2.4,0.7c0.5,0.2,1.1,0.3,1.6,0.5c0.8,0.2,1.6,0.4,2.3,0.6c0.5,0.1,1.1,0.3,1.6,0.4c0.8,0.2,1.5,0.4,2.3,0.5
	c0.5,0.1,1,0.3,1.5,0.4c0.8,0.2,1.5,0.3,2.3,0.5c0.5,0.1,1,0.2,1.5,0.3c0.8,0.1,1.5,0.3,2.2,0.4c0.5,0.1,1,0.2,1.5,0.3
	c0.7,0.1,1.4,0.2,2.1,0.3c0.5,0.1,1,0.1,1.4,0.2c0.7,0.1,1.4,0.2,2.1,0.2c0.5,0,0.9,0.1,1.4,0.2c0.7,0.1,1.4,0.1,2,0.2
	c0.4,0,0.9,0.1,1.4,0.1c0.7,0,1.3,0.1,2,0.1c0.4,0,0.9,0.1,1.3,0.1c0.6,0,1.3,0,1.9,0.1c0.4,0,0.9,0,1.3,0c0.6,0,1.2,0,1.8,0
	c0.4,0,0.9,0,1.3,0c0.6,0,1.1,0,1.7,0c0.5,0,0.9,0,1.4,0c0.6,0,1.1,0,1.6-0.1c0.4,0,0.9,0,1.3-0.1c0.5,0,1-0.1,1.5-0.1
	c0.5,0,0.9-0.1,1.3-0.1c0.5,0,0.9-0.1,1.4-0.1c0.5,0,0.9-0.1,1.4-0.1c0.4,0,0.9-0.1,1.3-0.1c0.4,0,0.9-0.1,1.3-0.1
	c0.4-0.1,0.8-0.1,1.2-0.2c0.4-0.1,0.9-0.1,1.3-0.2c0.4-0.1,0.7-0.1,1.1-0.2c0.4-0.1,0.9-0.1,1.3-0.2c0.3,0,0.6-0.1,0.9-0.1
	c0.5-0.1,1-0.2,1.4-0.2c0.2,0,0.4-0.1,0.6-0.1c5.4-1.3,7.4-1.9,11.7-3.4c10.9-3.7,20.2-10.8,20.2-21.2c0,0-21.9-0.3-31.9-2.1
	c-10.7-1.9-23.8-6.6-36.6-15c-1-0.7-0.5-1.1,0.8-0.6c13.6,5,29.7,8.4,45.9,9v0c0,0,8.4,0.2,14.1,0c8.6-0.3,17.4-1.4,21.2-3.5
	c13.2-7.3,20.6-15.2,19.1-24.2c-0.1-0.8-0.4-1.7-0.7-2.5c1.4-1.7,2.9-3.3,4.3-5c16-6.6,26.2-18.1,23.9-28.3c-0.1-0.5-0.3-1-0.5-1.5
	c0.6-0.8,1.2-1.7,1.8-2.5c18.2-7.4,29.8-20.7,26.6-31.7c-0.3-1.1-0.8-2.1-1.3-3c16.9-8.6,27-22.1,23.2-32.7
	c-0.8-2.2-2.1-4.1-3.9-5.7c2.9-5.7,5.8-11.5,8.7-17.4c8.8-18.3,12.3-39.4-12.2-23.6C826,32.7,793,52.7,761,69.1l-26.2,12.7
	c-109.9,50.7-207,67.2-256.2,188.9c-1.2-8.5-4.6-31.1-7.5-46c-1.2,3.8-5.6,9.2-8.6,11.6l3.3,41.8c0,0,0.1,1.2-0.6,2l-23.2,20.7
	c0,0-0.8,0.5-0.5-0.4l13.5-56.6c0,0,0.2-1.1-0.6-0.4c-4.5,3-9.8,5.4-16.1,7.1c-0.3,0.1-0.5-0.2-0.3-0.5c17.9-20.7-3.4-30.3,11.4-51
	c-8-13.7-22.6-8.4-25.6-7.1c-0.7,0.4-0.5-0.6-0.5-0.6v-13.3c0,0-0.1-0.5,0.7-0.8c14-3.1,33.9,0.1,42.4,19.7
	c5.8-0.7,14.4,2.5,15.2,11.5c2.4-8.7,1.7-17.4-0.7-20c7.7-8.3,7.4-21,3.8-29.3c-0.9,3.2-2.6,6.3-5,8.9c-0.6,0.7-1.3,1.3-2,1.9
	c-0.2,0.2-0.4,0.3-0.6,0.5c-0.5,0.4-1,0.8-1.6,1.1c-0.3,0.2-0.6,0.3-0.8,0.5c-0.5,0.3-1,0.6-1.5,0.8c-0.3,0.1-0.6,0.2-0.9,0.4
	c-0.5,0.2-1,0.4-1.5,0.6c-0.3,0.1-0.7,0.2-1,0.3c-0.5,0.1-1,0.3-1.5,0.4c-0.4,0.1-0.7,0.1-1.1,0.2c-0.5,0.1-1,0.2-1.5,0.2
	c-0.4,0-0.8,0-1.1,0c-0.5,0-1,0-1.5,0c-0.4,0-0.8-0.1-1.2-0.1c-0.4,0-0.9-0.1-1.3-0.1c0,0,0,0,0,0c0,0-0.1,0-0.2,0
	c-0.3-0.1-0.5-0.3-0.3-0.4c0.5-0.2,0.9-0.4,1.4-0.6c0.3-0.1,0.6-0.3,0.9-0.4c0.4-0.2,0.8-0.5,1.2-0.7c0.3-0.2,0.5-0.3,0.8-0.5
	c0.4-0.3,0.9-0.6,1.3-1c0.2-0.2,0.4-0.3,0.6-0.5c0.6-0.5,1.2-1.1,1.8-1.7c4.7-5,6.5-11.7,5.6-18c-4.6-1-10-4.7-13-10
	c-17.4-20.6-65.8-6.9-68.2,16.5c-18.6,12.9-11.7,35.7-1.2,42.9c2.1,11.4,8.1,28.5,24.3,50.1c2.9,8-3.8,19.7-11.8,29.3
	c-0.2,0.3-0.9,0.8-1.1-0.3C349.5,139.1,236.1,133.1,111,67.6L84.8,53C63.1,40.2,41.3,25.3,19.4,7.3C-5.1-8.5-3,13.3,7.1,30.9
	c4,6.9,8.1,13.7,12.3,20.4c-0.5,0.8-0.9,1.6-1.2,2.5c-3.7,10.6,6.4,24.1,23.3,32.6c-0.6,1-1,2-1.3,3c-3.3,11.5,9.5,25.5,29.2,32.5
	c-0.5,1-0.9,2-1.1,3.1c-1.9,8.5,4.8,17.8,16.4,24.5c0,0-1.7,1,0,7.3c1.7,6.3,12.1,17.4,23.7,24.4l2.6,1.3c6,3.4,13.4,6.1,21.6,7.5
	c-1.3,1.9-2.1,4-2.3,6.3c-1.3,12.6,16,24.8,38.6,27.2c1.6,0.2,3.1,0.2,4.7,0.3c0.5,0.4,0.9,0.8,1.4,1.2c-1.4,2.2-2.2,4.5-2.3,7
	c-0.6,12.7,17.5,23.9,40.3,24.9c0.7,0,1.3,0,2,0c1.6,1.2,3.2,2.4,4.7,3.6c-1.3,2.3-1.9,4.7-1.9,7.1c0.2,12.8,19,23,42,22.6
	c0.4,0,0.8,0,1.2,0c2.8,1.9,5.5,3.8,8.2,5.6c-1.2,2.4-1.8,4.9-1.6,7.4c0.9,12.4,18.8,21.2,40.6,20.5c5.1-22.2,19.6-60.9,92.3-43.4
	c0.8,0.2,0.8,0.6,0,0.7c-63.2,1.9-74,16.5-88.9,42.9c0,0,0.1,0,0.1,0.1c-34.1,62.9-46.3,46.8-65.6,67.3c-21,21-31.8,38.8-58,51.1
	c-21.9-8.7-35.6,13-52.2,8.6c-1.7,10.5,14.9,9.6,21,9.6c6.1,0,3.5,4.4-1.7,14c-10.5,16.6-22.7,35-4.4,21c7-6.1,26.5-3.1,32.4-3.1
	c8.7,5.2,17.2-2.3,27.7-25.1c7.9-12.2,47.2-16.7,86.9-49c0,0,0.1,0.1,0.1,0.1c48.1-62.8,118.3-107.4,198.6-123.4
	c1.2-0.2,2.3,0.5,0.1,1c-80.7,21.5-143.9,68.2-184.6,134.1c14.2,8,32.8,10.2,50.5,8.3c-73,154.8,7.4,68.4-34.9,159.5h27.9
	C361.9,534.2,371,482.9,376.4,455z M374.1,262c-3.8-0.7-6.9-1.2-13-1.2c-0.2,0-0.9,0.1-1-0.9c-19.3-51.6-55.4-81.6-99.9-107.8
	c-1.8-1.2-2.6-2.4,0.5-0.9c48.5,26.1,88,55.8,113.9,109.9C374.9,261.5,375.1,262.2,374.1,262z M183.1,460.8c0,0-0.8,0-1-0.2
	c-1.9-1.7-4.1-3.1-6.7-4c-2.6-1-5.3-1.3-8-1.2c-0.3,0-0.5-0.4-0.2-0.6c5-3.9,11.9-5.3,18.3-2.9c1.5,0.5,2.9,1.3,4.2,2.2
	c0.2,0.1,0.2,0.7,0.2,0.7L183.1,460.8z M289.6,394.9c-11.6,13.1-37.9,26.7-46.5,31c-1.8,0.9-1.6,0-1.1-0.6
	c18.5-21.5,33.6-33,33.6-33C284,385.3,295,388.7,289.6,394.9z M386.2,301.2l-4.4,17.7c0,0-0.6,0.2-0.8,0
	c-12.7-10.4-27.5-9.9-31.8-9.5c-0.8,0.1-0.6-0.3-0.3-0.5c14.7-9.9,32.3-9,36.5-8.5C386.6,300.5,386.2,301.2,386.2,301.2z M403.6,186
	c-0.6,2.9-0.5,5.7,0.2,8.4c0.1,0.3-0.3,0.4-0.5,0.2c-4.4-4.4-6.6-10.9-5.3-17.5c1.7-8.3,8.3-14.2,16.2-15.4c2.1-0.3,4.3-0.6,5.4-0.5
	c9.3,0.7,18.2-4.1,21.3-13.2c0.9-2.6,1.2-5.3,1-7.9c0-0.4,0.4-0.7,0.6-0.3c3.7,5,4.9,11.6,2.8,17.9c-2.7,7.8-9.9,12.8-17.8,13.1
	c-0.3,0.1-3.1-0.1-3.7-0.2C412.3,169.7,405.6,176.4,403.6,186z M426.5,218.7h-7.9c0,0-0.4,0-0.5-0.8v-19c-0.1-1.5,0.4-0.6,0.6,0
	l8.2,19.2C427.1,218.7,427,218.7,426.5,218.7z M431.3,586.5c-11.7-51.8-15.9-108.5-17.4-142.9c-0.8-19.6-0.1-20.5,2.2-1.6
	c3.4,27.4,10,70.7,22.4,117.6C436.5,568,434.1,577.1,431.3,586.5z M408.5,406c-0.3,1.5-1.5,1.3-1.5,1.3l-10.6-1.7
	c0,0-1.4-0.2-0.9-1.4c20.5-46.5,58.4-80.9,104.1-100.4c1.7-0.9,2.9-0.6,0.5,0.5C456.9,325.9,424.7,361.6,408.5,406z M654.7,416.8
	h-17.6v-9.3l-17.2,0v-2.3c0-5.6-3.8-6.6-6.2-4c0.6,0.9,1,2.2,1,4v19.5c0,5-9.4,6.1-9.4-0.7l1.5-16.5h-2v-2.4c0-5.6-3.8-6.6-6.2-4
	c0.6,0.9,0.9,2.2,1,4v19.5c0,5-9.4,6.1-9.4-0.7l1.4-16.5l-7.9,0c0,0.2,0,0.5,0,0.8V423c0,4-7.5,4.9-7.5-0.5l1.3-14.1
	c0.1-0.3,0.1-0.6,0.2-0.8l-17.1,0v9.2h-17.6v-9.4h2.8h0.1v-41.8h104.9v41.7h3.9V416.8z M642,343l12.2,8.7h-99.7l-12.3-8.7H642z
	 M484.6,276.5c-1.7,0-1.8-0.7-0.4-1.1c4.3-1.1,8.3-1.9,12.2-2.5c36.3-85.6,100.2-113.6,179.9-148.4c29-12.7,60.1-26.2,92-43.7
	c4.7-2.6,4.9-1.7,0.5,1.6c-27.5,17.3-54.9,31.4-81.3,42c-80.5,32.3-144.3,71.2-167.4,148.9c28.4,7.4,35.1,28,61.1,55.1h-61.7
	c0,0-1.4,0-1,1.1c6.7,25.2-20.6,45.7-42.4,41.7c-1.3-0.1-1-1-0.9-1.4c4.3-25.7,31.5-56.8,41.1-67c-3.8-1.4-6.6-5-6.6-9.3
	c0-4.9,3.6-9,8.3-9.8C510.9,277.5,495,276.5,484.6,276.5z M357.3,398.5c0,0-1.2-0.3-0.5-1.2c34.1-47.1,83.6-81.5,140.6-97.8
	c1.8-0.6,2.7,0.1,0.4,0.8c-54.3,19.2-97.6,53.6-126.4,99.1c-1,1.5-2,1-2,1L357.3,398.5z"/>
</svg>
