<?xml version="1.0" encoding="utf-8"?>
<!-- Generator: Adobe Illustrator 18.0.0, SVG Export Plug-In . SVG Version: 6.00 Build 0)  -->
<!DOCTYPE svg PUBLIC "-//W3C//DTD SVG 1.1//EN" "http://www.w3.org/Graphics/SVG/1.1/DTD/svg11.dtd">
<svg version="1.1" id="Layer_1" xmlns="http://www.w3.org/2000/svg" xmlns:xlink="http://www.w3.org/1999/xlink" x="0px" y="0px"
	 viewBox="0 0 175.5 119.6" enable-background="new 0 0 175.5 119.6" xml:space="preserve">
<path fill="none" d="M85.5,34.1c1.6-0.1,3-1.1,3.6-2.6c0.4-1.3,0.2-2.6-0.6-3.6c-0.1-0.1-0.1,0-0.1,0.1c0,0.5,0,1.1-0.2,1.6
	c-0.6,1.8-2.4,2.8-4.3,2.6c-0.2,0-0.7,0-1.1,0.1c-1.6,0.2-2.9,1.4-3.2,3.1c-0.3,1.3,0.2,2.6,1.1,3.5c0.1,0.1,0.1,0,0.1,0
	c-0.1-0.5-0.2-1.1,0-1.7c0.4-1.9,1.7-3.3,4-3.1C84.9,34.1,85.5,34.2,85.5,34.1z"/>
<path fill="none" d="M77.1,60.1c-0.8-0.1-4.4-0.3-7.3,1.7c-0.1,0-0.1,0.1,0.1,0.1c0.9-0.1,3.8-0.2,6.4,1.9c0,0,0.2,0,0.2,0l0.9-3.5
	C77.2,60.2,77.3,60.1,77.1,60.1z"/>
<path fill="none" d="M37.1,90.4c-1.3-0.5-2.7-0.2-3.7,0.6c-0.1,0,0,0.1,0,0.1c0.5,0,1.1,0.1,1.6,0.2c0.5,0.2,1,0.5,1.3,0.8
	c0,0,0.2,0,0.2,0l1.4-1.2c0,0,0-0.1,0-0.1C37.7,90.6,37.4,90.5,37.1,90.4z"/>
<path fill="none" d="M55.1,78.4c0,0-3,2.3-6.7,6.6c-0.1,0.1-0.1,0.3,0.2,0.1c1.7-0.9,7-3.6,9.3-6.2C59,77.7,56.8,77.1,55.1,78.4z"/>
<path fill="none" d="M82.8,88.7c0.3,6.9,1.1,18.2,3.5,28.6c0.6-1.9,1-3.7,1.4-5.4c-2.5-9.4-3.8-18-4.5-23.5
	C82.8,84.6,82.6,84.8,82.8,88.7z"/>
<path fill="none" d="M83.7,39.8c0-0.1-0.1-0.3-0.1,0v3.8c0,0.2,0.1,0.2,0.1,0.2h1.6c0.1,0,0.1,0,0.1-0.1L83.7,39.8z"/>
<path fill="none" d="M77.8,90.6c0.3-3.5,0.2-3.5-0.3,0.1c-0.8,6.1-2,16.6-2.5,28.8h2.1C76.8,106.9,77.4,96.5,77.8,90.6z"/>
<path fill="none" d="M99.9,60.8c-9.1,3.9-16.7,10.8-20.8,20.1c-0.1,0.2,0.2,0.3,0.2,0.3l2.1,0.3c0,0,0.2,0.1,0.3-0.3
	c3.2-8.9,9.7-16,18.3-20.3C100.5,60.6,100.3,60.6,99.9,60.8z"/>
<path fill="none" d="M80,89.9c-0.4,6.6-0.8,17.7-0.1,29.6h2.5c-1.5-12-1.9-23.3-2-29.8C80.4,86,80.3,86,80,89.9z"/>
<path fill="none" d="M52.1,30.2c-0.6-0.3-0.5-0.1-0.1,0.2c8.9,5.2,16.1,11.2,20,21.6c0,0.2,0.2,0.2,0.2,0.2c1.2,0,1.8,0.1,2.6,0.2
	c0.2,0,0.2-0.1,0.1-0.2C69.8,41.4,61.8,35.5,52.1,30.2z"/>
<path fill="none" d="M75.3,91c-1.1,5.6-2.9,15.8-4.2,28.6h1.7c0.7-12.4,2.1-23.1,2.9-28.8C76,88,75.9,88.1,75.3,91z"/>
<path fill="none" d="M98.8,83.1c-4.2,8.2-0.3,13.8,4.3,36.5h2.9c-3.1-22.5-6.5-24.4-6.8-36.5C99.2,82.9,98.9,82.8,98.8,83.1z"/>
<path fill="none" d="M97.2,64.6c0.4-0.5,0.3-0.6-0.2-0.1c-14.7,14.2-5.8,29.4,0,55.1h2.7C96,92.8,86.7,77.3,97.2,64.6z"/>
<path fill="none" d="M101.9,58.7c0,0.9,0.5,1.6,1.3,1.9c-1.9,2-7.4,8.3-8.2,13.4c0,0.1-0.1,0.3,0.2,0.3c4.4,0.8,9.8-3.3,8.5-8.3
	c-0.1-0.2,0.2-0.2,0.2-0.2h12.3c-5.2-5.4-6.5-9.5-12.2-11c4.6-15.5,17.4-23.3,33.5-29.8c5.3-2.1,10.8-4.9,16.3-8.4
	c0.9-0.7,0.8-0.8-0.1-0.3c-6.4,3.5-12.6,6.2-18.4,8.7c-15.9,7-28.7,12.6-36,29.7c-0.8,0.1-1.6,0.3-2.4,0.5c-0.3,0.1-0.3,0.2,0.1,0.2
	c2.1,0,5.3,0.2,6.7,1.4C102.7,56.9,101.9,57.7,101.9,58.7z"/>
<polygon fill="none" points="110.9,70.3 130.9,70.3 128.4,68.6 108.5,68.6 "/>
<path fill="none" d="M74.3,79.9c5.8-9.1,14.4-16,25.3-19.8c0.5-0.1,0.3-0.3-0.1-0.2C88.1,63.2,78.2,70,71.4,79.5
	c-0.1,0.2,0.1,0.2,0.1,0.2l2.4,0.4C73.9,80.1,74.1,80.2,74.3,79.9z"/>
<path fill="none" d="M130.2,73.1h-21v8.4h0h-0.6v1.9h3.5v-1.8l3.4,0c0,0,0,0.1,0,0.2l-0.3,2.8c0,1.1,1.5,0.9,1.5,0.1v-2.9
	c0-0.1,0-0.1,0-0.2l1.6,0l-0.3,3.3c0,1.4,1.9,1.1,1.9,0.1V81c0-0.4-0.1-0.6-0.2-0.8c0.5-0.5,1.2-0.3,1.2,0.8v0.5h0.4l-0.3,3.3
	c0,1.4,1.9,1.1,1.9,0.1V81c0-0.4-0.1-0.6-0.2-0.8c0.5-0.5,1.2-0.3,1.2,0.8v0.5l3.4,0v1.9h3.5v-1.9h-0.8V73.1z M111.1,74.3
	c0-0.6,0.5-1,1-1c0.6,0,1,0.5,1,1c0,0.6-0.5,1-1,1C111.5,75.3,111.1,74.8,111.1,74.3z M113.5,77.4c-0.6,0-1-0.5-1-1c0-0.6,0.5-1,1-1
	c0.6,0,1,0.5,1,1C114.6,77,114.1,77.4,113.5,77.4z M116.2,78.2c-0.6,0-1-0.5-1-1c0-0.6,0.5-1,1-1c0.6,0,1,0.5,1,1
	C117.2,77.8,116.7,78.2,116.2,78.2z M118.8,77.5c-0.6,0-1-0.5-1-1c0-0.6,0.5-1,1-1c0.6,0,1,0.5,1,1C119.8,77,119.4,77.5,118.8,77.5z
	 M120.1,75.3c-0.6,0-1-0.5-1-1c0-0.6,0.5-1,1-1c0.6,0,1,0.5,1,1C121.1,74.8,120.7,75.3,120.1,75.3z M124.1,80.1c-0.6,0-1-0.5-1-1
	c0-0.6,0.5-1,1-1c0.6,0,1,0.5,1,1C125.2,79.6,124.7,80.1,124.1,80.1z M124.1,77.7c-0.6,0-1-0.5-1-1c0-0.6,0.5-1,1-1c0.6,0,1,0.5,1,1
	C125.2,77.2,124.7,77.7,124.1,77.7z M124.1,75.3c-0.6,0-1-0.5-1-1c0-0.6,0.5-1,1-1c0.6,0,1,0.5,1,1
	C125.2,74.8,124.7,75.3,124.1,75.3z"/>
<circle fill="#CC0000" cx="118.8" cy="76.4" r="1"/>
<circle fill="#CC0000" cx="124.1" cy="76.7" r="1"/>
<circle fill="#CC0000" cx="124.1" cy="74.3" r="1"/>
<circle fill="#CC0000" cx="124.1" cy="79" r="1"/>
<path fill="#CC0000" d="M116.2,76.2c-0.6,0-1,0.5-1,1c0,0.6,0.5,1,1,1c0.6,0,1-0.5,1-1C117.2,76.6,116.7,76.2,116.2,76.2z"/>
<path fill="#CC0000" d="M113.5,75.4c-0.6,0-1,0.5-1,1c0,0.6,0.5,1,1,1c0.6,0,1-0.5,1-1C114.6,75.9,114.1,75.4,113.5,75.4z"/>
<path fill="#CC0000" d="M120.1,73.2c-0.6,0-1,0.5-1,1c0,0.6,0.5,1,1,1c0.6,0,1-0.5,1-1C121.1,73.7,120.7,73.2,120.1,73.2z"/>
<path fill="#CC0000" d="M113.1,74.3c0-0.6-0.5-1-1-1c-0.6,0-1,0.5-1,1c0,0.6,0.5,1,1,1C112.7,75.3,113.1,74.8,113.1,74.3z"/>
<path fill="#CC0000" d="M75.3,91c0.6-2.9,0.7-3,0.3-0.2c-0.8,5.7-2.1,16.4-2.9,28.8H75c0.5-12.3,1.7-22.8,2.5-28.8
	c0.5-3.6,0.6-3.7,0.3-0.1c-0.5,5.9-1.1,16.3-0.8,29H80c-0.7-11.9-0.3-23,0.1-29.6c0.2-3.9,0.4-4,0.4-0.2c0.1,6.6,0.4,17.8,2,29.8
	h14.6c-5.8-25.7-14.7-40.9,0-55.1c0.5-0.5,0.6-0.4,0.2,0.1c-10.5,12.7-1.2,28.2,2.5,55h3.4c-4.6-22.7-8.5-28.3-4.3-36.5
	c0.1-0.2,0.4-0.2,0.4,0c0.2,12.1,3.7,14,6.8,36.5h4.4c-1.3-7-2.7-13.6-4.2-19.4c-0.7-3.5-4.3-12.3-2.7-17.6c0.1-0.4,0.3-0.3,0.3,0
	c-0.5,3.5,0.4,5.8,2,7.2c0.6,0.5,1.5,1,2.6,1.4c1.5,0.4,3.2,0.5,4.9,0.2c2.6,4.8,11.1,5.4,12.3-3.4c0,0,3.7-3.8,7-4.5l1-2h1.7v1.9
	h3.5v-1.9h-0.6v-8.4l1.4-1.8l-7.9-6h-13.4c-0.2-0.3-0.5-0.5-0.7-0.8c3.4-0.4,6-2,6.2-4.1c0-0.7-0.2-1.3-0.6-1.9
	c0.4-0.2,0.8-0.5,1.2-0.7c0.3,0,0.6,0,0.9,0c4.1,0,7.6-1.6,8.2-3.8c-0.4,0-0.7,0-1.1,0c-0.1,0-0.3,0-0.4,0c-0.2,0-0.5,0-0.7-0.1
	c-0.2,0-0.3-0.1-0.5-0.1c-0.2,0-0.4-0.1-0.6-0.1c-0.2,0-0.3-0.1-0.5-0.1c-0.2,0-0.4-0.1-0.6-0.1c-0.2,0-0.3-0.1-0.5-0.1
	c-0.2-0.1-0.4-0.1-0.6-0.2c-0.2-0.1-0.3-0.1-0.5-0.2c-0.2-0.1-0.4-0.1-0.6-0.2c-0.2-0.1-0.4-0.1-0.5-0.2c-0.2-0.1-0.4-0.1-0.6-0.2
	c-0.2-0.1-0.4-0.2-0.5-0.2c-0.2-0.1-0.4-0.2-0.5-0.2c-0.2-0.1-0.4-0.2-0.5-0.3c-0.2-0.1-0.4-0.2-0.5-0.3c-0.2-0.1-0.4-0.2-0.5-0.3
	c-0.2-0.1-0.4-0.2-0.5-0.3c-0.2-0.1-0.3-0.2-0.5-0.3c-0.2-0.1-0.4-0.2-0.5-0.3c-0.2-0.1-0.3-0.2-0.5-0.3c-0.2-0.1-0.3-0.2-0.5-0.3
	c-0.2-0.1-0.3-0.2-0.5-0.4c-0.2-0.1-0.3-0.2-0.5-0.4c-0.2-0.1-0.3-0.2-0.5-0.4c-0.2-0.1-0.3-0.3-0.5-0.4c-0.2-0.1-0.3-0.3-0.5-0.4
	c-0.2-0.1-0.3-0.3-0.5-0.4c-0.1-0.1-0.3-0.3-0.4-0.4c-0.1-0.1-0.3-0.2-0.4-0.4c0,0-0.1-0.1-0.1-0.1c0,0,0,0,0,0
	c-0.4-0.4-0.6-0.6-0.4-0.5c0.1,0,0.2,0.1,0.4,0.3c0.2,0.1,0.3,0.2,0.5,0.4c0.2,0.1,0.3,0.2,0.5,0.4c0.2,0.1,0.3,0.2,0.5,0.3
	c0.2,0.1,0.4,0.2,0.6,0.3c0.2,0.1,0.3,0.2,0.5,0.3c0.2,0.1,0.4,0.2,0.6,0.3c0.2,0.1,0.4,0.2,0.5,0.2c0.2,0.1,0.4,0.2,0.6,0.3
	c0.2,0.1,0.4,0.2,0.5,0.2c0.2,0.1,0.4,0.2,0.6,0.3c0.2,0.1,0.4,0.1,0.6,0.2c0.2,0.1,0.4,0.2,0.7,0.2c0.2,0.1,0.4,0.1,0.6,0.2
	c0.2,0.1,0.4,0.1,0.7,0.2c0.2,0.1,0.4,0.1,0.6,0.2c0.2,0.1,0.4,0.1,0.6,0.2c0.2,0.1,0.4,0.1,0.6,0.1c0.2,0,0.4,0.1,0.6,0.1
	c0.2,0,0.4,0.1,0.6,0.1c0.2,0,0.4,0.1,0.6,0.1c0.2,0,0.4,0.1,0.6,0.1c0.2,0,0.4,0.1,0.6,0.1c0.2,0,0.4,0.1,0.6,0.1
	c0.2,0,0.3,0,0.5,0.1c0.2,0,0.5,0,0.7,0.1c0.1,0,0.3,0,0.4,0c0.2,0,0.5,0,0.7,0c0.1,0,0.3,0,0.4,0c0.2,0,0.5,0,0.7,0
	c0.1,0,0.2,0,0.3,0c0.3,0,0.6,0,0.9-0.1c0,0,0,0,0.1,0c4.3-0.3,7.7-2.4,7.8-4.8c-0.3,0-0.7,0-1,0c-0.3,0-0.5,0-0.8-0.1
	c-0.1,0-0.2,0-0.2,0c-0.3,0-0.6-0.1-0.9-0.1c-0.1,0-0.2,0-0.2,0c-0.3,0-0.5-0.1-0.8-0.1c-0.1,0-0.2,0-0.3,0c-0.3,0-0.5-0.1-0.8-0.1
	c-0.1,0-0.2,0-0.3-0.1c-0.3-0.1-0.5-0.1-0.8-0.2c-0.1,0-0.2,0-0.4-0.1c-0.2-0.1-0.5-0.1-0.7-0.2c-0.1,0-0.3-0.1-0.4-0.1
	c-0.2-0.1-0.5-0.1-0.7-0.2c-0.1,0-0.3-0.1-0.4-0.1c-0.2-0.1-0.5-0.2-0.7-0.2c-0.1-0.1-0.3-0.1-0.4-0.2c-0.2-0.1-0.5-0.2-0.7-0.3
	c-0.1-0.1-0.3-0.1-0.4-0.2c-0.2-0.1-0.4-0.2-0.7-0.3c-0.1-0.1-0.3-0.1-0.4-0.2c-0.2-0.1-0.4-0.2-0.6-0.3c-0.1-0.1-0.3-0.1-0.4-0.2
	c-0.2-0.1-0.4-0.2-0.6-0.4c-0.1-0.1-0.3-0.2-0.4-0.3c-0.2-0.1-0.4-0.3-0.6-0.4c-0.1-0.1-0.3-0.2-0.4-0.3c-0.2-0.1-0.4-0.3-0.5-0.4
	c-0.1-0.1-0.3-0.2-0.4-0.3c-0.2-0.1-0.3-0.3-0.5-0.4c-0.1-0.1-0.2-0.2-0.3-0.3c0,0,0,0,0,0c0,0,0,0-0.1-0.1c-0.2-0.2-0.1-0.3,0-0.2
	c0.2,0.1,0.4,0.2,0.6,0.3c0.1,0.1,0.3,0.2,0.4,0.3c0.2,0.1,0.3,0.2,0.5,0.3c0.1,0.1,0.3,0.2,0.4,0.2c0.2,0.1,0.3,0.2,0.5,0.3
	c0.1,0.1,0.3,0.1,0.4,0.2c0.2,0.1,0.3,0.2,0.5,0.2c0.1,0.1,0.3,0.1,0.4,0.2c0.2,0.1,0.3,0.1,0.5,0.2c0.1,0.1,0.2,0.1,0.4,0.2
	c0.2,0.1,0.3,0.1,0.5,0.2c0.1,0.1,0.2,0.1,0.4,0.1c0.2,0.1,0.3,0.1,0.5,0.2c0.1,0,0.2,0.1,0.4,0.1c0.2,0.1,0.3,0.1,0.5,0.2
	c0.1,0,0.2,0.1,0.3,0.1c0.2,0.1,0.3,0.1,0.5,0.1c0.1,0,0.2,0.1,0.3,0.1c0.2,0,0.3,0.1,0.5,0.1c0.1,0,0.2,0.1,0.3,0.1
	c0.2,0,0.3,0.1,0.5,0.1c0.1,0,0.2,0.1,0.3,0.1c0.2,0,0.3,0.1,0.5,0.1c0.1,0,0.2,0,0.3,0.1c0.2,0,0.3,0.1,0.4,0.1
	c0.1,0,0.2,0,0.3,0.1c0.1,0,0.3,0,0.4,0.1c0.1,0,0.2,0,0.3,0c0.1,0,0.3,0,0.4,0c0.1,0,0.2,0,0.3,0c0.1,0,0.3,0,0.4,0
	c0.1,0,0.2,0,0.3,0c0.1,0,0.3,0,0.4,0c0.1,0,0.2,0,0.3,0c0.1,0,0.3,0,0.4,0c0.1,0,0.2,0,0.3,0c0.1,0,0.2,0,0.4,0c0.1,0,0.2,0,0.3,0
	c0.1,0,0.2,0,0.3,0c0.1,0,0.2,0,0.3,0c0.1,0,0.2,0,0.3,0c0.1,0,0.2,0,0.3,0c0.1,0,0.2,0,0.3,0c0.1,0,0.2,0,0.3,0c0.1,0,0.2,0,0.3,0
	c0.1,0,0.2,0,0.3,0c0.1,0,0.2,0,0.3,0c0.1,0,0.2,0,0.3,0c0.1,0,0.2,0,0.2,0c0.1,0,0.2,0,0.3,0c0.1,0,0.1,0,0.2,0c0.1,0,0.2,0,0.3,0
	c0.1,0,0.1,0,0.2,0c0.1,0,0.2,0,0.3,0c0,0,0.1,0,0.1,0c1.1-0.3,1.5-0.4,2.3-0.7c2.2-0.7,4-2.2,4-4.2c0,0-4.4-0.1-6.4-0.4
	c-2.1-0.4-4.8-1.3-7.3-3c-0.2-0.1-0.1-0.2,0.2-0.1c2.7,1,5.9,1.7,9.2,1.8v0c0,0,1.7,0,2.8,0c1.7-0.1,3.5-0.3,4.2-0.7
	c2.6-1.5,4.1-3,3.8-4.8c0-0.2-0.1-0.3-0.1-0.5c0.3-0.3,0.6-0.7,0.9-1c3.2-1.3,5.2-3.6,4.8-5.7c0-0.1-0.1-0.2-0.1-0.3
	c0.1-0.2,0.2-0.3,0.4-0.5c3.6-1.5,6-4.1,5.3-6.3c-0.1-0.2-0.2-0.4-0.3-0.6c3.4-1.7,5.4-4.4,4.6-6.5c-0.2-0.4-0.4-0.8-0.8-1.1
	c0.6-1.1,1.2-2.3,1.7-3.5c1.8-3.7,2.5-7.9-2.4-4.7c-6.6,5.4-13.2,9.4-19.6,12.7l-5.2,2.5c-22,10.1-41.4,13.4-51.2,37.8
	c-0.2-1.7-0.9-6.2-1.5-9.2c-0.2,0.8-1.1,1.8-1.7,2.3l0.7,8.4c0,0,0,0.2-0.1,0.4l-4.6,4.1c0,0-0.2,0.1-0.1-0.1L91,48.8
	c0,0,0-0.2-0.1-0.1c-0.9,0.6-2,1.1-3.2,1.4c-0.1,0-0.1,0-0.1-0.1c3.6-4.1-0.7-6.1,2.3-10.2c-1.6-2.7-4.5-1.7-5.1-1.4
	c-0.1,0.1-0.1-0.1-0.1-0.1v-2.7c0,0,0-0.1,0.1-0.2c2.8-0.6,6.8,0,8.5,3.9c1.2-0.1,2.9,0.5,3,2.3c0.5-1.7,0.3-3.5-0.1-4
	c1.5-1.7,1.5-4.2,0.8-5.9c-0.2,0.6-0.5,1.3-1,1.8c-0.1,0.1-0.3,0.3-0.4,0.4c0,0-0.1,0.1-0.1,0.1c-0.1,0.1-0.2,0.2-0.3,0.2
	c-0.1,0-0.1,0.1-0.2,0.1c-0.1,0.1-0.2,0.1-0.3,0.2c-0.1,0-0.1,0-0.2,0.1c-0.1,0-0.2,0.1-0.3,0.1c-0.1,0-0.1,0-0.2,0.1
	c-0.1,0-0.2,0.1-0.3,0.1c-0.1,0-0.1,0-0.2,0c-0.1,0-0.2,0-0.3,0c-0.1,0-0.2,0-0.2,0c-0.1,0-0.2,0-0.3,0c-0.1,0-0.2,0-0.2,0
	c-0.1,0-0.2,0-0.3,0c0,0,0,0,0,0c0,0,0,0,0,0c-0.1,0-0.1-0.1-0.1-0.1c0.1,0,0.2-0.1,0.3-0.1c0.1,0,0.1-0.1,0.2-0.1
	c0.1,0,0.2-0.1,0.2-0.1c0.1,0,0.1-0.1,0.2-0.1c0.1-0.1,0.2-0.1,0.3-0.2c0,0,0.1-0.1,0.1-0.1c0.1-0.1,0.2-0.2,0.4-0.3
	c0.9-1,1.3-2.3,1.1-3.6c-0.9-0.2-2-0.9-2.6-2c-3.5-4.1-13.2-1.4-13.6,3.3c-3.7,2.6-2.3,7.1-0.2,8.6c0.4,2.3,1.6,5.7,4.9,10
	c0.6,1.6-0.8,3.9-2.4,5.9c0,0.1-0.2,0.2-0.2-0.1c-10.6-28-33.3-29.2-58.3-42.4L17,10.6C12.6,8,8.3,5.1,3.9,1.5
	C-1-1.7-0.6,2.7,1.4,6.2C2.2,7.6,3,8.9,3.9,10.2c-0.1,0.2-0.2,0.3-0.2,0.5c-0.7,2.1,1.3,4.8,4.7,6.5c-0.1,0.2-0.2,0.4-0.3,0.6
	c-0.7,2.3,1.9,5.1,5.8,6.5c-0.1,0.2-0.2,0.4-0.2,0.6c-0.4,1.7,1,3.6,3.3,4.9c0,0-0.3,0.2,0,1.5c0.3,1.3,2.4,3.5,4.7,4.9l0.5,0.3
	c1.2,0.7,2.7,1.2,4.3,1.5c-0.3,0.4-0.4,0.8-0.5,1.3c-0.3,2.5,3.2,5,7.7,5.4c0.3,0,0.6,0,0.9,0.1c0.1,0.1,0.2,0.2,0.3,0.2
	c-0.3,0.4-0.4,0.9-0.5,1.4c-0.1,2.5,3.5,4.8,8.1,5c0.1,0,0.3,0,0.4,0c0.3,0.2,0.6,0.5,0.9,0.7c-0.3,0.5-0.4,0.9-0.4,1.4
	c0,2.6,3.8,4.6,8.4,4.5c0.1,0,0.2,0,0.2,0c0.6,0.4,1.1,0.8,1.6,1.1c-0.2,0.5-0.4,1-0.3,1.5c0.2,2.5,3.8,4.2,8.1,4.1
	c1-4.4,3.9-12.2,18.5-8.7c0.2,0,0.2,0.1,0,0.1c-12.6,0.4-14.8,3.3-17.8,8.6c0,0,0,0,0,0c-6.8,12.6-9.3,9.4-13.1,13.5
	C45,82.4,42.8,86,37.6,88.4c-4.4-1.7-7.1,2.6-10.4,1.7c-0.3,2.1,3,1.9,4.2,1.9c1.2,0,0.7,0.9-0.3,2.8c-2.1,3.3-4.5,7-0.9,4.2
	c1.4-1.2,5.3-0.6,6.5-0.6c1.7,1,3.4-0.5,5.5-5c1.6-2.4,9.4-3.3,17.4-9.8c0,0,0,0,0,0C69.1,71.1,83.2,62.2,99.2,59
	c0.2,0,0.5,0.1,0,0.2C83.1,63.5,70.5,72.8,62.3,86c2.8,1.6,6.6,2,10.1,1.7c-14.6,31,1.5,13.7-7,31.9H71
	C72.4,106.8,74.2,96.6,75.3,91z M74.8,52.4c-0.8-0.1-1.4-0.2-2.6-0.2c0,0-0.2,0-0.2-0.2c-3.9-10.3-11.1-16.3-20-21.6
	c-0.4-0.2-0.5-0.5,0.1-0.2c9.7,5.2,17.6,11.2,22.8,22C75,52.3,75,52.4,74.8,52.4z M36.6,92.2c0,0-0.2,0-0.2,0
	c-0.4-0.3-0.8-0.6-1.3-0.8c-0.5-0.2-1.1-0.3-1.6-0.2c-0.1,0-0.1-0.1,0-0.1c1-0.8,2.4-1.1,3.7-0.6c0.3,0.1,0.6,0.3,0.8,0.4
	c0,0,0,0.1,0,0.1L36.6,92.2z M57.9,79c-2.3,2.6-7.6,5.3-9.3,6.2c-0.4,0.2-0.3,0-0.2-0.1c3.7-4.3,6.7-6.6,6.7-6.6
	C56.8,77.1,59,77.7,57.9,79z M77.2,60.2l-0.9,3.5c0,0-0.1,0-0.2,0c-2.5-2.1-5.5-2-6.4-1.9c-0.2,0-0.1-0.1-0.1-0.1
	c2.9-2,6.5-1.8,7.3-1.7C77.3,60.1,77.2,60.2,77.2,60.2z M80.7,37.2c-0.1,0.6-0.1,1.1,0,1.7c0,0.1-0.1,0.1-0.1,0
	c-0.9-0.9-1.3-2.2-1.1-3.5c0.3-1.7,1.7-2.8,3.2-3.1c0.4-0.1,0.9-0.1,1.1-0.1c1.9,0.1,3.6-0.8,4.3-2.6c0.2-0.5,0.2-1.1,0.2-1.6
	c0-0.1,0.1-0.1,0.1-0.1c0.7,1,1,2.3,0.6,3.6c-0.5,1.6-2,2.6-3.6,2.6c-0.1,0-0.6,0-0.7,0C82.5,33.9,81.1,35.3,80.7,37.2z M85.3,43.7
	h-1.6c0,0-0.1,0-0.1-0.2v-3.8c0-0.3,0.1-0.1,0.1,0l1.6,3.8C85.4,43.7,85.4,43.7,85.3,43.7z M86.3,117.3c-2.3-10.4-3.2-21.7-3.5-28.6
	c-0.2-3.9,0-4.1,0.4-0.3c0.7,5.5,2,14.1,4.5,23.5C87.3,113.6,86.8,115.4,86.3,117.3z M81.7,81.2c-0.1,0.3-0.3,0.3-0.3,0.3l-2.1-0.3
	c0,0-0.3,0-0.2-0.3c4.1-9.3,11.7-16.2,20.8-20.1c0.3-0.2,0.6-0.1,0.1,0.1C91.4,65.2,84.9,72.3,81.7,81.2z M130.9,83.4h-3.5v-1.9
	l-3.4,0V81c0-1.1-0.8-1.3-1.2-0.8c0.1,0.2,0.2,0.4,0.2,0.8v3.9c0,1-1.9,1.2-1.9-0.1l0.3-3.3h-0.4V81c0-1.1-0.8-1.3-1.2-0.8
	c0.1,0.2,0.2,0.4,0.2,0.8v3.9c0,1-1.9,1.2-1.9-0.1l0.3-3.3l-1.6,0c0,0,0,0.1,0,0.2v2.9c0,0.8-1.5,1-1.5-0.1l0.3-2.8
	c0-0.1,0-0.1,0-0.2l-3.4,0v1.8h-3.5v-1.9h0.6h0v-8.4h21v8.3h0.8V83.4z M128.4,68.6l2.4,1.7h-19.9l-2.5-1.7H128.4z M96.9,55.3
	c-0.3,0-0.4-0.1-0.1-0.2c0.9-0.2,1.7-0.4,2.4-0.5c7.3-17.1,20-22.7,36-29.7c5.8-2.5,12-5.2,18.4-8.7c0.9-0.5,1-0.3,0.1,0.3
	c-5.5,3.5-11,6.3-16.3,8.4c-16.1,6.5-28.9,14.2-33.5,29.8c5.7,1.5,7,5.6,12.2,11h-12.3c0,0-0.3,0-0.2,0.2c1.3,5-4.1,9.1-8.5,8.3
	C95,74.2,95,74,95,74c0.9-5.1,6.3-11.4,8.2-13.4c-0.8-0.3-1.3-1-1.3-1.9c0-1,0.7-1.8,1.7-2C102.2,55.5,99,55.3,96.9,55.3z
	 M71.5,79.7c0,0-0.2-0.1-0.1-0.2c6.8-9.4,16.7-16.3,28.1-19.6c0.4-0.1,0.5,0,0.1,0.2C88.7,63.9,80,70.8,74.3,79.9
	c-0.2,0.3-0.4,0.2-0.4,0.2L71.5,79.7z"/>
</svg>
