<?xml version="1.0" encoding="utf-8"?>
<!-- Generator: Adobe Illustrator 18.0.0, SVG Export Plug-In . SVG Version: 6.00 Build 0)  -->
<!DOCTYPE svg PUBLIC "-//W3C//DTD SVG 1.1//EN" "http://www.w3.org/Graphics/SVG/1.1/DTD/svg11.dtd">
<svg version="1.1" id="Layer_1" xmlns="http://www.w3.org/2000/svg" xmlns:xlink="http://www.w3.org/1999/xlink" x="0px" y="0px"
	 viewBox="0 0 86.3 68.9" enable-background="new 0 0 86.3 68.9" xml:space="preserve">
<g>
	<path fill="#010101" d="M78.6,0.7c-1-1-2.5-1-3.4,0L38.9,36.9c-1,1-2.5,1-3.4,0L19.5,20.7c-0.5-0.5-1.1-0.7-1.7-0.7
		c-0.6,0-1.3,0.2-1.7,0.7l-7,6.3c-0.5,0.5-0.7,1.1-0.7,1.7c0,0.6,0.3,1.3,0.7,1.8l16,16.8c0.9,1,2.5,2.5,3.4,3.5l6.9,7
		c0.9,1,2.5,1,3.4,0l46.6-46.6c1-1,1-2.5,0-3.5L78.6,0.7z"/>
</g>
<g>
	<polygon fill="#2C2F30" points="63.5,68.9 0,68.9 0,5.4 60.8,5.4 60.8,10.9 5.4,10.9 5.4,63.5 58.1,63.5 58.1,44.9 63.5,44.9 	"/>
</g>
</svg>
