<?xml version="1.0" encoding="utf-8"?>
<!-- Generator: Adobe Illustrator 18.0.0, SVG Export Plug-In . SVG Version: 6.00 Build 0)  -->
<!DOCTYPE svg PUBLIC "-//W3C//DTD SVG 1.1//EN" "http://www.w3.org/Graphics/SVG/1.1/DTD/svg11.dtd">
<svg version="1.1" id="Layer_1" xmlns="http://www.w3.org/2000/svg" xmlns:xlink="http://www.w3.org/1999/xlink" x="0px" y="0px"
	 viewBox="-3 -3 580 580" enable-background="new -3 -3 580 580" xml:space="preserve">
<g>
	<path fill="#2C2F30" d="M461.5,99.9c-7.3-4.5-16.4-3.6-20.9,3.6L255.3,363.4c-4.5,7.3-14.5,8.2-20.9,3.6l-114.5-82.7
		c-3.6-2.7-7.3-3.6-10.9-2.7c-3.6,0.9-7.3,2.7-10,6.4l-36.3,46.3c-2.7,3.6-3.6,7.3-2.7,10.9s2.7,7.3,6.4,10l115.4,86.3
		c7.3,4.5,18.2,12.7,24.5,17.3l50,35.4c6.4,4.5,16.4,3.6,20.9-3.6l237.1-334.3c4.5-7.3,3.6-16.4-3.6-20.9L461.5,99.9z"/>
</g>
<g>
	<path fill="#2C2F30" d="M515.6,48c5.7,0,10.4,4.7,10.4,10.4v457.2c0,5.7-4.7,10.4-10.4,10.4H58.4c-5.7,0-10.4-4.7-10.4-10.4V58.4
		C48,52.7,52.7,48,58.4,48H515.6 M515.6-3H58.4C24.5-3-3,24.5-3,58.4v457.2c0,33.9,27.5,61.4,61.4,61.4h457.2
		c33.9,0,61.4-27.5,61.4-61.4V58.4C577,24.5,549.5-3,515.6-3L515.6-3z"/>
</g>
</svg>
