<?xml version="1.0" encoding="utf-8"?>
<!-- Generator: Adobe Illustrator 18.0.0, SVG Export Plug-In . SVG Version: 6.00 Build 0)  -->
<!DOCTYPE svg PUBLIC "-//W3C//DTD SVG 1.1//EN" "http://www.w3.org/Graphics/SVG/1.1/DTD/svg11.dtd">
<svg version="1.1" id="Layer_1" xmlns="http://www.w3.org/2000/svg" xmlns:xlink="http://www.w3.org/1999/xlink" x="0px" y="0px"
	 viewBox="0 0 63.4 63.4" enable-background="new 0 0 63.4 63.4" xml:space="preserve">
<path fill="#2C2F30" d="M58.4,5v53.4H5V5H58.4 M63.4,0h-5H5H0v5v53.4v5h5h53.4h5v-5V5V0L63.4,0z"/>
<g>
	<path fill="#010101" d="M50.8,11c-0.8-0.5-1.8-0.4-2.3,0.4L28.1,40c-0.5,0.8-1.6,0.9-2.3,0.4l-12.6-9.1c-0.4-0.3-0.8-0.4-1.2-0.3
		c-0.4,0.1-0.8,0.3-1.1,0.7l-4,5.1c-0.3,0.4-0.4,0.8-0.3,1.2c0.1,0.4,0.3,0.8,0.7,1.1L20,48.6c0.8,0.5,2,1.4,2.7,1.9l5.5,3.9
		c0.7,0.5,1.8,0.4,2.3-0.4l26.1-36.8c0.5-0.8,0.4-1.8-0.4-2.3L50.8,11z"/>
</g>
</svg>
