<?xml version="1.0" encoding="utf-8"?>
<!-- Generator: Adobe Illustrator 19.2.1, SVG Export Plug-In . SVG Version: 6.00 Build 0)  -->
<svg version="1.1" id="Layer_1" xmlns="http://www.w3.org/2000/svg" xmlns:xlink="http://www.w3.org/1999/xlink" x="0px" y="0px"
	 viewBox="0 0 400 400" style="enable-background:new 0 0 400 400;" xml:space="preserve">
<g>
	<path d="M21.1,64.1c1.5,0,2.8,0.1,4.3,0.1c71.9,0,143.8,0,215.7,0c1.3,0,2.6,0,4.7,0c-2.8,3.1-5,5.5-7.1,7.8
		c-10.3,11-20.6,22-30.8,33.1c-1.4,1.5-2.8,1.9-4.7,1.9c-45.4-0.1-90.8-0.1-136.3-0.1c-1.2,0-2.4,0-3.9,0c0,76.8,0,153.3,0,230.2
		c0.9,0.1,1.9,0.2,2.9,0.2c73.8,0,147.6,0,221.5,0.1c2.7,0,3.3-0.8,3.3-3.4c-0.1-45.2-0.1-90.4-0.1-135.6c0-2.4,0.5-4.2,2.4-6.1
		c13.2-13,26.1-26.1,39.2-39.3c0.2-0.2,0.6-0.4,1.5-0.9c0,1.6,0,2.8,0,4.1c0,73.9,0,147.7,0,221.6c0,1.3,0.1,2.7,0.1,4.1
		c-104.2,0-208.4,0-312.6,0C21.1,275.9,21.1,170,21.1,64.1z"/>
	<path d="M378.9,54.2c-1.7,10.5-8,18.1-15.4,25c-5.6,5.3-10.9,11-16.2,16.4c-14.8-15.2-29.6-30.1-44.7-45.6c3-2.9,6.3-6.2,9.6-9.5
		c3.9-3.9,7.8-7.7,11.5-11.7c5.4-5.8,12.2-8.9,19.7-10.7c2.5,0,4.9,0,7.4,0c0.5,0.2,1,0.3,1.6,0.5c10.4,2.2,18.4,7.8,23,17.7
		c1.5,3.3,2.3,6.9,3.4,10.3C378.9,49.2,378.9,51.7,378.9,54.2z"/>
	<path d="M192.5,251.5c-14.3-14.2-29.2-29-44.2-43.9c46.3-46.9,92.4-93.6,138.5-140.1c14.3,14.6,29,29.6,43.6,44.4
		C284.6,158.1,238.7,204.7,192.5,251.5z"/>
	<path d="M178.9,266.2c-25.6,11-50.5,21.7-76.1,32.6c10.7-25.8,21.1-51,31.8-76.7C149.4,236.9,164,251.4,178.9,266.2z"/>
</g>
</svg>
