<?xml version="1.0" encoding="utf-8"?>
<!-- Generator: Adobe Illustrator 18.0.0, SVG Export Plug-In . SVG Version: 6.00 Build 0)  -->
<!DOCTYPE svg PUBLIC "-//W3C//DTD SVG 1.1//EN" "http://www.w3.org/Graphics/SVG/1.1/DTD/svg11.dtd">
<svg version="1.1" id="Layer_1" xmlns="http://www.w3.org/2000/svg" xmlns:xlink="http://www.w3.org/1999/xlink" x="0px" y="0px"
	 viewBox="0 -4 580 580" enable-background="new 0 -4 580 580" xml:space="preserve">
<g>
	<path fill="#2C2F30" d="M518.6,47c5.7,0,10.4,4.7,10.4,10.4v457.2c0,5.7-4.7,10.4-10.4,10.4H61.4c-5.7,0-10.4-4.7-10.4-10.4V57.4
		C51,51.7,55.7,47,61.4,47H518.6 M518.6-4H61.4C27.5-4,0,23.5,0,57.4v457.2C0,548.5,27.5,576,61.4,576h457.2
		c33.9,0,61.4-27.5,61.4-61.4V57.4C580,23.5,552.5-4,518.6-4L518.6-4z"/>
</g>
</svg>
