<?xml version="1.0" encoding="utf-8"?>
<!-- Generator: Adobe Illustrator 19.2.1, SVG Export Plug-In . SVG Version: 6.00 Build 0)  -->
<svg version="1.1" id="Layer_1" xmlns="http://www.w3.org/2000/svg" xmlns:xlink="http://www.w3.org/1999/xlink" x="0px" y="0px"
	 viewBox="0 0 580 580" style="enable-background:new 0 0 580 580;" xml:space="preserve">
<style type="text/css">
	.st0{fill:#616161;}
</style>
<g>
	<path class="st0" d="M518.6,51c5.7,0,10.4,4.7,10.4,10.4v457.2c0,5.7-4.7,10.4-10.4,10.4H61.4c-5.7,0-10.4-4.7-10.4-10.4V61.4
		C51,55.7,55.7,51,61.4,51H518.6 M518.6,0H61.4C27.5,0,0,27.5,0,61.4v457.2C0,552.5,27.5,580,61.4,580h457.2
		c33.9,0,61.4-27.5,61.4-61.4V61.4C580,27.5,552.5,0,518.6,0L518.6,0z"/>
</g>
</svg>
