<?xml version="1.0" encoding="utf-8"?>
<!-- Generator: Adobe Illustrator 18.0.0, SVG Export Plug-In . SVG Version: 6.00 Build 0)  -->
<!DOCTYPE svg PUBLIC "-//W3C//DTD SVG 1.1//EN" "http://www.w3.org/Graphics/SVG/1.1/DTD/svg11.dtd">
<svg version="1.1" id="Layer_1" xmlns="http://www.w3.org/2000/svg" xmlns:xlink="http://www.w3.org/1999/xlink" x="0px" y="0px"
	 viewBox="24 -258.8 299.2 299.2" enable-background="new 24 -258.8 299.2 299.2" xml:space="preserve">
<path fill="#FFFFFF" d="M323.2-109.6c0,16.2-13.5,30.1-29.7,30.1h-90.1v90.1c0,16.2-13.5,29.7-29.7,29.7
	c-16.2,0-29.7-13.5-29.7-29.7v-90.1H53.7C37.5-79.5,24-93,24-109.2c0-16.2,13.5-29.7,29.7-29.7h90.2v-90.2c0-8.3,2.4-15.9,7.9-21
	c5.5-5.2,13.1-8.7,21.4-8.7c16.2,0,30.1,13.5,30.1,29.7v90.2h90.1c8.3,0,15.9,2.4,21,7.9C319.6-125.5,323.2-117.9,323.2-109.6z"/>
</svg>
