<?xml version="1.0" encoding="utf-8"?>
<!-- Generator: Adobe Illustrator 18.0.0, SVG Export Plug-In . SVG Version: 6.00 Build 0)  -->
<!DOCTYPE svg PUBLIC "-//W3C//DTD SVG 1.1//EN" "http://www.w3.org/Graphics/SVG/1.1/DTD/svg11.dtd">
<svg version="1.1" id="Layer_1" xmlns="http://www.w3.org/2000/svg" xmlns:xlink="http://www.w3.org/1999/xlink" x="0px" y="0px"
	 viewBox="0 0 182.1 162.2" enable-background="new 0 0 182.1 162.2" xml:space="preserve">
<path fill="#2B2E30" d="M17.6,16.8c0,0.8-0.2,1.7-0.6,2.4c-0.3,0.7-0.9,1.3-1.5,1.8c-0.7,0.5-1.4,0.9-2.2,1.1
	c-0.9,0.3-1.8,0.4-2.7,0.4H0V0.1h11.6c0.7,0,1.5,0.2,2.1,0.5c0.6,0.3,1.2,0.8,1.6,1.3c0.4,0.6,0.8,1.2,1,1.8
	c0.2,0.7,0.4,1.4,0.4,2.1c0,1.1-0.3,2.1-0.8,3.1c-0.5,1-1.4,1.8-2.4,2.2c1.2,0.3,2.3,1.1,3,2.1C17.2,14.2,17.6,15.5,17.6,16.8z
	 M3.5,3.2v6.6H10c0.4,0,0.9-0.1,1.3-0.3c0.4-0.2,0.7-0.4,1-0.7c0.3-0.3,0.5-0.6,0.7-1c0.2-0.4,0.2-0.9,0.2-1.3
	c0-0.9-0.3-1.7-0.8-2.4c-0.5-0.6-1.3-1-2.1-0.9L3.5,3.2L3.5,3.2z M14,16.1c0-0.4-0.1-0.9-0.2-1.3s-0.3-0.8-0.6-1.1
	c-0.3-0.3-0.6-0.6-1-0.8c-0.4-0.2-0.8-0.3-1.3-0.3H3.5v6.9h7.2c0.4,0,0.9-0.1,1.3-0.3c0.4-0.2,0.8-0.4,1-0.7
	c0.3-0.3,0.5-0.7,0.7-1.1C13.9,17.1,14,16.6,14,16.1z"/>
<path fill="#2B2E30" d="M28,0.1h3.1L40,22.5h-3.7l-2.4-6.1h-8.7l-2.3,6.1h-3.8L28,0.1z M33.2,13.8l-3.5-9.6l-3.8,9.6L33.2,13.8
	L33.2,13.8z"/>
<path fill="#2B2E30" d="M42.9,22.5V0.1h3.5v19.3h12.1v3.2L42.9,22.5L42.9,22.5z"/>
<path fill="#2B2E30" d="M61.9,22.5V0.1h3.5v19.3h12.1v3.2L61.9,22.5L61.9,22.5z"/>
<path fill="#2B2E30" d="M101.7,5.4c-0.3-0.3-0.6-0.5-0.9-0.8c-0.4-0.3-0.9-0.6-1.4-0.8c-0.6-0.2-1.2-0.4-1.8-0.6
	c-0.6-0.1-1.3-0.2-2-0.2c-1.2-0.1-2.3,0.2-3.3,0.8c-0.7,0.6-1.1,1.4-1.1,2.3c0,0.5,0.1,0.9,0.3,1.3c0.3,0.4,0.6,0.7,1,0.9
	c0.6,0.3,1.1,0.5,1.7,0.7c0.7,0.2,1.5,0.4,2.4,0.6c1,0.3,2.1,0.6,3.1,0.9c0.8,0.3,1.6,0.7,2.3,1.3c0.6,0.5,1.1,1.1,1.5,1.8
	c0.3,0.8,0.6,1.7,0.5,2.5c0,1-0.2,2-0.6,2.9c-0.4,0.8-1,1.5-1.8,2c-0.8,0.6-1.7,1-2.6,1.2c-1,0.3-2.1,0.4-3.2,0.4
	c-1.7,0-3.3-0.3-5-0.8c-1.6-0.5-3-1.3-4.3-2.3l1.6-3c0.4,0.3,0.8,0.7,1.2,0.9c0.6,0.4,1.2,0.7,1.8,0.9c0.7,0.3,1.5,0.6,2.2,0.7
	c0.8,0.2,1.7,0.3,2.5,0.3c1.1,0.1,2.2-0.2,3.2-0.7c0.8-0.5,1.2-1.3,1.1-2.1c0-0.5-0.1-1-0.4-1.4c-0.3-0.4-0.8-0.8-1.3-1
	c-0.6-0.3-1.2-0.6-1.9-0.8c-0.8-0.2-1.6-0.5-2.6-0.7c-1-0.3-2-0.6-2.9-0.9c-0.8-0.3-1.4-0.7-2.1-1.2c-0.6-0.4-1-1-1.3-1.6
	c-0.3-0.7-0.5-1.5-0.4-2.3c0-1,0.2-2,0.6-2.9c0.4-0.8,1-1.6,1.7-2.1c0.8-0.6,1.6-1,2.5-1.3c1-0.3,2.1-0.5,3.2-0.4
	c1.4,0,2.8,0.2,4.2,0.7c1.2,0.4,2.3,1,3.4,1.8L101.7,5.4z"/>
<path fill="#2B2E30" d="M123.8,3.2h-7.4v19.3h-3.6V3.2h-7.5V0.1h18.5L123.8,3.2L123.8,3.2z"/>
<path fill="#2B2E30" d="M132.9,0.1h3.1l8.8,22.4H141l-2.4-6.1h-8.6l-2.3,6.1h-3.8L132.9,0.1z M138,13.8l-3.5-9.6l-3.8,9.6L138,13.8
	L138,13.8z"/>
<path fill="#2B2E30" d="M164.2,3.2h-7.4v19.3h-3.6V3.2h-7.5V0.1h18.5L164.2,3.2L164.2,3.2z"/>
<path fill="#2B2E30" d="M182.1,19.4v3.1h-15.4V0.1h15.2v3.1h-11.6v6.3h10v3h-10v6.9H182.1L182.1,19.4z"/>
<path fill="#2B2E30" d="M0,75.6V35.2h6.3v34.7H28v5.6L0,75.6L0,75.6z"/>
<path fill="#2B2E30" d="M35.1,75.6V35.2h6.3v40.4H35.1z"/>
<path fill="#2B2E30" d="M54.3,35.3l12.2,32.3l12.1-32.3h6.8L69.2,75.7h-5.4L47.6,35.3L54.3,35.3L54.3,35.3z"/>
<path fill="#2B2E30" d="M91.3,75.6V35.2h6.3v40.4H91.3z"/>
<path fill="#2B2E30" d="M111.7,47.2v28.4h-6.3V35.2h5l23.1,29.1V35.2h6.4v40.3h-5.3L111.7,47.2z"/>
<path fill="#2B2E30" d="M176.9,70.6c-3,3.3-7.3,5.3-11.8,5.3c-2.6,0-5.2-0.5-7.6-1.7c-2.3-1.1-4.3-2.6-6-4.5c-1.7-1.9-3.1-4.2-4-6.6
	c-1-2.5-1.4-5.2-1.4-7.8s0.5-5.3,1.4-7.8c0.9-2.4,2.3-4.6,4-6.5c1.7-1.9,3.8-3.4,6.1-4.4c5.6-2.4,12-2.1,17.4,0.8
	c2.5,1.5,4.6,3.7,5.9,6.4l-4.9,3.5c-1-2.1-2.6-3.8-4.5-5c-1.9-1.1-4.1-1.7-6.3-1.7c-1.8,0-3.6,0.4-5.2,1.3c-1.5,0.8-2.9,1.9-4,3.2
	c-1.1,1.4-2,3-2.5,4.7c-0.6,1.8-0.9,3.7-0.9,5.6c0,2,0.3,3.9,1,5.7c0.6,1.7,1.5,3.3,2.7,4.7c1.2,1.3,2.5,2.4,4.1,3.2
	c1.6,0.8,3.4,1.2,5.2,1.2c2.1,0,4.1-0.5,5.9-1.4c2.1-1.1,3.9-2.7,5.4-4.5v-4.3h-8.5v-4.7h13.8v20.4h-5.2V70.6L176.9,70.6z"/>
<path fill="#2B2E30" d="M0,128.7V88.3H17c1.7,0,3.5,0.4,5,1.1c1.5,0.7,2.8,1.7,4,3c1.1,1.2,1.9,2.7,2.5,4.2c0.6,1.5,0.9,3.2,0.9,4.8
	c0,1.7-0.3,3.3-0.9,4.9c-0.6,1.5-1.4,3-2.5,4.2c-1,1.2-2.3,2.2-3.8,3c-1.6,0.8-3.2,1.1-5,1.1H6.3v14.1L0,128.7L0,128.7z M6.3,109
	h10.5c0.9,0,1.7-0.2,2.5-0.6c0.8-0.4,1.4-0.9,1.9-1.6c0.6-0.7,1-1.5,1.3-2.4c0.3-1,0.5-2,0.5-3c0-1-0.1-2.1-0.5-3.1
	c-0.3-0.9-0.8-1.7-1.4-2.4c-0.6-0.6-1.3-1.2-2.1-1.5c-0.8-0.3-1.6-0.6-2.4-0.6H6.5V109L6.3,109z"/>
<path fill="#2B2E30" d="M34,128.7V88.3h6.3V123H62v5.6L34,128.7L34,128.7L34,128.7z"/>
<path fill="#2B2E30" d="M82.6,88.3h5.6l15.9,40.4h-6.7l-4.3-11H77.5l-4.2,11h-6.8L82.6,88.3z M91.9,113l-6.5-17.4L78.6,113H91.9
	L91.9,113z"/>
<path fill="#2B2E30" d="M114.5,100.2v28.4h-6.3V88.3h5l23.1,29.1V88.3h6.4v40.3h-5.3L114.5,100.2z"/>
<path fill="#2B2E30" d="M182.1,94h-13.4v34.7h-6.4V94h-13.5v-5.6h33.3V94z"/>
<path fill="#2B2E30" d="M0,151.6c0-1.3,0.2-2.5,0.7-3.7c0.4-1.2,1.1-2.3,2-3.3c0.9-1,2-1.8,3.2-2.4c1.3-0.6,2.8-0.9,4.2-0.9
	c1.7-0.1,3.4,0.4,4.8,1.3c1.3,0.8,2.3,1.9,3,3.3l-2.5,1.7c-0.3-0.6-0.6-1.1-1-1.6c-0.4-0.4-0.8-0.8-1.3-1c-0.5-0.3-1-0.4-1.5-0.6
	c-0.5-0.1-1-0.2-1.5-0.2c-1,0-2,0.2-2.8,0.7c-0.8,0.4-1.5,1-2.1,1.7c-0.6,0.7-1,1.5-1.3,2.4c-0.3,0.9-0.4,1.8-0.4,2.7
	c0,1,0.2,2,0.5,2.9c0.3,0.9,0.8,1.7,1.4,2.4c0.6,0.7,1.3,1.2,2.1,1.7c0.8,0.4,1.7,0.6,2.7,0.6c0.5,0,1-0.1,1.6-0.2
	c0.6-0.1,1.1-0.3,1.5-0.6c0.5-0.3,1-0.6,1.4-1.1c0.4-0.4,0.8-1,1-1.5l2.7,1.5c-0.3,0.8-0.8,1.4-1.4,2.1c-0.6,0.6-1.3,1.1-2,1.5
	c-0.8,0.4-1.6,0.7-2.4,0.9c-0.8,0.2-1.7,0.3-2.5,0.3c-1.4,0-2.8-0.3-4-0.9c-1.2-0.6-2.2-1.4-3.1-2.4c-0.9-1-1.6-2.1-2-3.4
	C0.2,154.2,0,152.9,0,151.6z"/>
<path fill="#2B2E30" d="M30.4,162.2c-1.4,0-2.8-0.3-4-0.9c-1.2-0.6-2.2-1.4-3.1-2.4c-0.9-1-1.6-2.1-2-3.4s-0.7-2.5-0.7-3.9
	c0-1.4,0.3-2.7,0.8-4c0.5-1.2,1.2-2.4,2.1-3.4c0.9-1,1.9-1.8,3.1-2.3c1.2-0.6,2.6-0.9,4-0.9c1.4,0,2.8,0.3,4,0.9
	c1.2,0.6,2.2,1.4,3.1,2.4c0.9,1,1.5,2.1,2,3.4c1,2.5,1,5.3,0,7.8c-0.5,1.2-1.2,2.3-2.1,3.3c-0.9,1-2,1.7-3.2,2.3
	C33.2,161.9,31.8,162.2,30.4,162.2z M23.9,151.7c0,1,0.1,1.9,0.5,2.8c0.3,0.9,0.7,1.7,1.3,2.4c0.6,0.7,1.3,1.3,2.1,1.7
	c0.8,0.4,1.8,0.6,2.7,0.6c1,0,1.9-0.2,2.8-0.7c0.8-0.4,1.5-1,2.1-1.7c0.6-0.7,1-1.5,1.3-2.4s0.4-1.8,0.4-2.7c0-1-0.1-1.9-0.5-2.8
	c-0.3-0.9-0.7-1.7-1.3-2.4c-0.6-0.7-1.3-1.2-2.1-1.7c-0.8-0.4-1.8-0.6-2.7-0.6c-1,0-1.9,0.2-2.8,0.7c-0.8,0.4-1.5,1-2.1,1.7
	c-0.6,0.7-1,1.5-1.3,2.4C24,149.9,23.9,150.8,23.9,151.7z"/>
<path fill="#2B2E30" d="M43.2,162v-20.6h3.3v17.8h11.1v2.9H43.2L43.2,162z"/>
<path fill="#2B2E30" d="M61.2,162v-20.6h3.3v17.8h11.1v2.9H61.2L61.2,162z"/>
<path fill="#2B2E30" d="M93.2,159.2v2.9H79.1v-20.7H93v2.9H82.3v5.9h9.2v2.7h-9.2v6.3L93.2,159.2L93.2,159.2z"/>
<path fill="#2B2E30" d="M95.5,151.6c0-1.3,0.2-2.5,0.7-3.7c0.4-1.2,1.1-2.3,2-3.3c0.9-1,2-1.8,3.2-2.4c1.3-0.6,2.8-0.9,4.2-0.9
	c1.7-0.1,3.4,0.4,4.8,1.3c1.3,0.8,2.3,1.9,3,3.3l-2.5,1.7c-0.3-0.6-0.6-1.1-1-1.6c-0.4-0.4-0.8-0.8-1.3-1c-0.5-0.3-1-0.4-1.5-0.6
	c-0.5-0.1-1-0.2-1.5-0.2c-1,0-2,0.2-2.8,0.7c-0.8,0.4-1.5,1-2.1,1.7s-1,1.5-1.3,2.4c-0.3,0.9-0.4,1.8-0.4,2.7c0,1,0.2,2,0.5,2.9
	c0.3,0.9,0.8,1.7,1.4,2.4c0.6,0.7,1.3,1.2,2.1,1.7c0.8,0.4,1.7,0.6,2.7,0.6c0.5,0,1-0.1,1.6-0.2c0.6-0.1,1.1-0.3,1.5-0.6
	c0.5-0.3,1-0.6,1.4-1.1c0.4-0.4,0.8-1,1-1.5l2.7,1.5c-0.3,0.8-0.8,1.4-1.4,2.1c-0.6,0.6-1.3,1.1-2,1.5c-0.8,0.4-1.6,0.7-2.4,0.9
	c-0.8,0.2-1.7,0.3-2.5,0.3c-1.4,0-2.8-0.3-4-0.9c-1.2-0.6-2.2-1.4-3.1-2.4c-0.9-1-1.6-2.1-2-3.4C95.7,154.3,95.5,152.9,95.5,151.6z"
	/>
<path fill="#2B2E30" d="M132.8,144.3h-6.9V162h-3.3v-17.8h-6.9v-2.9h17V144.3z"/>
<path fill="#2B2E30" d="M135.5,162v-20.6h3.3V162H135.5z"/>
<path fill="#2B2E30" d="M151.7,162.2c-1.4,0-2.8-0.3-4-0.9c-1.2-0.6-2.2-1.4-3.1-2.4c-0.9-1-1.6-2.1-2-3.4c-0.5-1.2-0.7-2.5-0.7-3.9
	c0-1.4,0.3-2.7,0.8-4c0.5-1.2,1.2-2.4,2.1-3.4c0.9-1,1.9-1.8,3.1-2.3c1.2-0.6,2.6-0.9,4-0.9c1.4,0,2.8,0.3,4,0.9
	c1.2,0.6,2.2,1.4,3.1,2.4c0.9,1,1.5,2.1,2,3.4c1,2.5,1,5.3,0,7.8c-0.5,1.2-1.2,2.3-2.1,3.3c-0.9,1-2,1.7-3.2,2.3
	C154.4,161.9,153,162.2,151.7,162.2z M145.1,151.7c0,1,0.1,1.9,0.5,2.8c0.3,0.9,0.7,1.7,1.3,2.4c0.6,0.7,1.3,1.3,2.1,1.7
	c0.8,0.4,1.8,0.6,2.7,0.6c1,0,1.9-0.2,2.8-0.7c0.8-0.4,1.5-1,2.1-1.7c0.6-0.7,1-1.5,1.3-2.4c0.3-0.9,0.4-1.8,0.4-2.7
	c0-1-0.1-1.9-0.5-2.8c-0.3-0.9-0.7-1.7-1.3-2.4c-0.6-0.7-1.3-1.2-2.1-1.7c-0.8-0.4-1.8-0.6-2.7-0.6c-1,0-1.9,0.2-2.8,0.7
	c-0.8,0.4-1.5,1-2.1,1.7c-0.6,0.7-1,1.5-1.3,2.4C145.3,149.9,145.1,150.8,145.1,151.7z"/>
<path fill="#2B2E30" d="M167.8,147.6v14.5h-3.2v-20.7h2.5l11.8,14.9v-14.8h3.3v20.6h-2.7L167.8,147.6z"/>
</svg>
