<?xml version="1.0" encoding="utf-8"?>
<!-- Generator: Adobe Illustrator 18.0.0, SVG Export Plug-In . SVG Version: 6.00 Build 0)  -->
<!DOCTYPE svg PUBLIC "-//W3C//DTD SVG 1.1//EN" "http://www.w3.org/Graphics/SVG/1.1/DTD/svg11.dtd">
<svg version="1.1" id="Layer_1" xmlns="http://www.w3.org/2000/svg" xmlns:xlink="http://www.w3.org/1999/xlink" x="0px" y="0px"
	 viewBox="0 0 374.7 374.9" enable-background="new 0 0 374.7 374.9" xml:space="preserve">
<g>
	<rect x="0.5" y="0.4" fill="#EAEEE7" width="373.8" height="373.6"/>
	<polyline opacity="0.4" fill="#EAEEE7" points="0.3,374.4 0.3,0.4 374.3,0.4 374.3,374.4 	"/>
</g>
<g>
	<path fill="#FFFFFF" d="M138.4,310.6v2.1c0,0.6-0.3,1-0.9,1.1c0,0-0.1,0-0.2,0c-0.1,0-0.3,0.1-0.5,0.1c-0.3,0-0.6,0.1-1,0.2v22.5
		h-2.5c-0.4,0-0.7-0.1-0.9-0.2c-0.3-0.1-0.5-0.3-0.8-0.6l-13.6-17.3c0,0.4,0.1,0.8,0.1,1.1c0,0.4,0,0.7,0,1V333
		c1.5,0.2,2.3,0.3,2.3,0.3c0.6,0.1,0.9,0.5,0.9,1.1v2.1h-3.2h-4.2H111v-2.1c0-0.6,0.3-1,0.9-1.1c0,0,0.1,0,0.2,0
		c0.1,0,0.3-0.1,0.5-0.1c0.3,0,0.6-0.1,1.1-0.2v-18.9c-0.4-0.1-0.8-0.1-1.1-0.2c-0.3,0-0.4-0.1-0.5-0.1c-0.1,0-0.2,0-0.2,0
		c-0.6-0.1-0.9-0.5-0.9-1.1v-2.1h2.7h2.5c0.2,0,0.4,0,0.5,0c0.1,0,0.3,0,0.4,0.1c0.1,0,0.2,0.1,0.3,0.2c0.1,0.1,0.2,0.3,0.4,0.4
		l13.7,17.4c0-0.4-0.1-0.8-0.1-1.2c0-0.4,0-0.8,0-1.2v-12.2c-1.5-0.2-2.3-0.3-2.3-0.3c-0.6-0.1-0.9-0.5-0.9-1.1v-2.1h3.2h4.3H138.4z
		"/>
	<path fill="#FFFFFF" d="M152.4,318.5c1.1,0.4,2.1,1,2.9,1.9s1.4,1.8,1.8,3c0.4,1.2,0.6,2.5,0.6,3.9c0,1.5-0.2,2.8-0.6,4
		s-1,2.2-1.8,3s-1.8,1.5-2.9,1.9c-1.1,0.4-2.4,0.6-3.7,0.6s-2.7-0.2-3.8-0.6c-1.1-0.4-2.1-1.1-2.9-1.9s-1.4-1.8-1.9-3
		c-0.4-1.2-0.6-2.5-0.6-4c0-1.4,0.2-2.7,0.6-3.9c0.4-1.2,1.1-2.2,1.9-3s1.8-1.4,2.9-1.9c1.1-0.4,2.4-0.7,3.8-0.7
		S151.2,318.1,152.4,318.5z M152,331.9c0.7-1,1.1-2.6,1.1-4.5c0-2-0.4-3.5-1.1-4.5s-1.8-1.6-3.4-1.6s-2.7,0.5-3.5,1.6
		c-0.8,1-1.2,2.6-1.2,4.6s0.4,3.5,1.2,4.5c0.8,1,1.9,1.5,3.5,1.5S151.3,332.9,152,331.9z"/>
	<path fill="#FFFFFF" d="M188.2,318.8c0,1.3-0.2,2.4-0.6,3.5c-0.4,1-1,1.9-1.9,2.7c-0.8,0.8-1.9,1.3-3.2,1.8
		c-1.3,0.4-2.7,0.6-4.4,0.6h-3.2v5.6c0.4,0.1,0.8,0.1,1.1,0.2c0.3,0,0.4,0.1,0.5,0.1c0.1,0,0.2,0,0.2,0c0.6,0.1,0.9,0.5,0.9,1.1v2.1
		h-2.7H170h-2.7v-2.1c0-0.6,0.3-1,0.9-1.1c0,0,0.1,0,0.2,0c0.1,0,0.3-0.1,0.5-0.1c0.3,0,0.6-0.1,1.1-0.2v-18.9
		c-0.4-0.1-0.8-0.1-1.1-0.2c-0.3,0-0.4-0.1-0.5-0.1c-0.1,0-0.2,0-0.2,0c-0.6-0.1-0.9-0.5-0.9-1.1v-2.1h2.7h8c1.7,0,3.3,0.2,4.5,0.6
		c1.3,0.4,2.3,1,3.1,1.7c0.8,0.7,1.4,1.6,1.8,2.6S188.2,317.6,188.2,318.8z M183.3,318.8c0-0.7-0.1-1.3-0.3-1.9
		c-0.2-0.6-0.5-1-1-1.4c-0.4-0.4-1-0.7-1.6-0.9s-1.4-0.3-2.3-0.3h-3.2v9.3h3.2c0.9,0,1.7-0.1,2.3-0.3c0.6-0.2,1.2-0.5,1.6-0.9
		c0.4-0.4,0.8-0.9,1-1.5C183.2,320.3,183.3,319.6,183.3,318.8z"/>
	<path fill="#FFFFFF" d="M210.9,334.5v2.1h-2.7h-4.5v-11.7c0-1.1-0.3-2-0.8-2.6c-0.5-0.6-1.3-0.9-2.3-0.9c-0.8,0-1.5,0.2-2.2,0.5
		c-0.7,0.4-1.3,0.8-1.9,1.4v9.8c0.4,0.1,0.8,0.1,1.1,0.2c0.3,0,0.4,0.1,0.5,0.1c0.1,0,0.2,0,0.2,0c0.6,0.1,0.9,0.5,0.9,1.1v2.1h-2.7
		h-4.4h-2.7v-2.1c0-0.6,0.3-1,0.9-1.1c0,0,0.1,0,0.2,0s0.3-0.1,0.5-0.1c0.3,0,0.6-0.1,1.1-0.2v-19.6c-0.4-0.1-0.8-0.1-1.1-0.2
		c-0.3,0-0.4-0.1-0.5-0.1s-0.2,0-0.2,0c-0.6-0.1-0.9-0.5-0.9-1.1v-2.1h2.7h4.4v10.3c0.7-0.7,1.5-1.2,2.4-1.7
		c0.9-0.4,1.9-0.6,3.1-0.6c1,0,1.9,0.2,2.7,0.5c0.8,0.3,1.4,0.8,1.9,1.4c0.5,0.6,0.9,1.4,1.2,2.2c0.3,0.9,0.4,1.8,0.4,2.8v8.2
		c0.4,0.1,0.8,0.1,1,0.2c0.3,0,0.4,0.1,0.5,0.1c0.1,0,0.2,0,0.2,0C210.6,333.5,210.9,333.9,210.9,334.5z"/>
	<path fill="#FFFFFF" d="M225,318.5c1.1,0.4,2.1,1,2.9,1.9s1.4,1.8,1.8,3c0.4,1.2,0.6,2.5,0.6,3.9c0,1.5-0.2,2.8-0.6,4s-1,2.2-1.8,3
		s-1.8,1.5-2.9,1.9c-1.1,0.4-2.4,0.6-3.7,0.6s-2.7-0.2-3.8-0.6c-1.1-0.4-2.1-1.1-2.9-1.9s-1.4-1.8-1.9-3c-0.4-1.2-0.6-2.5-0.6-4
		c0-1.4,0.2-2.7,0.6-3.9c0.4-1.2,1.1-2.2,1.9-3s1.8-1.4,2.9-1.9c1.1-0.4,2.4-0.7,3.8-0.7S223.9,318.1,225,318.5z M224.7,331.9
		c0.7-1,1.1-2.6,1.1-4.5c0-2-0.4-3.5-1.1-4.5s-1.8-1.6-3.4-1.6s-2.7,0.5-3.5,1.6c-0.8,1-1.2,2.6-1.2,4.6s0.4,3.5,1.2,4.5
		c0.8,1,1.9,1.5,3.5,1.5S224,332.9,224.7,331.9z"/>
	<path fill="#FFFFFF" d="M235.5,335.5c-0.9-0.9-1.3-2.2-1.3-3.7v-10.3h-1.9c-0.3,0-0.4-0.1-0.6-0.3s-0.3-0.4-0.3-0.7v-1.8l3-0.5
		l0.9-5c0-0.3,0.1-0.4,0.3-0.5c0.2-0.1,0.4-0.2,0.7-0.2h2.3v5.8h4.9v3.2h-4.9v10c0,0.6,0.1,1,0.4,1.3c0.3,0.3,0.7,0.5,1.2,0.5
		c0.3,0,0.5,0,0.7-0.1s0.3-0.1,0.5-0.2c0.1-0.1,0.3-0.1,0.4-0.2c0.1-0.1,0.2-0.1,0.3-0.1c0.1,0,0.3,0,0.4,0.1
		c0.1,0.1,0.1,0.1,0.3,0.3l1.3,2.2c-0.6,0.5-1.4,0.9-2.2,1.2c-0.8,0.3-1.7,0.4-2.6,0.4C237.6,336.9,236.3,336.4,235.5,335.5z"/>
	<path fill="#FFFFFF" d="M258.5,318.5c1.1,0.4,2.1,1,2.9,1.9s1.4,1.8,1.8,3c0.4,1.2,0.6,2.5,0.6,3.9c0,1.5-0.2,2.8-0.6,4
		s-1,2.2-1.8,3s-1.8,1.5-2.9,1.9c-1.1,0.4-2.4,0.6-3.7,0.6s-2.7-0.2-3.8-0.6c-1.1-0.4-2.1-1.1-2.9-1.9s-1.4-1.8-1.9-3
		c-0.4-1.2-0.6-2.5-0.6-4c0-1.4,0.2-2.7,0.6-3.9c0.4-1.2,1.1-2.2,1.9-3s1.8-1.4,2.9-1.9c1.1-0.4,2.4-0.7,3.8-0.7
		S257.4,318.1,258.5,318.5z M258.2,331.9c0.7-1,1.1-2.6,1.1-4.5c0-2-0.4-3.5-1.1-4.5s-1.8-1.6-3.4-1.6s-2.7,0.5-3.5,1.6
		c-0.8,1-1.2,2.6-1.2,4.6s0.4,3.5,1.2,4.5c0.8,1,1.9,1.5,3.5,1.5S257.4,332.9,258.2,331.9z"/>
</g>
<g>
	<g>
		<path fill="#FFFFFF" d="M177.4,292.4c-0.7,0-1.9,0-3.2-0.3c-3-0.5-6.3-1.6-9.8-3.3l-0.4-0.2c-9.5-6.1-13.9-19.2-12.8-37.9
			c1.1-17.2,6.7-37.7,16.2-59.4c3.8-8.4,7.4-15.5,11-22c29.5-52.5,89.7-73.6,92.2-74.4l4.5-1.5l1,4.7c0.6,2.6,14,64.9-15.3,117.4
			c-22.5,39.9-52.1,69.5-75.5,75.7c-1.3,0.5-2.6,0.8-3.9,0.8C180.4,292.1,178.9,292.4,177.4,292.4z M168.5,281.2
			c2.6,1.3,5.1,2.1,7.2,2.5l0.4,0.1c0.3,0.1,0.8,0.1,1.3,0.1c0.9,0,2-0.2,3.1-0.4l0.4-0.1h0.4c0.2,0,0.7-0.1,1.4-0.3l0.5-0.2
			c21-5.4,49.3-34.2,70.4-71.7c23.1-41.5,17.8-90.9,15.3-106.4c-14.6,6-59.6,27.3-82.8,68.7c-3.5,6.2-7,13.2-10.6,21.3
			C157.4,235.5,154.5,271.8,168.5,281.2z"/>
	</g>
	<g>
		<path fill="#FFFFFF" d="M164.6,288.8c-18.3-8.3-40.4-31.2-55-56.9c-23-41.4-12.6-90.4-12.1-92.5l1-4.7l4.5,1.6
			c1.9,0.6,46,16.2,69.8,54.3l1.2,1.9l-0.9,2.1c-8.9,20.1-14,40.1-14.5,56.4c-0.4,15.1,3.1,25.8,9.9,30.3L164.6,288.8z M105.1,146.3
			c-1.9,13.2-5.2,50.2,12.1,81.4c10.6,18.6,23.5,33.3,35.1,42.8c-5-18.4-0.9-46.6,12.3-77.2C146.5,166,116.6,151.2,105.1,146.3z"/>
	</g>
	<g>
		<path fill="#FFFFFF" d="M169.9,112.3c-13.9,0-27.9-11.6-34.9-28.8c-8.6-21.2-3.1-43.6,12.2-49.8c6.4-2.6,14-2.1,21.2,1.4
			c7.1-4.1,14.9-5.1,21.8-2.7c15.9,5.8,22.1,27.5,14.2,49.3c-4.6,12.3-12.6,22.1-22,26.9c-0.4,0.2-0.7,0.4-1,0.5
			c-1.1,0.8-2.2,1.3-2.9,1.6C175.8,111.8,172.9,112.3,169.9,112.3z M155.9,42.6c-1.7,0-3.2,0.3-4.7,0.9c-9.8,4-12.7,20.5-6.4,36
			c5.2,12.8,15.8,22.2,25.1,22.2c1.7,0,3.2-0.3,4.7-0.9c0.1-0.1,0.3-0.1,0.4-0.2l0.2-0.2l0.4-0.3c0.6-0.4,1.2-0.6,1.5-0.8l0.4-0.2
			c7-3.5,13.4-11.4,17-21.1c5.7-15.7,2.1-32.1-7.8-35.7c-1.3-0.4-2.7-0.7-4.2-0.7c-3.5,0-7.2,1.4-10.8,3.9l-2.8,2l-3-1.8
			C162.5,43.7,159,42.6,155.9,42.6z"/>
	</g>
	<g>
		<path fill="#FFFFFF" d="M174,291.2c-1.6,0-3.2-0.7-4.3-2.1c-1.7-2.3-1.3-5.7,1.1-7.4c0.5-0.4,43.6-33.3,65.9-108.5
			c0.8-2.8,3.8-4.4,6.6-3.6c2.8,0.8,4.4,3.8,3.6,6.6c-23.4,78.9-67.8,112.6-69.7,114C176.2,290.9,175.1,291.2,174,291.2z"/>
	</g>
	<g>
		<path fill="#FFFFFF" d="M169.3,192.4c-2.9,0-5.3-2.4-5.3-5.3v-56.8c0-2.9,2.4-5.3,5.3-5.3s5.3,2.4,5.3,5.3v56.8
			C174.6,190,172.3,192.4,169.3,192.4z"/>
	</g>
	<g>
		<path fill="#FFFFFF" d="M152,240.6c-1.7-1.1-11.2-8.4-28.5-43.8c-1.3-2.6-0.2-5.8,2.4-7.1c2.6-1.3,5.8-0.2,7.1,2.4
			c16.1,32.9,24.7,39.5,24.8,39.6c-0.1-0.1-0.1-0.1-0.1-0.1L152,240.6z"/>
	</g>
</g>
</svg>
