<?xml version="1.0" encoding="utf-8"?>
<!-- Generator: Adobe Illustrator 18.0.0, SVG Export Plug-In . SVG Version: 6.00 Build 0)  -->
<!DOCTYPE svg PUBLIC "-//W3C//DTD SVG 1.1//EN" "http://www.w3.org/Graphics/SVG/1.1/DTD/svg11.dtd">
<svg version="1.1" id="Layer_1" xmlns="http://www.w3.org/2000/svg" xmlns:xlink="http://www.w3.org/1999/xlink" x="0px" y="0px"
	 viewBox="0 0 374 374" enable-background="new 0 0 374 374" xml:space="preserve">
<g opacity="0.4">
	<rect x="0.2" y="0" fill="#CCD5C3" width="373.8" height="373.6"/>
	<polyline opacity="0.4" fill="#CCD5C3" points="0,374 0,0 374,0 374,374 	"/>
</g>
<g>
	<g>
		<path fill="#FFFFFF" d="M177.1,317.1c-0.7,0-1.9,0-3.2-0.3c-3-0.5-6.3-1.6-9.8-3.3l-0.4-0.2c-9.5-6.1-13.9-19.2-12.8-37.8
			c1.1-17.2,6.7-37.7,16.2-59.4c3.8-8.4,7.4-15.5,11-22c29.5-52.5,89.7-73.6,92.2-74.4l4.5-1.5l1,4.7c0.6,2.6,14,64.9-15.3,117.4
			c-22.5,39.9-52.1,69.5-75.5,75.7c-1.3,0.5-2.6,0.8-3.9,0.8C180,316.9,178.6,317.1,177.1,317.1z M168.2,305.9
			c2.6,1.3,5.1,2.1,7.2,2.5l0.4,0.1c0.3,0.1,0.8,0.1,1.3,0.1c0.9,0,2-0.2,3.1-0.4l0.4-0.1l0.4,0c0.2,0,0.7-0.1,1.4-0.3l0.5-0.2
			c21-5.4,49.3-34.2,70.4-71.7c23.1-41.4,17.7-90.9,15.3-106.4c-14.6,6-59.6,27.3-82.8,68.7c-3.5,6.2-7,13.2-10.6,21.3
			C157.1,260.3,154.2,296.6,168.2,305.9z"/>
	</g>
	<g>
		<path fill="#FFFFFF" d="M164.3,313.6c-18.3-8.3-40.4-31.2-55-56.9c-23-41.4-12.6-90.4-12.1-92.5l1-4.7l4.5,1.6
			c1.9,0.6,46,16.2,69.8,54.3l1.2,1.9l-0.9,2.1c-8.9,20.1-14,40.1-14.5,56.4c-0.4,15.1,3.1,25.8,9.9,30.3L164.3,313.6z M104.7,171.1
			c-1.9,13.2-5.2,50.2,12.1,81.4c10.6,18.6,23.5,33.3,35.1,42.8c-5-18.4-0.9-46.6,12.3-77.2C146.2,190.8,116.3,176,104.7,171.1z"/>
	</g>
	<g>
		<path fill="#FFFFFF" d="M169.5,137.1c-13.9,0-27.9-11.6-34.9-28.8c-8.6-21.2-3.1-43.6,12.2-49.8c6.4-2.6,14-2.1,21.2,1.4
			c7.1-4.1,14.9-5.1,21.8-2.7c15.9,5.8,22.1,27.5,14.2,49.3c-4.6,12.3-12.6,22.1-22,26.9c-0.4,0.2-0.7,0.4-1,0.5
			c-1.1,0.8-2.2,1.3-2.9,1.6C175.5,136.5,172.5,137.1,169.5,137.1z M155.5,67.4c-1.7,0-3.2,0.3-4.7,0.9c-9.8,4-12.7,20.5-6.4,36
			c5.2,12.8,15.8,22.2,25.1,22.2c1.7,0,3.2-0.3,4.7-0.9c0.1-0.1,0.3-0.1,0.4-0.2l0.2-0.2l0.4-0.3c0.6-0.4,1.2-0.6,1.5-0.8l0.4-0.2
			c7-3.5,13.4-11.4,17-21.1c5.7-15.7,2.1-32.1-7.8-35.7c-1.3-0.4-2.7-0.7-4.2-0.7c-3.5,0-7.2,1.4-10.8,3.9l-2.8,2l-3-1.8
			C162.1,68.5,158.7,67.4,155.5,67.4z"/>
	</g>
	<g>
		<path fill="#FFFFFF" d="M173.6,316c-1.6,0-3.2-0.7-4.3-2.1c-1.7-2.3-1.3-5.7,1.1-7.4c0.5-0.4,43.6-33.3,65.9-108.5
			c0.8-2.8,3.8-4.4,6.6-3.6c2.8,0.8,4.4,3.8,3.6,6.6c-23.4,78.9-67.8,112.6-69.7,114C175.8,315.7,174.7,316,173.6,316z"/>
	</g>
	<g>
		<path fill="#FFFFFF" d="M169,217.1c-2.9,0-5.3-2.4-5.3-5.3V155c0-2.9,2.4-5.3,5.3-5.3s5.3,2.4,5.3,5.3v56.8
			C174.3,214.8,171.9,217.1,169,217.1z"/>
	</g>
	<g>
		<path fill="#FFFFFF" d="M151.7,265.4c-1.7-1.1-11.2-8.4-28.5-43.8c-1.3-2.6-0.2-5.8,2.4-7.1c2.6-1.3,5.8-0.2,7.1,2.4
			c16.1,32.9,24.7,39.5,24.8,39.6c-0.1-0.1-0.1-0.1-0.1-0.1L151.7,265.4z"/>
	</g>
</g>
</svg>
