<?xml version="1.0" encoding="utf-8"?>
<!-- Generator: Adobe Illustrator 18.0.0, SVG Export Plug-In . SVG Version: 6.00 Build 0)  -->
<!DOCTYPE svg PUBLIC "-//W3C//DTD SVG 1.1//EN" "http://www.w3.org/Graphics/SVG/1.1/DTD/svg11.dtd">
<svg version="1.1" id="Layer_1" xmlns="http://www.w3.org/2000/svg" xmlns:xlink="http://www.w3.org/1999/xlink" x="0px" y="0px"
	 viewBox="0 0 68.3 68.3" enable-background="new 0 0 68.3 68.3" xml:space="preserve">
<g>
	<g>
		<path fill="#4E4E4E" d="M34.2,68.3C15.3,68.3,0,53,0,34.2S15.3,0,34.2,0s34.2,15.3,34.2,34.2S53,68.3,34.2,68.3z M34.2,7
			C19.2,7,7,19.2,7,34.2c0,15,12.2,27.2,27.2,27.2c15,0,27.2-12.2,27.2-27.2C61.3,19.2,49.1,7,34.2,7z"/>
	</g>
	<g>
		<path fill="#4E4E4E" d="M48.8,37.7H19.5c-1.9,0-3.5-1.6-3.5-3.5s1.6-3.5,3.5-3.5h29.3c1.9,0,3.5,1.6,3.5,3.5S50.8,37.7,48.8,37.7z
			"/>
	</g>
	<g>
		<path fill="#4E4E4E" d="M30.7,48.8V19.5c0-1.9,1.6-3.5,3.5-3.5s3.5,1.6,3.5,3.5v29.3c0,1.9-1.6,3.5-3.5,3.5S30.7,50.8,30.7,48.8z"
			/>
	</g>
</g>
</svg>
