<svg id="Layer_1" data-name="Layer 1" xmlns="http://www.w3.org/2000/svg" viewBox="0 0 468.29 499.39"><defs><style>.cls-1{fill:#2b2e30;}</style></defs><title>Searchbutton</title><path class="cls-1" d="M475.46,449.11l-94.83-94.83a209.8,209.8,0,0,0,56.5-143.34C437.13,94.8,342.64.3,226.49,0.3S15.86,94.8,15.86,210.94s94.49,210.63,210.63,210.63a209.32,209.32,0,0,0,107.84-29.79L433.57,491A29.63,29.63,0,1,0,475.46,449.11ZM75.11,210.94c0-83.47,67.9-151.38,151.37-151.38s151.38,67.91,151.38,151.38S310,362.32,226.49,362.32,75.11,294.41,75.11,210.94Z" transform="translate(-15.86 -0.3)"/></svg>