<?xml version="1.0" encoding="utf-8"?>
<!-- Generator: Adobe Illustrator 18.0.0, SVG Export Plug-In . SVG Version: 6.00 Build 0)  -->
<!DOCTYPE svg PUBLIC "-//W3C//DTD SVG 1.1//EN" "http://www.w3.org/Graphics/SVG/1.1/DTD/svg11.dtd">
<svg version="1.1" id="Layer_1" xmlns="http://www.w3.org/2000/svg" xmlns:xlink="http://www.w3.org/1999/xlink" x="0px" y="0px"
	 viewBox="0 0 1468.5 2953.6" enable-background="new 0 0 1468.5 2953.6" xml:space="preserve">
<g>
	<g>
		<path fill="#010101" d="M691.1,82.3v229.5H10V82.3H691.1 M701.1,72.3H0v249.5h701.1V72.3L701.1,72.3z"/>
	</g>
	<g>
		<path fill="#010101" d="M1390.6,82.3v229.5h-580V82.3H1390.6 M1400.6,72.3h-600v249.5h600V72.3L1400.6,72.3z"/>
	</g>
	<g>
		<path fill="#010101" d="M390.6,482.3L390.6,482.3h9.5h190.5v230H400.1h-9.5v10v740h-230v-740v-240H390.6 M400.6,472.3h-250v0.5
			v249.5v750h250v-750h200v-250H400.6L400.6,472.3L400.6,472.3z"/>
	</g>
	<g>
		<path fill="#010101" d="M990.6,482.3v680h-85.9L710.6,968.1V482.3H990.6 M1000.6,472.3h-300v500l200,200h100V472.3L1000.6,472.3z"
			/>
	</g>
	<g>
		<path fill="#010101" d="M1390.6,482.3v780H1161v-780H1390.6 M1400.6,472.3H1151v800h249.5V472.3L1400.6,472.3z"/>
	</g>
	<g>
		<path fill="#010101" d="M1390.6,1421.4v229.5h-680v-229.5H1390.6 M1400.6,1411.4h-700v249.5h700V1411.4L1400.6,1411.4z"/>
	</g>
	<g>
		<path fill="#010101" d="M390.6,1582.3v830H161v-830H390.6 M400.6,1572.3H151v850h249.5V1572.3L400.6,1572.3z"/>
	</g>
	<g>
		<path fill="#010101" d="M1140.6,2632.7v229.5h-880v-229.5H1140.6 M1150.6,2622.7h-900v249.5h900V2622.7L1150.6,2622.7z"/>
	</g>
	<g>
		<path fill="#010101" d="M1390.6,1811.4v600.9H1161v-600.9H1390.6 M1400.6,1801.4H1151v620.9h249.5V1801.4L1400.6,1801.4z"/>
	</g>
	<g>
		<path fill="#010101" d="M890.6,1719.8v242.5h-180v-242.5H890.6 M900.6,1709.8h-200v262.5h200V1709.8L900.6,1709.8z"/>
	</g>
	<g>
		<path fill="#010101" d="M1390.6,2182.3v230h-743v-230H1390.6 M1400.6,2172.3h-763v250h763V2172.3L1400.6,2172.3z"/>
	</g>
	<g>
		<path fill="#010101" d="M1390.6,1811.4v360.3h-30v-360.3H1390.6 M1400.6,1801.4h-50v380.3h50V1801.4L1400.6,1801.4z"/>
	</g>
	<g>
		<path fill="#010101" d="M915.6,2182.8v229.5h-30v-229.5H915.6 M925.6,2172.8h-50v249.5h50V2172.8L925.6,2172.8z"/>
	</g>
	<g>
		<path fill="#010101" d="M1390.6,682.3v380h-30v-380H1390.6 M1400.6,672.3h-50v400h50V672.3L1400.6,672.3z"/>
	</g>
	<g>
		<path fill="#010101" d="M1390.6,1079.3v183h-230v-183H1390.6 M1400.6,1069.3h-250v203h250V1069.3L1400.6,1069.3z"/>
	</g>
	<g>
		<path fill="#010101" d="M1390.6,482.8v183h-230v-183H1390.6 M1400.6,472.8h-250v203h250V472.8L1400.6,472.8z"/>
	</g>
	<g>
		<path fill="#010101" d="M590.6,482.3v30h-430v-30H590.6 M600.6,472.3h-450v50h450V472.3L600.6,472.3z"/>
	</g>
	<g>
		<path fill="#010101" d="M390.6,1582.3v30h-230v-30H390.6 M400.6,1572.3h-250v50h250V1572.3L400.6,1572.3z"/>
	</g>
	<g>
		<path fill="#010101" d="M390.6,2382.3v30H161v-30H390.6 M400.6,2372.3H151v50h249.5V2372.3L400.6,2372.3z"/>
	</g>
	<g>
		<path fill="#010101" d="M653.1,2832.3v30H310.6v-30H653.1 M663.1,2822.3H300.6v50h362.5V2822.3L663.1,2822.3z"/>
	</g>
	<g>
		<path fill="#010101" d="M1090.6,2832.3v30H748.1v-30H1090.6 M1100.6,2822.3H738.1v50h362.5V2822.3L1100.6,2822.3z"/>
	</g>
	<g>
		<path fill="#010101" d="M480.6,82.3v30h-230v-30H480.6 M490.6,72.3h-250v50h250V72.3L490.6,72.3z"/>
	</g>
	<g>
		<path fill="#010101" d="M240.6,82.3v30h-230v-30H240.6 M250.6,72.3H0.6v50h250V72.3L250.6,72.3z"/>
	</g>
	<g>
		<path fill="#010101" d="M40.6,485.2v328.3h-30V485.2H40.6 M50.6,475.2h-50v348.3h50V475.2L50.6,475.2z"/>
	</g>
	<g>
		<path fill="#010101" d="M40.6,1034v328.3h-30V1034H40.6 M50.6,1024h-50v348.3h50V1024L50.6,1024z"/>
	</g>
	<g>
		<path fill="#010101" d="M40.6,1583.5v328.3h-30v-328.3H40.6 M50.6,1573.5h-50v348.3h50V1573.5L50.6,1573.5z"/>
	</g>
	<g>
		<path fill="#010101" d="M40.6,2134v328.3h-30V2134H40.6 M50.6,2124h-50v348.3h50V2124L50.6,2124z"/>
	</g>
	<g>
		<path fill="#010101" d="M699.7,1064.7l164.6,164.6l2.9,2.9h4.1h119.1v30H854.9L678.5,1086L699.7,1064.7 M699.7,1050.6l-35.4,35.4
			l186.2,186.2v0.1h150v-50H871.4L699.7,1050.6L699.7,1050.6z"/>
	</g>
	<g>
		<path fill="#010101" d="M1390.6,1421.4v229.5h-30v-229.5H1390.6 M1400.6,1411.4h-50v249.5h50V1411.4L1400.6,1411.4z"/>
	</g>
	<text transform="matrix(1 0 0 1 1021.5703 219.4816)" fill="#010101" font-family="'Arial-BoldMT'" font-size="48">WWB1</text>
	<g>
		<path fill="#010101" d="M691.1,82.3v229.5H490.9V82.3H691.1 M701.1,72.3H480.9v249.5h220.2V72.3L701.1,72.3z"/>
	</g>
	<text transform="matrix(1 0 0 1 514.5703 219.4816)" fill="#010101" font-family="'Arial-BoldMT'" font-size="48">WWB2</text>
	<text transform="matrix(1 0 0 1 171.5703 237.4814)" fill="#010101" font-family="'Arial-BoldMT'" font-size="48">WWB3</text>
	<text transform="matrix(1 0 0 1 50.5703 41.1796)" fill="#010101" font-family="'Arial-BoldMT'" font-size="48">WWS3</text>
	<text transform="matrix(1 0 0 1 300.5706 41.1794)" fill="#010101" font-family="'Arial-BoldMT'" font-size="48">WWS2</text>
	<text transform="matrix(1 0 0 1 300.5703 456.0552)" fill="#010101" font-family="'Arial-BoldMT'" font-size="48">WWS4</text>
	<g>
		<path fill="#010101" d="M590.6,522.3v190h-190v-190H590.6 M600.6,512.3h-210v210h210V512.3L600.6,512.3z"/>
	</g>
	<text transform="matrix(1 0 0 1 420.5703 632.0552)" fill="#010101" font-family="'Arial-BoldMT'" font-size="48">WWB4</text>
	<g>
		<path fill="#010101" d="M390.6,982.3v480h-230v-480H390.6 M400.6,972.3h-250v500h250V972.3L400.6,972.3z"/>
	</g>
	<text transform="matrix(1 0 0 1 196.5703 762.0552)" fill="#010101" font-family="'Arial-BoldMT'" font-size="48">WWB5</text>
	<text transform="matrix(1 0 0 1 196.5703 1222.2764)" fill="#010101" font-family="'Arial-BoldMT'" font-size="48">WWB6</text>
	<g>
		<path fill="#010101" d="M391.6,1432.3v30h-230v-30H391.6 M401.6,1422.3h-250v50h250V1422.3L401.6,1422.3z"/>
	</g>
	<text transform="matrix(1 0 0 1 210.5703 1411.3616)" fill="#010101" font-family="'Arial-BoldMT'" font-size="48">WCS4</text>
	<text transform="matrix(1 0 0 1 210.5703 1562.3616)" fill="#010101" font-family="'Arial-BoldMT'" font-size="48">WCS5</text>
	<g>
		<path fill="#010101" d="M390.6,1982.3v430H161v-430H390.6 M400.6,1972.3H151v450h249.5V1972.3L400.6,1972.3z"/>
	</g>
	<text transform="matrix(1 0 0 1 210.5703 1801.368)" fill="#010101" font-family="'Arial-BoldMT'" font-size="48">WEB1</text>
	<text transform="matrix(1 0 0 1 210.5703 2197.2761)" fill="#010101" font-family="'Arial-BoldMT'" font-size="48">WEB2</text>
	<text transform="matrix(1 0 0 1 210.5703 2472.2759)" fill="#010101" font-family="'Arial-BoldMT'" font-size="48">WES3</text>
	<text transform="matrix(1 0 0 1 418.5703 2747.5073)" fill="#010101" font-family="'Arial-BoldMT'" font-size="48">WEB3</text>
	<text transform="matrix(1 0 0 1 856.5703 2747.5071)" fill="#010101" font-family="'Arial-BoldMT'" font-size="48">WEB5</text>
	<text transform="matrix(1 0 0 1 637.5703 2747.5076)" fill="#010101" font-family="'Arial-BoldMT'" font-size="48">WEB4</text>
	<text transform="matrix(1 0 0 1 418.5703 2935.5093)" fill="#010101" font-family="'Arial-BoldMT'" font-size="48">WES4</text>
	<text transform="matrix(1 0 0 1 856.5703 2935.5093)" fill="#010101" font-family="'Arial-BoldMT'" font-size="48">WES5</text>
	<text transform="matrix(1 0 0 1 25.5703 2747.5076)" fill="#010101" font-family="'Arial-BoldMT'" font-size="48">WHP1</text>
	<text transform="matrix(1 0 0 1 700.5703 2320.5078)" fill="#010101" font-family="'Arial-BoldMT'" font-size="48">WEC1</text>
	<text transform="matrix(1 0 0 1 969.0703 2320.5078)" fill="#010101" font-family="'Arial-BoldMT'" font-size="48">WEB6</text>
	<text transform="matrix(1 0 0 1 1215.5703 2320.5078)" fill="#010101" font-family="'Arial-BoldMT'" font-size="48">WEC2</text>
	<text transform="matrix(1 0 0 1 1198.0703 1997.2764)" fill="#010101" font-family="'Arial-BoldMT'" font-size="48">WEB7</text>
	<text transform="matrix(1 0 0 1 737.0703 1854.2764)" fill="#010101" font-family="'Arial-BoldMT'" font-size="48">WNEI</text>
	<text transform="matrix(0 1 -1 0 1427.3184 1920.8164)" fill="#010101" font-family="'Arial-BoldMT'" font-size="48">WES7</text>
	<line fill="none" stroke="#010101" stroke-width="10" stroke-miterlimit="10" x1="1213.6" y1="1411.4" x2="1213.6" y2="1660.9"/>
	<g>
		<path fill="#010101" d="M942.1,1421.4v229.5h-30v-229.5H942.1 M952.1,1411.4h-50v249.5h50V1411.4L952.1,1411.4z"/>
	</g>
	<text transform="matrix(1 0 0 1 1220.5703 1548.2764)" fill="#010101" font-family="'Arial-BoldMT'" font-size="48">WCC1</text>
	<text transform="matrix(1 0 0 1 856.5703 1391.2764)" fill="#010101" font-family="'Arial-BoldMT'" font-size="48">WCS2</text>
	<text transform="matrix(1 0 0 1 1011.5703 1548.2764)" fill="#010101" font-family="'Arial-BoldMT'" font-size="48">WCB1</text>
	<text transform="matrix(1 0 0 1 737.0703 1548.2764)" fill="#010101" font-family="'Arial-BoldMT'" font-size="48">WCC2</text>
	<text transform="matrix(0 1 -1 0 1427.3184 1472.2764)" fill="#010101" font-family="'Arial-BoldMT'" font-size="48">WCS1</text>
	<text transform="matrix(1 0 0 1 664.3887 1272.2764)" fill="#010101" font-family="'Arial-BoldMT'" font-size="48">WCS3</text>
	<text transform="matrix(1 0 0 1 785.402 762.0552)" fill="#010101" font-family="'Arial-BoldMT'" font-size="48">WNWI</text>
	<text transform="matrix(0 1 -1 0 1061.3496 780.7015)" fill="#010101" font-family="'Arial-BoldMT'" font-size="48">WNWO</text>
	<text transform="matrix(0 1 -1 0 1243.3359 780.7014)" fill="#010101" font-family="'Arial-BoldMT'" font-size="48">WWB7</text>
	<text transform="matrix(1 0 0 1 1198.0699 589.5597)" fill="#010101" font-family="'Arial-BoldMT'" font-size="48">WWC1</text>
	<text transform="matrix(1 0 0 1 1198.0696 1191.0486)" fill="#010101" font-family="'Arial-BoldMT'" font-size="48">WWC2</text>
	<text transform="matrix(0 1 -1 0 1427.3184 780.5485)" fill="#010101" font-family="'Arial-BoldMT'" font-size="48">WWS7</text>
	<text transform="matrix(1 0 0 1 837.3848 2153.2769)" fill="#010101" font-family="'Arial-BoldMT'" font-size="48">WES6</text>
	<text transform="matrix(0 1 -1 0 77.8106 574.5607)" fill="#010101" font-family="'Arial-BoldMT'" font-size="48">WWS5</text>
	<text transform="matrix(0 1 -1 0 77.8106 1120.5378)" fill="#010101" font-family="'Arial-BoldMT'" font-size="48">WWS6</text>
	<text transform="matrix(0 1 -1 0 77.8106 1683.524)" fill="#010101" font-family="'Arial-BoldMT'" font-size="48">WES1</text>
	<text transform="matrix(0 1 -1 0 77.8106 2235.5137)" fill="#010101" font-family="'Arial-BoldMT'" font-size="48">WES2</text>
	<text transform="matrix(0 1 -1 0 480.9043 1921.7271)" fill="#010101" font-family="'Arial-BoldMT'" font-size="48">WSEO</text>
	<text transform="matrix(0 1 -1 0 475.8106 780.7017)" fill="#010101" font-family="'Arial-BoldMT'" font-size="48">WSWO</text>
</g>
</svg>
