<?xml version="1.0" encoding="utf-8"?>
<!-- Generator: Adobe Illustrator 18.0.0, SVG Export Plug-In . SVG Version: 6.00 Build 0)  -->
<!DOCTYPE svg PUBLIC "-//W3C//DTD SVG 1.1//EN" "http://www.w3.org/Graphics/SVG/1.1/DTD/svg11.dtd">
<svg version="1.1" id="Layer_1" xmlns="http://www.w3.org/2000/svg" xmlns:xlink="http://www.w3.org/1999/xlink" x="0px" y="0px"
	 viewBox="0 0 1141.8 942.8" enable-background="new 0 0 1141.8 942.8" xml:space="preserve">
<path d="M1139.1,293l-82.3-84.1c0,0,11.6-95.1-89.3-168.8C866.6-33.6,775.3,8.4,734.4,53.5c-80.2,88.3-26.4,194.1-26.4,194.1
	c-15.6,28.4-21.7,51.1-15.1,57.8l119,121.8l-295,42.1l-69.3-31.1c-33.2-24.2-29,45.6-26.3,64.4c12.3,86.2,40.9,64.2,40.9,64.2
	l64.2-50.3l351.2-22.1l27.1,27.8c12.8,13.1,105.3-37,153.1-83.6C1117.9,379.7,1151.9,306.2,1139.1,293z M927.2,76.3
	c-12.8-13.1-96.8,29.8-151.6,83.4C753.9,180.9,735,204.3,721,226c-32.9-102.1,18.8-162.6,18.8-162.6c67.9-71.1,143.9-53,210-10
	c65.7,42.7,83.4,130.6,83.5,131.7L927.2,76.3z"/>
<path d="M315.4,573.8c-9.4,10.3-24.2,12.1-33.1,4c-8.8-8.1-8.3-23,1.1-33.3c1.3-1.4,2.7-2.8,4.3-3.8c0,0,1.3-1,2-1.4l48.3-29.8
	c3-1.9,6.7,1.3,5.3,4.5L320,567.6C319.8,568.2,316.8,572.3,315.4,573.8z"/>
<path d="M374.4,627.8c-9.4,10.3-24.2,12.1-33.1,4c-8.8-8.1-8.3-23,1.1-33.3c1.3-1.4,2.7-2.8,4.3-3.8c0,0,1.3-1,2-1.4l48.3-29.8
	c3-1.9,6.7,1.3,5.3,4.5L379,621.6C378.8,622.2,375.8,626.3,374.4,627.8z"/>
<path d="M261.4,802.8c-9.4,10.3-24.2,12.1-33.1,4c-8.8-8.1-8.3-23,1.1-33.3c1.3-1.4,2.7-2.8,4.3-3.8c0,0,1.3-1,2-1.4l48.3-29.8
	c3-1.9,6.7,1.3,5.3,4.5L266,796.6C265.8,797.2,262.8,801.3,261.4,802.8z"/>
<path d="M164.4,896.8c-9.4,10.3-24.2,12.1-33.1,4c-8.8-8.1-8.3-23,1.1-33.3c1.3-1.4,2.7-2.8,4.3-3.8c0,0,1.3-1,2-1.4l48.3-29.8
	c3-1.9,6.7,1.3,5.3,4.5L169,890.6C168.8,891.2,165.8,895.3,164.4,896.8z"/>
<path d="M181.4,688.8c-9.4,10.3-24.2,12.1-33.1,4c-8.8-8.1-8.3-23,1.1-33.3c1.3-1.4,2.7-2.8,4.3-3.8c0,0,1.3-1,2-1.4l48.3-29.8
	c3-1.9,6.7,1.3,5.3,4.5L186,682.6C185.8,683.2,182.8,687.3,181.4,688.8z"/>
<path d="M281.4,679.8c-9.4,10.3-24.2,12.1-33.1,4c-8.8-8.1-8.3-23,1.1-33.3c1.3-1.4,2.7-2.8,4.3-3.8c0,0,1.3-1,2-1.4l48.3-29.8
	c3-1.9,6.7,1.3,5.3,4.5L286,673.6C285.8,674.2,282.8,678.3,281.4,679.8z"/>
<path d="M147.4,802.8c-9.4,10.3-24.2,12.1-33.1,4c-8.8-8.1-8.3-23,1.1-33.3c1.3-1.4,2.7-2.8,4.3-3.8c0,0,1.3-1,2-1.4l48.3-29.8
	c3-1.9,6.7,1.3,5.3,4.5L152,796.6C151.8,797.2,148.8,801.3,147.4,802.8z"/>
<path d="M39.4,933.8c-9.4,10.3-24.2,12.1-33.1,4c-8.8-8.1-8.3-23,1.1-33.3c1.3-1.4,2.7-2.8,4.3-3.8c0,0,1.3-1,2-1.4L62,869.5
	c3-1.9,6.7,1.3,5.3,4.5L44,927.6C43.8,928.2,40.8,932.3,39.4,933.8z"/>
<path d="M53.4,812.8c-9.4,10.3-24.2,12.1-33.1,4c-8.8-8.1-8.3-23,1.1-33.3c1.3-1.4,2.7-2.8,4.3-3.8c0,0,1.3-1,2-1.4L76,748.5
	c3-1.9,6.7,1.3,5.3,4.5L58,806.6C57.8,807.2,54.8,811.3,53.4,812.8z"/>
</svg>
