<?xml version="1.0" encoding="utf-8"?>
<!-- Generator: Adobe Illustrator 18.0.0, SVG Export Plug-In . SVG Version: 6.00 Build 0)  -->
<!DOCTYPE svg PUBLIC "-//W3C//DTD SVG 1.1//EN" "http://www.w3.org/Graphics/SVG/1.1/DTD/svg11.dtd">
<svg version="1.1" id="Layer_1" xmlns="http://www.w3.org/2000/svg" xmlns:xlink="http://www.w3.org/1999/xlink" x="0px" y="0px"
	 viewBox="0 0 576 576" enable-background="new 0 0 576 576" xml:space="preserve">
<path fill="#FFFFFF" d="M393.6,288l160.4-160.4c28.9-28.9,28.9-76.7,0-105.6s-76.7-28.9-105.6,0L288,182.4L127.6,21.9
	C98.7-7,50.8-7,21.9,21.9s-28.9,76.7,0,105.6L182.4,288L21.9,448.4C-7,477.3-7,525.2,21.9,554.1C36.9,569,55.8,576,74.7,576
	s37.9-7,52.8-21.9L288,393.6l160.4,160.4c14.9,14.9,33.9,21.9,52.8,21.9c18.9,0,37.9-7,52.8-21.9c28.9-28.9,28.9-76.7,0-105.6
	L393.6,288z"/>
</svg>
