<?xml version="1.0" encoding="utf-8"?>
<!-- Generator: Adobe Illustrator 18.0.0, SVG Export Plug-In . SVG Version: 6.00 Build 0)  -->
<!DOCTYPE svg PUBLIC "-//W3C//DTD SVG 1.1//EN" "http://www.w3.org/Graphics/SVG/1.1/DTD/svg11.dtd">
<svg version="1.1" id="Layer_1" xmlns="http://www.w3.org/2000/svg" xmlns:xlink="http://www.w3.org/1999/xlink" x="0px" y="0px"
	 viewBox="0 0 16382.9 16382.9" enable-background="new 0 0 16382.9 16382.9" xml:space="preserve">
<path fill="#BA0C2F" d="M11195.9,8191.4L15759.3,3628c822-822,822-2182.5,0-3004.5c-822-822-2182.5-822-3004.5,0L8191.4,5187
	L3628,623.6c-822-822-2182.5-822-3004.5,0s-822,2182.5,0,3004.5L5187,8191.4L623.6,12754.8c-822,822-822,2182.5,0,3004.5
	c425.2,425.2,963.7,623.6,1502.2,623.6s1077.1-198.4,1502.2-623.6l4563.4-4563.4l4563.4,4563.4
	c425.2,425.2,963.7,623.6,1502.2,623.6c538.5,0,1077.1-198.4,1502.2-623.6c822-822,822-2182.5,0-3004.5L11195.9,8191.4z"/>
</svg>
