<?xml version="1.0" encoding="utf-8"?>
<!-- Generator: Adobe Illustrator 18.0.0, SVG Export Plug-In . SVG Version: 6.00 Build 0)  -->
<!DOCTYPE svg PUBLIC "-//W3C//DTD SVG 1.1//EN" "http://www.w3.org/Graphics/SVG/1.1/DTD/svg11.dtd">
<svg version="1.1" id="Layer_1" xmlns="http://www.w3.org/2000/svg" xmlns:xlink="http://www.w3.org/1999/xlink" x="0px" y="0px"
	 viewBox="0 0 1400 833.9" enable-background="new 0 0 1400 833.9" xml:space="preserve">
<g>
	<g>
		<path fill="#010101" d="M1390,67.3v680h-280.4v-680H1390 M1400,57.3h-300.4v700H1400V57.3L1400,57.3z"/>
	</g>
	<g>
		<path fill="#010101" d="M890,94.6v152.7H211.3V94.6H890 M900,84.6H201.3v172.7H900V84.6L900,84.6z"/>
	</g>
	<g>
		<path fill="#010101" d="M890,567.3v152.6H410V567.3H890 M900,557.3H400v172.6h500V557.3L900,557.3z"/>
	</g>
	<g>
		<path fill="#010101" d="M200.6,67.3v680H10v-680H200.6 M210.6,57.3H0v700h210.6V57.3L210.6,57.3z"/>
	</g>
	<g>
		<path fill="#010101" d="M640,729.8v17.5H210v-17.5H640 M650,719.8H200v37.5h450V719.8L650,719.8z"/>
	</g>
	<g>
		<path fill="#010101" d="M890,67.3v17.5H211.3V67.3H890 M900,57.3H201.3v37.5H900V57.3L900,57.3z"/>
	</g>
	<g>
		<path fill="#010101" d="M1290,367.3v380h-180v-380H1290 M1300,357.3h-200v400h200V357.3L1300,357.3z"/>
	</g>
	<text transform="matrix(1 0 0 1 1137.5 569.7802)" fill="#010101" font-family="'Arial-BoldMT'" font-size="48">CNB1</text>
	<g>
		<path fill="#010101" d="M640,567.3v152.6H410V567.3H640 M650,557.3H400v172.6h250V557.3L650,557.3z"/>
	</g>
	<text transform="matrix(1 0 0 1 536.5001 446.7804)" fill="#010101" font-family="'Arial-BoldMT'" font-size="48">CHOH</text>
	<g>
		<path fill="#010101" d="M890,94.6v152.6H660V94.6H890 M900,84.6H650v172.6h250V84.6L900,84.6z"/>
	</g>
	<text transform="matrix(1 0 0 1 41.4999 192.7806)" fill="#010101" font-family="'Arial-BoldMT'" font-size="48">CHP1</text>
	<text transform="matrix(1 0 0 1 29.4999 643.578)" fill="#010101" font-family="'Arial-BoldMT'" font-size="48">CHCW</text>
	<text transform="matrix(1 0 0 1 457.4999 659.3768)" fill="#010101" font-family="'Arial-BoldMT'" font-size="48">CEB2</text>
	<text transform="matrix(1 0 0 1 705.0001 659.3773)" fill="#010101" font-family="'Arial-BoldMT'" font-size="48">CEB1</text>
	<text transform="matrix(1 0 0 1 237.5002 815.7816)" fill="#010101" font-family="'Arial-BoldMT'" font-size="48">CES2</text>
	<text transform="matrix(1 0 0 1 704.9999 815.7811)" fill="#010101" font-family="'Arial-BoldMT'" font-size="48">CES1</text>
	<g>
		<path fill="#010101" d="M890,729.8v17.5H650v-17.5H890 M900,719.8H640v37.5h260V719.8L900,719.8z"/>
	</g>
	<text transform="matrix(1 0 0 1 353.4999 192.7806)" fill="#010101" font-family="'Arial-BoldMT'" font-size="48">CWB2</text>
	<text transform="matrix(1 0 0 1 705.5001 193.4288)" fill="#010101" font-family="'Arial-BoldMT'" font-size="48">CWB1</text>
	<text transform="matrix(1 0 0 1 353.5002 41.1803)" fill="#010101" font-family="'Arial-BoldMT'" font-size="48">CWS2</text>
	<text transform="matrix(1 0 0 1 705.4999 41.1798)" fill="#010101" font-family="'Arial-BoldMT'" font-size="48">CWS1</text>
</g>
</svg>
