<?xml version="1.0" encoding="utf-8"?>
<!-- Generator: Adobe Illustrator 18.0.0, SVG Export Plug-In . SVG Version: 6.00 Build 0)  -->
<!DOCTYPE svg PUBLIC "-//W3C//DTD SVG 1.1//EN" "http://www.w3.org/Graphics/SVG/1.1/DTD/svg11.dtd">
<svg version="1.1" id="Layer_1" xmlns="http://www.w3.org/2000/svg" xmlns:xlink="http://www.w3.org/1999/xlink" x="0px" y="0px"
	 viewBox="0 318.2 1440.7 803.5" enable-background="new 0 318.2 1440.7 803.5" xml:space="preserve">
<g>
	<path fill="#2C2F30" d="M1323.1,1121.8H117.5C52.8,1121.8,0,1068.9,0,1004.2V435.8c0-64.7,52.8-117.5,117.5-117.5h1205.6
		c64.7,0,117.5,52.8,117.5,117.5v568.5C1440,1068.9,1387.8,1121.8,1323.1,1121.8z"/>
	<path fill="#FFFFFF" d="M793,532.8l144.6,151.9c8.6,8.6,13.2,19.8,13.2,32.4c0,12.5-4.6,23.8-13.2,32.4L793,901.9
		c-17.2,17.8-44.9,17.8-62.1,0s-17.2-47.5,0-65.4l69.3-72.6H486.6c-24.4,0-44.2-20.5-44.2-46.2c0-25.7,19.8-46.2,44.2-46.2h313.6
		l-69.3-72.6c-17.2-17.8-17.2-47.5,0-65.4C747.4,514.3,775.8,514.3,793,532.8z"/>
</g>
<rect x="-1899.1" y="-651.4" fill="#D318C6" width="1655.7" height="969.6"/>
</svg>
