<?xml version="1.0" encoding="utf-8"?>
<!-- Generator: Adobe Illustrator 18.0.0, SVG Export Plug-In . SVG Version: 6.00 Build 0)  -->
<!DOCTYPE svg PUBLIC "-//W3C//DTD SVG 1.1//EN" "http://www.w3.org/Graphics/SVG/1.1/DTD/svg11.dtd">
<svg version="1.1" id="Layer_1" xmlns="http://www.w3.org/2000/svg" xmlns:xlink="http://www.w3.org/1999/xlink" x="0px" y="0px"
	 viewBox="165.6 0.4 628.8 559.7" enable-background="new 165.6 0.4 628.8 559.7" xml:space="preserve">
<title>LivingPlantCollection</title>
<path fill="#FFFFFF" d="M226.5,58c0,2.9-0.6,5.8-1.9,8.4c-1.2,2.4-3,4.6-5.1,6.3c-2.3,1.8-4.8,3.1-7.6,3.9c-3,0.9-6.1,1.4-9.2,1.4
	h-36.9V0.5h39.9c2.5,0,5.1,0.6,7.3,1.7c2.1,1.1,4,2.6,5.5,4.4c1.5,1.9,2.7,4,3.5,6.3c0.8,2.3,1.3,4.7,1.3,7.2c0,3.7-1,7.4-2.9,10.6
	c-1.8,3.4-4.7,6.1-8.2,7.6c4.2,1.2,7.9,3.7,10.5,7.2C225.2,49.2,226.6,53.5,226.5,58z M177.8,11.1V34h22.5c1.5,0,3-0.3,4.4-0.9
	c1.3-0.6,2.4-1.4,3.4-2.4c1-1,1.8-2.2,2.3-3.5c0.6-1.5,0.8-3,0.8-4.6c0.1-3-0.9-5.9-2.8-8.2c-1.8-2.1-4.4-3.3-7.2-3.2H178
	L177.8,11.1z M214,55.8c0-1.5-0.3-3-0.8-4.4c-0.5-1.4-1.2-2.7-2.2-3.8c-0.9-1.1-2-2-3.3-2.6c-1.4-0.7-2.8-1-4.4-1h-25.4v23.7h24.9
	c1.5,0,3-0.3,4.4-0.9c1.4-0.6,2.6-1.4,3.6-2.5c1-1.1,1.8-2.3,2.4-3.7C213.7,59.1,214,57.5,214,55.8z"/>
<path fill="#FFFFFF" d="M262.6,0.5h10.7l30.5,77.4h-12.9l-8.2-21.1h-29.9l-8.1,21.1h-13.1L262.6,0.5z M280.3,47.8l-12.2-33.2
	L255,47.9L280.3,47.8L280.3,47.8z"/>
<path fill="#FFFFFF" d="M313.9,77.9V0.5h12.2v66.6h41.6V78L313.9,77.9L313.9,77.9z"/>
<path fill="#FFFFFF" d="M379.3,77.9V0.5h12.2v66.6h41.6V78L379.3,77.9L379.3,77.9z"/>
<path fill="#FFFFFF" d="M516.7,18.8c-0.9-1-2-1.8-3.1-2.6c-1.5-1-3.2-1.9-4.8-2.6c-2-0.8-4-1.5-6.1-2c-2.2-0.5-4.5-0.8-6.8-0.7
	c-4-0.3-8,0.7-11.4,2.8c-2.4,1.9-3.8,4.8-3.7,7.8c-0.1,1.6,0.3,3.2,1.1,4.6c0.9,1.3,2.1,2.4,3.5,3.1c1.9,1,3.9,1.8,6,2.4
	c2.4,0.7,5.2,1.4,8.4,2.2c3.6,0.9,7.2,1.9,10.6,3.2c2.9,1,5.6,2.5,8,4.4c2.1,1.6,3.9,3.7,5.1,6.1c1.2,2.7,1.9,5.7,1.8,8.7
	c0.1,3.5-0.7,7-2.2,10.1c-1.4,2.8-3.5,5.2-6.1,6.9c-2.7,1.9-5.8,3.4-9,4.2c-3.6,0.9-7.3,1.3-11,1.3c-5.8,0-11.5-0.9-17.1-2.7
	c-5.4-1.7-10.4-4.4-14.9-7.8l5.5-10.5c1.3,1.2,2.6,2.3,4.1,3.2c2,1.3,4.1,2.3,6.2,3.2c2.5,1,5.1,1.9,7.7,2.5c2.9,0.7,5.8,1.1,8.7,1
	c3.9,0.2,7.7-0.6,11.1-2.5c2.6-1.6,4.1-4.4,3.9-7.4c0.1-1.7-0.5-3.5-1.5-4.9c-1.2-1.5-2.7-2.6-4.4-3.4c-2.1-1.1-4.3-2-6.6-2.7
	c-2.6-0.8-5.6-1.6-8.9-2.5c-3.4-0.9-6.8-2-10.1-3.2c-2.6-1-5-2.3-7.2-4.1c-1.9-1.5-3.3-3.4-4.4-5.6c-1.1-2.5-1.6-5.1-1.5-7.8
	c-0.1-3.5,0.7-6.9,2.2-10.1c1.4-2.9,3.4-5.4,5.9-7.4c2.6-2,5.6-3.5,8.7-4.4c3.6-1,7.4-1.6,11.1-1.5c4.9,0,9.8,0.8,14.5,2.5
	c4.2,1.5,8.1,3.6,11.7,6.2L516.7,18.8z"/>
<path fill="#FFFFFF" d="M593.1,11.3h-25.7v66.6h-12.3V11.3h-25.8V0.5h63.9V11.3z"/>
<path fill="#FFFFFF" d="M624.5,0.5h10.7l30.5,77.4h-13.1l-8.2-21.1h-29.7l-8.1,21.1h-13.1L624.5,0.5z M642.3,47.8l-12.2-33.2
	L617,47.9L642.3,47.8L642.3,47.8z"/>
<path fill="#FFFFFF" d="M732.7,11.3H707v66.6h-12.3V11.3h-25.8V0.5h63.9V11.3z"/>
<path fill="#FFFFFF" d="M794.4,67.2V78h-53.1V0.5h52.3v10.8h-40.1v21.8H788v10.2h-34.5v23.9H794.4L794.4,67.2z"/>
<path fill="#FFFFFF" d="M170.4,261.1V121.5h21.8v119.9H267v19.5h-96.6V261.1z"/>
<path fill="#FFFFFF" d="M283.8,261.1V121.5h21.8v139.6H283.8z"/>
<path fill="#FFFFFF" d="M345,121.8l42,111.6l41.8-111.6h23.3l-55.7,139.6h-18.8l-56-139.6L345,121.8L345,121.8z"/>
<path fill="#FFFFFF" d="M471.3,261.1V121.5h21.8v139.6H471.3z"/>
<path fill="#FFFFFF" d="M545.7,163v98.1h-21.8V121.5h17.4L621,221.8V121.5h22.2v139.1h-18.2L545.7,163z"/>
<path fill="#FFFFFF" d="M774,243.8c-10.4,11.5-25.1,18.2-40.6,18.3c-9,0.1-17.9-1.8-26.1-5.7c-7.9-3.8-15-9.1-20.8-15.6
	c-6-6.7-10.7-14.4-13.8-22.8c-3.3-8.6-5-17.8-5-27c0-9.2,1.7-18.3,5-26.9c3.2-8.3,7.9-15.8,13.8-22.4c5.9-6.4,13.1-11.6,21-15.2
	c19.4-8.3,41.5-7.3,60.1,2.7c8.8,5.3,15.8,12.9,20.4,22.1l-16.9,12.2c-3.4-7.2-8.9-13.1-15.7-17.1c-6.6-3.8-14.2-5.7-21.8-5.7
	c-6.2,0-12.4,1.5-17.9,4.4c-5.3,2.7-10.1,6.4-13.9,11c-3.9,4.8-6.8,10.3-8.7,16.2c-2,6.2-3.1,12.7-3.1,19.2c0,6.8,1.1,13.5,3.4,19.8
	c2.1,5.9,5.3,11.3,9.4,16.1c4,4.6,8.8,8.3,14.2,10.9c5.6,2.7,11.7,4.1,17.8,4c7.1,0,14-1.7,20.3-4.9c7.2-3.9,13.6-9.2,18.7-15.6
	v-14.9h-29.3v-16.3h47.6v70.4H774v-17.4V243.8z"/>
<path fill="#FFFFFF" d="M172.6,444.3V304.7h58.5c6-0.1,12,1.3,17.4,3.9c5.2,2.5,9.8,6,13.7,10.3c3.7,4.3,6.7,9.2,8.7,14.5
	c2.1,5.3,3.2,10.9,3.2,16.6c0,5.8-1,11.5-3.1,17c-2,5.3-5,10.2-8.7,14.5c-3.6,4.2-8.1,7.7-13.1,10.2c-5.4,2.6-11.2,3.9-17.2,3.8
	h-37.7V444h-21.8L172.6,444.3z M194.4,376.4h36.3c3,0.1,6-0.6,8.7-2c2.6-1.3,4.8-3.2,6.6-5.5c1.9-2.5,3.4-5.3,4.4-8.2
	c1.1-3.4,1.6-6.9,1.6-10.4c0.1-3.6-0.5-7.2-1.7-10.6c-1.1-3-2.7-5.8-4.9-8.2c-2-2.2-4.4-4-7.2-5.3c-2.6-1.2-5.4-1.9-8.3-1.9h-35.1
	v52L194.4,376.4z"/>
<path fill="#FFFFFF" d="M294.7,444.3V304.7h21.8v119.9h74.8v19.5h-96.6V444.3z"/>
<path fill="#FFFFFF" d="M449.1,304.9h19.2l54.9,139.6h-23.2l-14.7-37.9h-53.8l-14.5,37.9h-23.3L449.1,304.9z M481.1,390.1
	l-22.4-59.9l-23.2,59.9L481.1,390.1L481.1,390.1z"/>
<path fill="#FFFFFF" d="M560.9,346.1v98.1h-21.8V304.7h17.4L636.2,405V304.7h22.2v139.1h-18.2L560.9,346.1z"/>
<path fill="#FFFFFF" d="M793.8,324.4h-46.3v119.9h-22.2V324.4h-46.5v-19.5h115V324.4z"/>
<path fill="#FFFFFF" d="M167,523.3c0-4.4,0.8-8.7,2.3-12.8c1.5-4.2,3.8-8.1,6.8-11.4c3-3.4,6.8-6.2,10.9-8.2
	c4.5-2.1,9.5-3.2,14.5-3.1c5.9-0.2,11.6,1.4,16.7,4.4c4.5,2.7,8.1,6.6,10.4,11.3l-8.7,5.9c-0.9-2-2.1-3.8-3.6-5.4
	c-1.3-1.4-2.9-2.6-4.6-3.5c-1.6-0.9-3.4-1.5-5.2-1.9c-1.7-0.4-3.5-0.6-5.2-0.6c-3.4-0.1-6.8,0.7-9.8,2.3c-2.8,1.5-5.2,3.5-7.1,6
	c-1.9,2.5-3.4,5.3-4.4,8.3c-1,3-1.4,6.1-1.4,9.2c0,3.4,0.6,6.8,1.7,9.9c1.1,3,2.7,5.9,4.8,8.3c2,2.4,4.5,4.3,7.3,5.8
	c2.9,1.4,6,2.2,9.2,2.1c1.8,0,3.6-0.2,5.4-0.7c1.9-0.4,3.7-1.1,5.3-2.1c1.7-1,3.3-2.2,4.7-3.7c1.5-1.5,2.7-3.4,3.6-5.3l9.3,5.3
	c-1.1,2.6-2.7,5-4.8,7.1c-2.1,2-4.4,3.8-7,5.1c-2.6,1.4-5.4,2.5-8.3,3.2c-2.8,0.7-5.8,1.1-8.7,1.1c-4.8,0.1-9.5-1.1-13.7-3.2
	c-4-2.1-7.6-4.9-10.6-8.3c-3-3.5-5.4-7.4-7-11.7C167.8,532.5,167,527.9,167,523.3z"/>
<path fill="#FFFFFF" d="M270.9,559.9c-4.8,0.1-9.6-1-13.9-3.1c-4.1-2-7.7-4.8-10.6-8.2c-3-3.4-5.4-7.3-7-11.6
	c-1.6-4.3-2.4-8.8-2.4-13.3c0-4.7,0.9-9.3,2.6-13.7c1.7-4.3,4.1-8.2,7.2-11.6c3-3.3,6.7-6.1,10.8-8c4.3-2,9-3,13.7-3
	c4.8-0.1,9.6,1,13.9,3.1c4.1,2,7.7,4.8,10.7,8.3c3,3.4,5.3,7.4,6.9,11.6c3.3,8.6,3.3,18.2,0,26.8c-1.6,4.2-4.1,8.1-7.2,11.5
	c-3.1,3.3-6.8,6-10.9,7.9C280.4,558.9,275.7,559.9,270.9,559.9z M248.2,523.8c0,3.3,0.5,6.6,1.6,9.7c0.9,3,2.4,5.8,4.4,8.3
	c2,2.4,4.4,4.4,7.2,5.8c2.9,1.5,6.2,2.2,9.4,2.1c3.3,0.1,6.6-0.7,9.6-2.3c2.7-1.5,5.1-3.5,7.1-6c1.9-2.5,3.4-5.3,4.4-8.3
	c1-3,1.5-6.2,1.5-9.4c0-3.3-0.5-6.6-1.6-9.8c-0.9-3-2.4-5.8-4.4-8.2c-2-2.4-4.4-4.3-7.1-5.7c-2.9-1.5-6.1-2.2-9.3-2.1
	c-3.4-0.1-6.7,0.7-9.6,2.3c-2.7,1.5-5.2,3.5-7.1,5.9c-1.9,2.5-3.4,5.3-4.4,8.3C248.8,517.4,248.2,520.6,248.2,523.8z"/>
<path fill="#FFFFFF" d="M315.4,559.4v-71.2h11.3v61.3h38.2v9.9L315.4,559.4L315.4,559.4z"/>
<path fill="#FFFFFF" d="M372.1,559.4v-71.2h11.3v61.3h38.2v9.9L372.1,559.4L372.1,559.4z"/>
<path fill="#FFFFFF" d="M477.4,549.5v9.9h-48.8v-71.3h48v9.9h-36.7v20.3h31.8v9.3h-31.8v21.8L477.4,549.5L477.4,549.5z"/>
<path fill="#FFFFFF" d="M485.3,523.3c0-4.4,0.8-8.7,2.3-12.8c1.5-4.2,3.8-8.1,6.8-11.4c3-3.4,6.8-6.2,10.9-8.2
	c4.5-2.1,9.5-3.2,14.5-3.1c5.9-0.2,11.6,1.4,16.7,4.4c4.5,2.7,8.1,6.6,10.4,11.3l-8.7,5.9c-0.9-2-2.1-3.8-3.6-5.4
	c-1.3-1.4-2.9-2.6-4.6-3.5c-1.6-0.9-3.4-1.5-5.2-1.9c-1.7-0.4-3.5-0.6-5.2-0.6c-3.4-0.1-6.8,0.7-9.8,2.3c-2.8,1.5-5.2,3.5-7.1,6
	c-1.9,2.5-3.4,5.3-4.4,8.3c-1,3-1.4,6.1-1.4,9.2c0,3.4,0.6,6.8,1.7,9.9c1.1,3,2.7,5.9,4.8,8.3c2,2.4,4.5,4.3,7.3,5.8
	c2.9,1.4,6,2.2,9.2,2.1c1.8,0,3.6-0.2,5.4-0.7c1.9-0.4,3.7-1.1,5.3-2.1c1.7-1,3.3-2.2,4.7-3.7c1.5-1.5,2.7-3.3,3.6-5.3l9.3,5.3
	c-1.1,2.6-2.7,5-4.8,7.1c-2.1,2-4.4,3.8-7,5.1c-2.6,1.4-5.4,2.5-8.3,3.2c-2.8,0.7-5.8,1.1-8.7,1.1c-4.8,0.1-9.5-1.1-13.7-3.2
	c-4-2.1-7.6-4.9-10.6-8.3c-3-3.5-5.4-7.4-7-11.7C486.2,532.6,485.3,527.9,485.3,523.3z"/>
<path fill="#FFFFFF" d="M611.9,498.1h-23.7v61.3h-11.3v-61.3h-23.8v-9.9h58.8V498.1z"/>
<path fill="#FFFFFF" d="M620.7,559.4v-71.2h11.3v71.2H620.7z"/>
<path fill="#FFFFFF" d="M676.4,559.9c-4.8,0.1-9.6-1-13.9-3.1c-4.1-2-7.7-4.8-10.6-8.2c-3-3.4-5.4-7.3-7-11.6
	c-1.6-4.3-2.4-8.8-2.4-13.3c0-4.7,0.9-9.3,2.6-13.7c1.7-4.3,4.1-8.2,7.2-11.6c3-3.3,6.7-6.1,10.8-8c4.3-2,9-3,13.7-3
	c4.8-0.1,9.6,1,13.9,3.1c4.1,2,7.7,4.8,10.7,8.3c3,3.4,5.3,7.3,6.9,11.6c3.3,8.6,3.3,18.2,0,26.8c-1.6,4.2-4.1,8.1-7.2,11.5
	c-3.1,3.3-6.8,6-10.9,7.9C686,558.9,681.2,559.9,676.4,559.9z M653.8,523.8c0,3.3,0.5,6.6,1.6,9.7c0.9,3,2.4,5.8,4.4,8.3
	c2,2.4,4.4,4.4,7.2,5.8c2.9,1.5,6.2,2.2,9.4,2.1c3.3,0.1,6.6-0.7,9.6-2.3c2.7-1.5,5.1-3.5,7.1-6c1.9-2.5,3.4-5.3,4.4-8.3
	c1-3,1.5-6.2,1.5-9.4c0-3.3-0.5-6.6-1.6-9.8c-0.9-3-2.4-5.8-4.4-8.2c-2-2.4-4.4-4.3-7.1-5.7c-2.9-1.5-6.1-2.2-9.3-2.1
	c-3.4-0.1-6.7,0.7-9.6,2.3c-2.7,1.5-5.2,3.5-7.1,5.9c-1.9,2.5-3.4,5.3-4.4,8.3C654.3,517.4,653.8,520.6,653.8,523.8z"/>
<path fill="#FFFFFF" d="M732.2,509.4v50.2H721v-71.3h8.7l40.7,51.4v-51.2h11.3v71.1h-9.3L732.2,509.4z"/>
</svg>
