<?xml version="1.0" encoding="utf-8"?>
<!-- Generator: Adobe Illustrator 18.0.0, SVG Export Plug-In . SVG Version: 6.00 Build 0)  -->
<!DOCTYPE svg PUBLIC "-//W3C//DTD SVG 1.1//EN" "http://www.w3.org/Graphics/SVG/1.1/DTD/svg11.dtd">
<svg version="1.1" id="Layer_1" xmlns="http://www.w3.org/2000/svg" xmlns:xlink="http://www.w3.org/1999/xlink" x="0px" y="0px"
	 viewBox="0 0 626 626" enable-background="new 0 0 626 626" xml:space="preserve">
<path d="M626,94c0,146,0,292,0,438c-0.4,1.6-1,3.1-1.3,4.7c-9.8,44.3-36.3,73-79.7,86c-4.3,1.3-8.7,2.2-13,3.2c-40.3,0-80.7,0-121,0
	c-0.1-1.6-0.4-3.3-0.4-4.9c0-75.2,0-150.3,0-225.5c0-1.8,0-3.6,0-6c2.5,0,4.5,0,6.4,0c30.7,0,61.3-0.1,92,0.1c4.4,0,6-1,5.9-5.7
	c-0.2-31-0.1-62-0.1-93c0-1.8-0.1-3.5-0.3-6c-34.8,0-69.2,0-103.5,0c0-16.1-0.7-31.7,0.2-47.1c0.9-14.7,10.2-22.3,24.8-22.3
	c24,0,48,0,72,0c2.1,0,4.2-0.2,6.4-0.3c0-34.9,0-69.2,0-103.9c-1.8-0.1-3.3-0.2-4.8-0.2c-25.8,0-51.7,0-77.5,0
	c-22.5,0-42.9,6.5-61.3,19.5c-31.6,22.4-49.9,53.4-55.6,91.1c-2.8,18.8-1.6,38.2-2.2,57.3c-0.1,1.9,0,3.8,0,6.2c-25.9,0-51,0-76.2,0
	c-0.2,1.6-0.4,2.8-0.4,3.9c0,31.8,0.1,63.7-0.1,95.5c0,4.3,1.8,4.8,5.4,4.8c21.7-0.1,43.3-0.1,65-0.1c2,0,3.9,0,6.4,0
	c0,79.2,0,157.8,0,236.4c-73,0-146,0-219,0c-1.4-0.4-2.8-0.9-4.2-1.2c-44.5-9.6-73.4-36.2-86.5-79.8c-1.3-4.3-2.2-8.6-3.2-13
	C0,386,0,240,0,94c0.6-2.2,1.2-4.4,1.8-6.7c9.9-42.8,36-70.6,77.8-83.7C84.3,2.1,89.2,1.2,94,0c146,0,292,0,438,0
	c1.2,0.4,2.5,0.9,3.7,1.1c45,9.5,74,36.3,87.1,80.4C624.1,85.6,625,89.8,626,94z"/>
</svg>
