<?xml version="1.0" encoding="utf-8"?>
<!-- Generator: Adobe Illustrator 18.0.0, SVG Export Plug-In . SVG Version: 6.00 Build 0)  -->
<!DOCTYPE svg PUBLIC "-//W3C//DTD SVG 1.1//EN" "http://www.w3.org/Graphics/SVG/1.1/DTD/svg11.dtd">
<svg version="1.1" id="Layer_1" xmlns="http://www.w3.org/2000/svg" xmlns:xlink="http://www.w3.org/1999/xlink" x="0px" y="0px"
	 viewBox="0 90 612 611.9" enable-background="new 0 90 612 611.9" xml:space="preserve">
<path fill="#AB0C2F" d="M612,181.9c0,142.7,0,285.5,0,428.2c-0.4,1.6-1,3-1.3,4.6c-9.6,43.3-35.5,71.4-77.9,84.1
	c-4.2,1.3-8.5,2.2-12.7,3.1c-39.4,0-78.9,0-118.3,0c-0.1-1.6-0.4-3.2-0.4-4.8c0-73.5,0-146.9,0-220.5c0-1.8,0-3.5,0-5.9
	c2.4,0,4.4,0,6.3,0c30,0,59.9-0.1,89.9,0.1c4.3,0,5.9-1,5.8-5.6c-0.2-30.3-0.1-60.6-0.1-90.9c0-1.8-0.1-3.4-0.3-5.9
	c-34,0-67.7,0-101.2,0c0-15.7-0.7-31,0.2-46c0.9-14.4,10-21.8,24.2-21.8c23.5,0,46.9,0,70.4,0c2.1,0,4.1-0.2,6.3-0.3
	c0-34.1,0-67.7,0-101.6c-1.8-0.1-3.2-0.2-4.7-0.2c-25.2,0-50.5,0-75.8,0c-22,0-41.9,6.4-59.9,19.1c-30.9,21.9-48.8,52.2-54.4,89.1
	c-2.7,18.4-1.6,37.3-2.2,56c-0.1,1.9,0,3.7,0,6.1c-25.3,0-49.9,0-74.5,0c-0.2,1.6-0.4,2.7-0.4,3.8c0,31.1,0.1,62.3-0.1,93.4
	c0,4.2,1.8,4.7,5.3,4.7c21.2-0.1,42.3-0.1,63.5-0.1c2,0,3.8,0,6.3,0c0,77.4,0,154.3,0,231.1c-71.4,0-142.7,0-214.1,0
	c-1.4-0.4-2.7-0.9-4.1-1.2c-43.5-9.4-71.8-35.4-84.6-78c-1.3-4.2-2.2-8.4-3.1-12.7C0,467.4,0,324.6,0,181.9c0.6-2.2,1.2-4.3,1.8-6.6
	c9.7-41.8,35.2-69,76.1-81.8c4.6-1.5,9.4-2.3,14.1-3.5c142.7,0,285.5,0,428.2,0c1.2,0.4,2.4,0.9,3.6,1.1c44,9.3,72.3,35.5,85.2,78.6
	C610.1,173.7,611,177.8,612,181.9z"/>
</svg>
