<svg id="Layer_1" data-name="Layer 1" xmlns="http://www.w3.org/2000/svg" viewBox="0 0 144.17 128.41"><defs><style>.cls-1{fill:#2b2e30;}</style></defs><title>LivingPlantCollection</title><path class="cls-1" d="M642.45,48.5a4.15,4.15,0,0,1-.44,1.93,4.38,4.38,0,0,1-1.18,1.44,5.28,5.28,0,0,1-1.74.9,7.08,7.08,0,0,1-2.12.31H628.5V35.32h9.15a3.51,3.51,0,0,1,1.68.4,4.19,4.19,0,0,1,1.27,1,4.76,4.76,0,0,1,.81,1.45,4.88,4.88,0,0,1,.29,1.64,4.77,4.77,0,0,1-.66,2.44A4,4,0,0,1,639.15,44a4.51,4.51,0,0,1,2.41,1.64A4.69,4.69,0,0,1,642.45,48.5ZM631.3,37.75V43h5.15a2.29,2.29,0,0,0,1-.2,2.64,2.64,0,0,0,.77-0.54,2.35,2.35,0,0,0,.52-0.81,2.84,2.84,0,0,0,.19-1.05,2.75,2.75,0,0,0-.65-1.89,2.1,2.1,0,0,0-1.65-.74h-5.3ZM639.58,48a3,3,0,0,0-.19-1,3,3,0,0,0-.5-0.87,2.35,2.35,0,0,0-.76-0.6,2.15,2.15,0,0,0-1-.23H631.3v5.43H637a2.48,2.48,0,0,0,1-.21,2.62,2.62,0,0,0,.83-0.57,2.68,2.68,0,0,0,.55-0.85A2.71,2.71,0,0,0,639.58,48Z" transform="translate(-628.5 -35.2)"/><path class="cls-1" d="M650.73,35.32h2.45l7,17.75h-2.95l-1.87-4.83H648.5l-1.85,4.83h-3Zm4.07,10.85L652,38.55l-3,7.63h5.8Z" transform="translate(-628.5 -35.2)"/><path class="cls-1" d="M662.5,53.07V35.32h2.8V50.6h9.53v2.48H662.5Z" transform="translate(-628.5 -35.2)"/><path class="cls-1" d="M677.5,53.07V35.32h2.8V50.6h9.53v2.48H677.5Z" transform="translate(-628.5 -35.2)"/><path class="cls-1" d="M709,39.5a3.87,3.87,0,0,0-.72-0.59,7.31,7.31,0,0,0-1.11-.59,8.18,8.18,0,0,0-1.4-.45,7,7,0,0,0-1.56-.17,4.26,4.26,0,0,0-2.61.65,2.15,2.15,0,0,0-.84,1.8,2,2,0,0,0,.26,1.06,2.24,2.24,0,0,0,.81.72,6.32,6.32,0,0,0,1.38.55q0.82,0.24,1.92.51a22.11,22.11,0,0,1,2.44.73,7,7,0,0,1,1.84,1,4,4,0,0,1,1.16,1.41,4.57,4.57,0,0,1,.41,2,4.94,4.94,0,0,1-.51,2.32,4.36,4.36,0,0,1-1.4,1.59A6.17,6.17,0,0,1,707,53a10.62,10.62,0,0,1-2.53.29,12.58,12.58,0,0,1-3.91-.61,11.2,11.2,0,0,1-3.41-1.79l1.27-2.4a6,6,0,0,0,.94.73,8.73,8.73,0,0,0,1.43.74,12.43,12.43,0,0,0,1.76.58,8.1,8.1,0,0,0,2,.24,4.74,4.74,0,0,0,2.55-.57,1.89,1.89,0,0,0,.9-1.7,1.82,1.82,0,0,0-.34-1.12,2.9,2.9,0,0,0-1-.79,8.42,8.42,0,0,0-1.52-.61q-0.9-.27-2.05-0.58a21.13,21.13,0,0,1-2.31-.74,5.78,5.78,0,0,1-1.64-.94,3.68,3.68,0,0,1-1-1.29,4.27,4.27,0,0,1-.34-1.79,5.15,5.15,0,0,1,.5-2.31,4.94,4.94,0,0,1,1.36-1.7,6,6,0,0,1,2-1,8.9,8.9,0,0,1,2.55-.35,9.35,9.35,0,0,1,3.32.58,11,11,0,0,1,2.68,1.42Z" transform="translate(-628.5 -35.2)"/><path class="cls-1" d="M726.53,37.8h-5.9V53.07H717.8V37.8h-5.92V35.32h14.65V37.8Z" transform="translate(-628.5 -35.2)"/><path class="cls-1" d="M733.72,35.32h2.45l7,17.75h-3l-1.87-4.83H731.5l-1.85,4.83h-3Zm4.08,10.85L735,38.55l-3,7.63h5.8Z" transform="translate(-628.5 -35.2)"/><path class="cls-1" d="M758.53,37.8h-5.9V53.07H749.8V37.8h-5.92V35.32h14.65V37.8Z" transform="translate(-628.5 -35.2)"/><path class="cls-1" d="M772.67,50.6v2.48H760.5V35.32h12V37.8H763.3v5h7.92v2.33H763.3V50.6h9.38Z" transform="translate(-628.5 -35.2)"/><path class="cls-1" d="M629.6,95.07v-32h5v27.5h17.15v4.46H629.6Z" transform="translate(-628.5 -35.2)"/><path class="cls-1" d="M655.6,95.07v-32h5v32h-5Z" transform="translate(-628.5 -35.2)"/><path class="cls-1" d="M669.63,63.12l9.63,25.6,9.58-25.6h5.35l-12.78,32H677.1l-12.83-32h5.35Z" transform="translate(-628.5 -35.2)"/><path class="cls-1" d="M698.6,95.07v-32h5v32h-5Z" transform="translate(-628.5 -35.2)"/><path class="cls-1" d="M715.64,72.57v22.5h-5v-32h4l18.27,23v-23h5.08v31.9h-4.18Z" transform="translate(-628.5 -35.2)"/><path class="cls-1" d="M768,91.11a12.61,12.61,0,0,1-9.31,4.19A13.46,13.46,0,0,1,752.71,94a15.33,15.33,0,0,1-4.77-3.58,16.75,16.75,0,0,1-3.17-5.22A17.07,17.07,0,0,1,743.62,79a16.72,16.72,0,0,1,1.15-6.17,16.33,16.33,0,0,1,3.17-5.13,14.94,14.94,0,0,1,4.82-3.49,15.8,15.8,0,0,1,13.77.63,12.36,12.36,0,0,1,4.68,5.06l-3.87,2.79a9,9,0,0,0-3.6-3.92,10,10,0,0,0-5-1.3,8.69,8.69,0,0,0-4.1,1A10.06,10.06,0,0,0,751.45,71a11.49,11.49,0,0,0-2,3.71,14,14,0,0,0-.7,4.41,12.91,12.91,0,0,0,.79,4.54,11.84,11.84,0,0,0,2.16,3.69,10.22,10.22,0,0,0,3.26,2.5,9.21,9.21,0,0,0,4.09.92,10.21,10.21,0,0,0,4.66-1.12A13.67,13.67,0,0,0,768,86.07V82.65h-6.71V78.92H772.2V95.07H768v-4Z" transform="translate(-628.5 -35.2)"/><path class="cls-1" d="M630.1,137.07v-32h13.41a8.87,8.87,0,0,1,4,.9,10.21,10.21,0,0,1,3.13,2.36,11.15,11.15,0,0,1,2,3.33,10.21,10.21,0,0,1,.74,3.8,11,11,0,0,1-.7,3.89,10.9,10.9,0,0,1-2,3.33,9.53,9.53,0,0,1-3,2.34,8.77,8.77,0,0,1-3.94.88h-8.64v11.12h-5Zm5-15.57h8.32a4.22,4.22,0,0,0,2-.45,4.49,4.49,0,0,0,1.51-1.26,6.31,6.31,0,0,0,1-1.89,7.51,7.51,0,0,0,.36-2.39,6.88,6.88,0,0,0-.4-2.43,5.71,5.71,0,0,0-1.12-1.87,5.16,5.16,0,0,0-1.64-1.21,4.51,4.51,0,0,0-1.91-.43h-8.05V121.5Z" transform="translate(-628.5 -35.2)"/><path class="cls-1" d="M658.1,137.07v-32h5v27.5h17.15v4.46H658.1Z" transform="translate(-628.5 -35.2)"/><path class="cls-1" d="M693.5,105.12h4.41l12.6,32h-5.31l-3.37-8.69H689.5l-3.33,8.69h-5.35Zm7.33,19.53-5.13-13.73-5.31,13.73h10.44Z" transform="translate(-628.5 -35.2)"/><path class="cls-1" d="M719.14,114.57v22.5h-5v-32h4l18.27,23v-23h5.08v31.9h-4.18Z" transform="translate(-628.5 -35.2)"/><path class="cls-1" d="M772.54,109.58H761.92v27.5h-5.08v-27.5H746.17v-4.46h26.37v4.46Z" transform="translate(-628.5 -35.2)"/><path class="cls-1" d="M628.81,155.19a8.55,8.55,0,0,1,.53-2.93,8.1,8.1,0,0,1,1.55-2.62,7.83,7.83,0,0,1,2.5-1.87,7.56,7.56,0,0,1,3.33-.71,7.08,7.08,0,0,1,3.82,1,6.43,6.43,0,0,1,2.39,2.58l-2,1.36a4.62,4.62,0,0,0-.83-1.24,4.05,4.05,0,0,0-1.06-.8,4.56,4.56,0,0,0-1.2-.43,6,6,0,0,0-1.2-.13,4.71,4.71,0,0,0-2.25.52,5,5,0,0,0-1.62,1.37,6.1,6.1,0,0,0-1,1.91,7,7,0,0,0-.33,2.12,6.64,6.64,0,0,0,.39,2.28,6.16,6.16,0,0,0,1.09,1.91,5.37,5.37,0,0,0,1.67,1.32,4.57,4.57,0,0,0,2.12.49,5.32,5.32,0,0,0,1.23-.15,4.6,4.6,0,0,0,1.22-.48,4.87,4.87,0,0,0,1.08-.84,4.19,4.19,0,0,0,.82-1.22l2.14,1.22a5,5,0,0,1-1.1,1.62,7,7,0,0,1-1.61,1.18,8.23,8.23,0,0,1-1.9.74,8,8,0,0,1-2,.25,6.76,6.76,0,0,1-3.15-.74A8.25,8.25,0,0,1,631,161a8.84,8.84,0,0,1-1.61-2.69A8.54,8.54,0,0,1,628.81,155.19Z" transform="translate(-628.5 -35.2)"/><path class="cls-1" d="M652.63,163.59a7.16,7.16,0,0,1-3.19-.7A7.93,7.93,0,0,1,647,161a8.4,8.4,0,0,1-1.6-2.66,8.6,8.6,0,0,1-.56-3.06,8.34,8.34,0,0,1,.6-3.13,8.69,8.69,0,0,1,1.64-2.65,7.86,7.86,0,0,1,2.48-1.83,7.26,7.26,0,0,1,3.14-.68,7,7,0,0,1,3.19.72,8,8,0,0,1,2.46,1.9,8.72,8.72,0,0,1,1.59,2.66,8.52,8.52,0,0,1,0,6.15,8.26,8.26,0,0,1-1.64,2.63,8.08,8.08,0,0,1-2.5,1.82A7.21,7.21,0,0,1,652.63,163.59Zm-5.2-8.28a6.87,6.87,0,0,0,.37,2.23,6.06,6.06,0,0,0,1,1.91,5.11,5.11,0,0,0,1.64,1.32,4.67,4.67,0,0,0,2.16.49,4.53,4.53,0,0,0,2.2-.52,5.16,5.16,0,0,0,1.62-1.37,6.15,6.15,0,0,0,1-1.91,6.93,6.93,0,0,0,.35-2.16,6.85,6.85,0,0,0-.37-2.24,6,6,0,0,0-1-1.89,5.24,5.24,0,0,0-1.63-1.31,4.56,4.56,0,0,0-2.13-.49,4.61,4.61,0,0,0-2.21.52,5.26,5.26,0,0,0-1.63,1.35,6,6,0,0,0-1,1.9A6.81,6.81,0,0,0,647.43,155.31Z" transform="translate(-628.5 -35.2)"/><path class="cls-1" d="M662.84,163.47V147.14h2.58V161.2h8.76v2.28H662.84Z" transform="translate(-628.5 -35.2)"/><path class="cls-1" d="M675.84,163.47V147.14h2.58V161.2h8.76v2.28H675.84Z" transform="translate(-628.5 -35.2)"/><path class="cls-1" d="M700,161.2v2.28h-11.2V147.14h11v2.28h-8.42v4.65h7.29v2.14h-7.29v5H700Z" transform="translate(-628.5 -35.2)"/><path class="cls-1" d="M701.8,155.19a8.54,8.54,0,0,1,.53-2.93,8.1,8.1,0,0,1,1.55-2.62,7.83,7.83,0,0,1,2.5-1.87,7.56,7.56,0,0,1,3.33-.71,7.08,7.08,0,0,1,3.82,1,6.43,6.43,0,0,1,2.39,2.58l-2,1.36a4.62,4.62,0,0,0-.83-1.24,4.05,4.05,0,0,0-1.06-.8,4.57,4.57,0,0,0-1.2-.43,6,6,0,0,0-1.2-.13,4.71,4.71,0,0,0-2.25.52,5,5,0,0,0-1.62,1.37,6.09,6.09,0,0,0-1,1.91,7,7,0,0,0-.33,2.12,6.62,6.62,0,0,0,.39,2.28,6.15,6.15,0,0,0,1.09,1.91,5.37,5.37,0,0,0,1.67,1.32,4.57,4.57,0,0,0,2.12.49,5.31,5.31,0,0,0,1.23-.15,4.61,4.61,0,0,0,1.22-.48,4.86,4.86,0,0,0,1.08-.84,4.18,4.18,0,0,0,.82-1.22l2.14,1.22a5,5,0,0,1-1.1,1.62,7,7,0,0,1-1.61,1.18,8.23,8.23,0,0,1-1.9.74,8,8,0,0,1-2,.25,6.76,6.76,0,0,1-3.15-.74A8.25,8.25,0,0,1,704,161a8.85,8.85,0,0,1-1.61-2.69A8.53,8.53,0,0,1,701.8,155.19Z" transform="translate(-628.5 -35.2)"/><path class="cls-1" d="M730.82,149.42h-5.43v14.05h-2.6V149.42h-5.45v-2.28h13.48v2.28Z" transform="translate(-628.5 -35.2)"/><path class="cls-1" d="M732.84,163.47V147.14h2.58v16.33h-2.58Z" transform="translate(-628.5 -35.2)"/><path class="cls-1" d="M745.63,163.59a7.16,7.16,0,0,1-3.19-.7A7.93,7.93,0,0,1,740,161a8.4,8.4,0,0,1-1.6-2.66,8.58,8.58,0,0,1-.56-3.06,8.35,8.35,0,0,1,.6-3.13,8.71,8.71,0,0,1,1.64-2.65,7.87,7.87,0,0,1,2.48-1.83,7.27,7.27,0,0,1,3.14-.68,7,7,0,0,1,3.19.72,8,8,0,0,1,2.46,1.9,8.7,8.7,0,0,1,1.59,2.66,8.51,8.51,0,0,1,0,6.15,8.26,8.26,0,0,1-1.64,2.63,8.08,8.08,0,0,1-2.49,1.82A7.21,7.21,0,0,1,745.63,163.59Zm-5.2-8.28a6.85,6.85,0,0,0,.37,2.23,6,6,0,0,0,1,1.91,5.1,5.1,0,0,0,1.64,1.32,4.67,4.67,0,0,0,2.16.49,4.53,4.53,0,0,0,2.2-.52,5.16,5.16,0,0,0,1.62-1.37,6.18,6.18,0,0,0,1-1.91,7,7,0,0,0,.34-2.16,6.85,6.85,0,0,0-.37-2.24,6,6,0,0,0-1-1.89,5.23,5.23,0,0,0-1.63-1.31,4.56,4.56,0,0,0-2.13-.49,4.61,4.61,0,0,0-2.21.52,5.27,5.27,0,0,0-1.63,1.35,6.06,6.06,0,0,0-1,1.9A6.81,6.81,0,0,0,740.43,155.31Z" transform="translate(-628.5 -35.2)"/><path class="cls-1" d="M758.42,152v11.5h-2.58V147.14h2l9.34,11.78V147.17h2.6v16.31h-2.14Z" transform="translate(-628.5 -35.2)"/></svg>